{"glyphs":{"0":{"ha":824,"x_min":46,"x_max":778,"o":"m 46 399 q 93 184 46 279 q 224 35 140 89 q 413 -18 307 -18 q 600 36 517 -18 q 731 186 683 90 q 778 401 778 282 q 731 608 778 517 q 600 752 683 700 q 413 804 517 804 q 224 752 307 804 q 93 608 140 700 q 46 399 46 515 m 154 403 q 188 562 154 492 q 280 672 221 632 q 413 711 339 711 q 545 671 486 711 q 637 558 604 631 q 669 396 669 486 q 637 231 669 304 q 545 117 604 158 q 413 76 486 76 q 280 119 339 76 q 188 235 221 161 q 154 403 154 310 z "},"1":{"ha":433,"x_min":14,"x_max":333,"o":"m 260 786 l 14 672 l 63 583 l 222 658 l 222 0 l 333 0 l 333 786 l 260 786 z "},"2":{"ha":665,"x_min":35,"x_max":638,"o":"m 304 804 q 165 784 224 804 q 53 732 106 764 l 85 643 q 190 695 144 676 q 303 714 236 714 q 438 677 389 714 q 488 569 488 640 q 451 460 488 511 q 329 335 415 408 l 35 79 l 35 0 l 638 0 l 619 86 l 181 86 l 388 260 q 547 428 500 354 q 594 581 594 501 q 516 744 594 683 q 304 804 438 804 z "},"3":{"ha":643,"x_min":0,"x_max":592,"o":"m 294 804 q 18 718 153 804 l 72 646 q 169 695 114 675 q 290 715 225 715 q 417 674 369 715 q 465 574 465 632 q 403 456 465 500 q 233 413 340 413 l 175 413 l 192 331 l 225 331 q 419 283 357 331 q 482 150 482 236 q 453 62 482 100 q 377 3 424 24 q 278 -17 331 -17 q 160 -1 210 -17 q 57 47 111 14 l 0 -31 q 131 -84 60 -62 q 274 -106 203 -106 q 440 -72 368 -106 q 552 22 513 -37 q 592 153 592 81 q 545 297 592 236 q 428 374 499 357 q 533 451 490 396 q 575 575 575 506 q 543 689 575 636 q 448 773 511 742 q 294 804 385 804 z "},"4":{"ha":728,"x_min":14,"x_max":700,"o":"m 556 793 l 479 793 l 14 188 l 29 97 l 446 97 l 446 -96 l 556 -96 l 556 97 l 688 97 l 700 188 l 556 188 l 556 793 m 132 188 l 446 601 l 446 188 l 132 188 z "},"5":{"ha":689,"x_min":46,"x_max":643,"o":"m 200 311 q 266 358 225 336 q 356 379 307 379 q 485 328 436 379 q 533 186 533 276 q 476 40 533 94 q 322 -15 418 -15 q 206 0 256 -15 q 101 47 157 15 l 46 -31 q 176 -84 106 -62 q 317 -106 247 -106 q 493 -67 419 -106 q 605 39 567 -28 q 643 186 643 106 q 568 389 642 310 q 349 468 494 468 q 276 456 314 468 q 204 424 238 444 l 217 696 l 578 696 l 590 786 l 117 786 l 94 311 l 200 311 z "},"6":{"ha":710,"x_min":46,"x_max":665,"o":"m 368 538 q 526 501 458 538 q 629 403 593 465 q 665 264 665 340 q 627 120 665 185 q 522 19 589 56 q 371 -18 454 -18 q 204 25 278 -18 q 88 153 131 68 q 46 356 46 238 q 121 619 46 506 q 311 799 196 733 q 546 881 426 865 l 571 794 q 401 744 486 785 q 250 630 315 703 q 163 460 185 557 q 368 538 256 538 m 367 75 q 508 127 454 75 q 561 257 561 179 q 508 397 561 344 q 365 450 456 450 q 252 422 307 450 q 153 349 197 393 q 213 145 157 215 q 367 75 269 75 z "},"7":{"ha":611,"x_min":14,"x_max":583,"o":"m 547 786 l 14 786 l 28 696 l 461 696 l 172 -64 l 276 -96 l 583 738 l 547 786 z "},"8":{"ha":717,"x_min":46,"x_max":672,"o":"m 360 893 q 211 861 274 893 q 116 777 149 829 q 83 664 83 725 q 124 549 83 600 q 226 471 164 497 q 138 424 179 460 q 71 338 96 388 q 46 240 46 289 q 83 110 46 168 q 190 17 119 51 q 360 -18 261 -18 q 528 17 457 -18 q 635 112 599 53 q 672 240 672 171 q 647 343 672 294 q 581 425 622 392 q 492 471 539 458 q 593 549 551 499 q 635 664 635 600 q 602 777 635 725 q 508 861 569 829 q 360 893 446 893 m 356 804 q 483 763 438 804 q 529 661 529 722 q 484 563 529 606 q 360 508 439 521 q 234 563 279 521 q 189 661 189 606 q 233 763 189 721 q 356 804 276 804 m 360 429 q 512 365 458 417 q 565 238 565 313 q 505 118 565 164 q 360 72 444 72 q 212 118 271 72 q 153 238 153 164 q 206 365 153 313 q 360 429 258 417 z "},"9":{"ha":710,"x_min":46,"x_max":665,"o":"m 340 804 q 507 761 433 804 q 623 633 581 718 q 665 431 665 549 q 590 167 665 281 q 400 -13 515 53 q 165 -94 285 -79 l 140 -8 q 310 43 225 1 q 461 158 396 85 q 549 328 526 231 q 343 249 451 249 q 184 285 251 249 q 81 383 117 321 q 46 522 46 446 q 84 667 46 603 q 190 767 122 731 q 340 804 257 804 m 150 529 q 202 390 150 443 q 344 338 254 338 q 458 366 403 338 q 558 439 514 394 q 497 642 553 572 q 344 713 440 713 q 203 660 257 713 q 150 529 150 607 z "},"\r":{"ha":0,"x_min":0,"x_max":0,"o":""}," ":{"ha":324,"x_min":0,"x_max":0,"o":""},"\u0000":{"ha":0,"x_min":0,"x_max":0,"o":""}," ":{"ha":328,"x_min":0,"x_max":0,"o":""},"‌":{"ha":0,"x_min":-42,"x_max":42,"o":"m 42 1718 l -42 1718 l -42 -94 l 42 -94 l 42 1718 z "},"‍":{"ha":0,"x_min":-157,"x_max":158,"o":"m -157 1778 l -54 1675 l -157 1572 l -103 1518 l -42 1578 l -42 -94 l 42 -94 l 42 1579 l 104 1518 l 158 1572 l 56 1675 l 158 1778 l 103 1833 l 0 1731 l -101 1833 l -157 1778 z "},"◌":{"ha":840,"x_min":63,"x_max":778,"o":"m 419 638 q 449 649 438 638 q 460 678 460 660 q 449 708 460 696 q 419 719 438 719 q 390 708 401 719 q 379 678 379 696 q 390 649 379 660 q 419 638 401 638 m 296 697 q 267 686 278 697 q 256 657 256 675 q 267 628 256 639 q 296 617 278 617 q 325 628 314 617 q 336 657 336 639 q 325 686 336 675 q 296 697 314 697 m 544 617 q 574 628 563 617 q 585 657 585 639 q 574 686 585 675 q 544 697 563 697 q 515 686 526 697 q 504 657 504 675 q 515 628 504 639 q 544 617 526 617 m 190 628 q 160 616 172 628 q 149 586 149 604 q 160 557 149 568 q 190 546 172 546 q 219 557 208 546 q 231 586 231 568 q 219 616 231 604 q 190 628 208 628 m 650 546 q 680 557 668 546 q 692 586 692 568 q 680 616 692 604 q 650 628 668 628 q 621 616 632 628 q 610 586 610 604 q 621 557 610 568 q 650 546 632 546 m 124 518 q 94 506 106 518 q 82 476 82 494 q 94 447 82 458 q 124 436 106 436 q 153 447 142 436 q 164 476 164 458 q 153 506 164 494 q 124 518 142 518 m 717 436 q 746 447 735 436 q 757 476 757 458 q 746 506 757 494 q 717 518 735 518 q 688 506 699 518 q 676 476 676 494 q 688 447 676 458 q 717 436 699 436 m 104 399 q 74 387 86 399 q 63 357 63 375 q 74 328 63 339 q 104 318 86 318 q 133 328 122 318 q 144 357 144 339 q 133 387 144 375 q 104 399 122 399 m 736 318 q 766 328 754 318 q 778 357 778 339 q 766 387 778 375 q 736 399 754 399 q 707 387 718 399 q 696 357 696 375 q 707 328 696 339 q 736 318 718 318 m 124 282 q 94 271 106 282 q 82 242 82 260 q 94 213 82 224 q 124 201 106 201 q 153 213 142 201 q 164 242 164 224 q 153 271 164 260 q 124 282 142 282 m 717 201 q 746 213 735 201 q 757 242 757 224 q 746 271 757 260 q 717 282 735 282 q 688 271 699 282 q 676 242 676 260 q 688 213 676 224 q 717 201 699 201 m 189 171 q 159 160 171 171 q 147 131 147 149 q 159 101 147 113 q 189 90 171 90 q 218 101 207 90 q 229 131 229 113 q 218 160 229 149 q 189 171 207 171 m 651 90 q 681 101 669 90 q 693 131 693 113 q 681 160 693 149 q 651 171 669 171 q 622 160 633 171 q 611 131 611 149 q 622 101 611 113 q 651 90 633 90 m 296 103 q 267 91 278 103 q 256 61 256 79 q 267 32 256 43 q 296 21 278 21 q 325 32 314 21 q 336 61 336 43 q 325 91 336 79 q 296 103 314 103 m 544 21 q 574 32 563 21 q 585 61 585 43 q 574 91 585 79 q 544 103 563 103 q 515 91 526 103 q 504 61 504 79 q 515 32 504 43 q 544 21 526 21 m 419 0 q 449 11 438 0 q 460 40 460 22 q 449 70 460 58 q 419 82 438 82 q 390 70 401 82 q 379 40 379 58 q 390 11 379 22 q 419 0 401 0 z "},"A":{"ha":846,"x_min":14,"x_max":832,"o":"m 121 0 l 219 268 l 618 268 l 724 -10 l 832 8 l 469 944 l 364 944 l 14 0 l 121 0 m 415 800 l 586 357 l 250 357 l 415 800 z "},"B":{"ha":819,"x_min":129,"x_max":775,"o":"m 425 0 q 679 64 583 0 q 775 265 775 128 q 727 417 775 357 q 593 506 679 476 q 688 585 651 539 q 724 694 724 632 q 636 887 724 829 q 392 944 549 944 l 129 944 l 129 0 l 425 0 m 388 851 q 556 818 500 851 q 613 693 613 785 q 545 572 613 608 q 367 533 478 535 l 239 533 l 239 851 l 388 851 m 438 444 q 604 400 544 444 q 664 263 664 356 q 424 92 664 92 l 239 92 l 239 444 l 438 444 z "},"C":{"ha":774,"x_min":60,"x_max":742,"o":"m 740 910 q 628 949 700 935 q 504 964 556 964 q 269 899 371 964 q 114 720 168 833 q 60 467 60 607 q 110 222 60 333 q 258 46 160 111 q 496 -19 357 -19 q 627 -3 556 -19 q 742 35 699 13 l 700 118 q 608 88 657 99 q 492 76 558 76 q 322 128 394 76 q 213 270 250 181 q 175 468 175 360 q 218 675 175 583 q 337 818 261 767 q 504 869 413 869 q 610 860 569 869 q 706 831 650 851 l 740 910 z "},"D":{"ha":932,"x_min":129,"x_max":874,"o":"m 451 0 q 681 63 586 0 q 825 233 776 125 q 874 478 874 340 q 771 815 874 686 q 460 944 668 944 l 129 944 l 129 0 l 451 0 m 465 851 q 688 749 613 851 q 764 476 764 646 q 725 272 764 358 q 616 138 686 185 q 453 92 546 92 l 239 92 l 239 851 l 465 851 z "},"E":{"ha":726,"x_min":129,"x_max":699,"o":"m 239 88 l 239 442 l 578 442 l 565 524 l 239 524 l 239 863 l 657 863 l 644 944 l 129 944 l 129 0 l 699 0 l 685 88 l 239 88 z "},"F":{"ha":668,"x_min":129,"x_max":640,"o":"m 239 863 l 640 863 l 626 944 l 129 944 l 129 0 l 239 0 l 239 436 l 564 436 l 551 518 l 239 518 l 239 863 z "},"G":{"ha":871,"x_min":60,"x_max":799,"o":"m 693 104 q 532 76 615 76 q 349 124 431 76 q 222 261 268 172 q 175 468 175 350 q 227 683 175 592 q 365 822 279 774 q 549 869 450 869 q 653 860 613 869 q 749 831 693 851 l 783 910 q 670 949 743 935 q 546 964 597 964 q 299 901 410 964 q 124 724 188 838 q 60 467 60 611 q 118 219 60 329 q 284 44 176 108 q 533 -19 392 -19 q 678 -1 603 -19 q 797 46 753 18 l 799 486 l 494 486 l 485 404 l 693 404 l 693 104 z "},"H":{"ha":921,"x_min":129,"x_max":792,"o":"m 682 944 l 682 521 l 239 521 l 239 951 l 129 944 l 129 0 l 239 0 l 239 432 l 682 432 l 682 0 l 792 0 l 792 944 l 682 944 z "},"I":{"ha":367,"x_min":129,"x_max":239,"o":"m 129 944 l 129 0 l 239 0 l 239 944 l 129 944 z "},"J":{"ha":354,"x_min":14,"x_max":240,"o":"m 131 92 q 121 13 131 39 q 88 -31 111 -14 q 14 -65 65 -47 l 57 -142 q 168 -94 129 -119 q 224 -30 207 -68 q 240 68 240 8 l 240 944 l 131 944 l 131 92 z "},"K":{"ha":846,"x_min":129,"x_max":832,"o":"m 239 342 l 239 0 l 129 0 l 129 944 l 239 944 l 239 486 l 694 965 l 769 900 l 418 532 l 832 0 l 700 0 l 346 454 l 239 342 z "},"L":{"ha":703,"x_min":129,"x_max":689,"o":"m 239 944 l 129 944 l 129 0 l 689 0 l 678 88 l 239 88 l 239 944 z "},"M":{"ha":1060,"x_min":129,"x_max":931,"o":"m 819 0 l 931 0 l 931 944 l 861 944 l 533 463 l 194 944 l 129 944 l 129 0 l 239 0 l 239 714 l 518 311 l 556 318 l 819 711 l 819 0 z "},"N":{"ha":972,"x_min":129,"x_max":844,"o":"m 275 679 l 756 0 l 844 0 l 844 944 l 733 944 l 733 213 l 676 306 l 217 944 l 129 944 l 129 0 l 239 0 l 239 742 l 275 679 z "},"O":{"ha":1007,"x_min":60,"x_max":949,"o":"m 506 967 q 276 899 378 964 q 117 721 175 833 q 60 468 60 608 q 117 217 60 328 q 274 43 174 106 q 500 -19 374 -19 q 731 47 628 -18 q 891 226 833 113 q 949 479 949 339 q 892 731 949 619 q 733 904 835 842 q 506 967 632 967 m 175 469 q 218 676 175 585 q 337 819 261 767 q 508 871 413 871 q 674 820 601 871 q 789 680 747 769 q 831 478 831 590 q 788 271 831 363 q 669 128 744 179 q 497 76 593 76 q 331 127 404 76 q 217 267 258 178 q 175 469 175 357 z "},"P":{"ha":781,"x_min":129,"x_max":735,"o":"m 372 357 q 632 433 531 357 q 735 656 733 508 q 640 874 735 804 q 386 944 546 944 l 129 944 l 129 0 l 239 0 l 239 357 l 372 357 m 388 851 q 563 806 503 851 q 622 651 622 761 q 553 499 619 549 q 376 450 486 450 l 239 450 l 239 851 l 388 851 z "},"Q":{"ha":1007,"x_min":60,"x_max":949,"o":"m 949 479 q 913 276 949 369 q 811 114 876 182 l 899 29 l 833 -28 l 744 57 q 500 -19 635 -18 q 274 43 374 -19 q 117 217 174 106 q 60 468 60 328 q 117 721 60 608 q 276 899 175 833 q 506 967 378 964 q 733 904 632 967 q 892 731 835 842 q 949 479 949 619 m 497 76 q 668 128 593 76 l 528 260 l 604 317 l 735 189 q 806 317 781 243 q 831 478 831 392 q 789 680 831 590 q 674 820 747 769 q 508 871 601 871 q 337 819 413 871 q 218 676 261 767 q 175 469 175 585 q 217 267 175 357 q 331 127 258 178 q 497 76 404 76 z "},"R":{"ha":822,"x_min":129,"x_max":808,"o":"m 239 0 l 239 388 l 372 388 q 471 393 421 388 l 688 0 l 808 0 l 568 422 q 689 516 644 454 q 735 669 733 578 q 640 878 735 811 q 386 944 546 944 l 129 944 l 129 0 l 239 0 m 388 851 q 561 810 500 851 q 622 665 622 769 q 553 522 621 565 q 376 478 486 478 l 239 478 l 239 851 l 388 851 z "},"S":{"ha":713,"x_min":60,"x_max":668,"o":"m 75 46 q 193 1 113 21 q 335 -18 274 -18 q 513 14 438 -18 q 628 101 589 46 q 668 229 668 157 q 640 344 668 296 q 559 429 613 392 q 418 507 506 467 q 271 581 321 551 q 194 645 221 610 q 167 731 167 681 q 222 835 167 797 q 368 872 276 872 q 472 860 429 872 q 565 824 514 847 l 603 908 q 491 950 554 933 q 361 967 428 967 q 202 935 271 967 q 97 850 133 904 q 60 729 60 796 q 120 569 60 635 q 310 449 181 504 q 452 380 400 410 q 532 313 504 350 q 560 228 560 276 q 501 117 560 160 q 333 75 442 75 q 209 92 272 75 q 101 132 146 110 l 75 46 z "},"T":{"ha":782,"x_min":14,"x_max":768,"o":"m 14 858 l 331 858 l 331 0 l 442 0 l 442 858 l 768 858 l 756 944 l 14 944 l 14 858 z "},"U":{"ha":947,"x_min":115,"x_max":832,"o":"m 115 335 q 159 154 115 233 q 284 29 203 75 q 474 -17 365 -17 q 663 28 582 -17 q 788 154 744 74 q 832 335 832 235 l 832 944 l 721 944 l 721 347 q 654 151 721 226 q 474 76 588 76 q 293 151 361 76 q 225 347 225 226 l 225 944 l 115 944 l 115 335 z "},"V":{"ha":846,"x_min":14,"x_max":832,"o":"m 376 0 l 482 0 l 832 944 l 725 944 l 431 146 l 122 954 l 14 938 l 376 0 z "},"W":{"ha":1190,"x_min":14,"x_max":1176,"o":"m 813 0 l 596 781 l 392 0 l 286 0 l 14 938 l 122 954 l 340 150 l 544 944 l 651 944 l 865 150 l 1071 944 l 1176 944 l 918 0 l 813 0 z "},"X":{"ha":818,"x_min":14,"x_max":804,"o":"m 665 0 l 785 0 l 486 463 l 804 944 l 686 944 l 429 542 l 142 968 l 50 922 l 353 478 l 14 0 l 132 0 l 411 399 l 665 0 z "},"Y":{"ha":782,"x_min":14,"x_max":768,"o":"m 768 944 l 650 944 l 382 488 l 117 967 l 14 922 l 326 379 l 326 0 l 436 0 l 438 385 l 768 944 z "},"Z":{"ha":781,"x_min":32,"x_max":749,"o":"m 749 858 l 739 944 l 69 944 l 86 858 l 626 858 l 32 88 l 43 0 l 736 0 l 726 88 l 153 88 l 749 858 z "},"a":{"ha":678,"x_min":69,"x_max":597,"o":"m 144 550 q 237 584 194 572 q 339 596 279 596 q 451 553 415 596 q 486 435 486 510 l 486 397 l 313 397 q 136 343 203 397 q 69 192 69 289 q 128 40 69 99 q 300 -18 188 -18 q 408 8 353 -18 q 501 68 464 33 l 515 0 l 597 0 l 597 465 q 564 582 597 531 q 471 663 531 633 q 335 692 411 692 q 219 675 289 692 q 113 633 149 658 l 144 550 m 171 192 q 208 285 171 247 q 310 324 244 324 l 488 324 l 488 171 q 401 99 450 126 q 297 71 351 71 q 203 107 235 71 q 171 192 171 143 z "},"b":{"ha":735,"x_min":101,"x_max":689,"o":"m 368 692 q 603 594 518 692 q 689 335 689 496 q 649 152 689 232 q 537 27 610 72 q 365 -18 464 -18 q 277 -1 324 -18 q 190 49 231 17 l 167 0 l 101 0 l 101 967 l 211 981 l 211 640 q 290 678 249 665 q 368 692 332 692 m 368 75 q 522 147 468 75 q 578 333 576 219 q 524 526 578 453 q 369 599 471 599 q 282 583 319 599 q 211 536 244 568 l 211 135 q 282 90 244 106 q 368 75 319 75 z "},"c":{"ha":636,"x_min":46,"x_max":596,"o":"m 557 122 q 469 86 508 97 q 369 75 431 75 q 213 149 268 75 q 157 340 157 222 q 217 526 158 453 q 375 599 275 599 q 470 588 433 599 q 563 553 507 576 l 596 631 q 490 674 556 657 q 378 692 424 692 q 203 647 278 692 q 87 522 128 601 q 46 339 46 442 q 85 153 46 235 q 197 27 124 72 q 371 -18 271 -18 q 483 -1 417 -18 q 592 43 550 17 l 557 122 z "},"d":{"ha":736,"x_min":46,"x_max":636,"o":"m 636 0 l 569 0 l 549 51 q 458 0 507 18 q 367 -18 410 -18 q 131 80 217 -18 q 46 340 46 178 q 85 523 46 443 q 198 647 125 603 q 369 692 271 692 q 447 678 406 692 q 525 640 488 664 l 525 967 l 636 979 l 636 0 m 365 75 q 453 91 415 75 q 525 140 492 107 l 525 539 q 367 599 458 599 q 213 527 267 599 q 157 342 158 456 q 210 148 157 221 q 365 75 264 75 z "},"e":{"ha":693,"x_min":46,"x_max":647,"o":"m 647 319 q 577 589 647 486 q 360 692 507 692 q 191 647 263 692 q 83 522 119 601 q 46 339 46 442 q 136 79 46 176 q 399 -18 226 -18 q 525 1 468 -18 q 639 51 582 19 l 604 132 q 497 88 542 101 q 397 74 451 74 q 220 140 278 74 q 158 319 163 206 l 647 319 m 161 394 q 220 544 171 489 q 356 599 269 599 q 539 394 515 599 l 161 394 z "},"f":{"ha":415,"x_min":22,"x_max":415,"o":"m 125 0 l 235 0 l 235 579 l 394 579 l 358 663 l 235 663 l 235 761 q 329 876 235 876 q 361 872 343 876 q 390 863 379 868 l 415 951 q 369 968 397 961 q 314 975 342 975 q 176 919 226 975 q 125 768 125 863 l 125 663 l 22 663 l 24 579 l 125 579 l 125 0 z "},"g":{"ha":731,"x_min":46,"x_max":636,"o":"m 636 -74 q 600 -200 636 -144 q 494 -287 564 -256 q 332 -319 425 -319 q 212 -302 285 -319 q 97 -258 139 -285 l 131 -178 q 227 -217 185 -204 q 328 -229 269 -229 q 470 -189 415 -229 q 525 -72 525 -149 l 525 35 q 445 -4 488 10 q 367 -18 403 -18 q 131 80 217 -18 q 46 340 46 178 q 85 523 46 443 q 198 647 125 603 q 369 692 271 692 q 458 674 411 692 q 546 625 506 656 l 569 674 l 636 674 l 636 -74 m 365 75 q 453 91 415 75 q 525 140 492 107 l 525 539 q 367 599 458 599 q 213 527 267 599 q 157 342 158 456 q 210 148 157 221 q 365 75 264 75 z "},"h":{"ha":749,"x_min":101,"x_max":667,"o":"m 456 694 q 615 630 563 694 q 667 457 667 565 l 667 1 l 557 1 l 557 442 q 529 558 557 517 q 436 600 501 600 q 323 565 386 600 q 211 478 260 531 l 211 0 l 101 0 l 101 967 l 211 981 l 211 588 q 327 665 260 635 q 456 694 394 694 z "},"i":{"ha":285,"x_min":68,"x_max":217,"o":"m 142 808 q 194 830 172 808 q 217 882 217 851 q 194 935 217 913 q 142 957 172 957 q 89 935 110 957 q 68 882 68 914 q 89 829 68 850 q 142 808 110 808 m 88 674 l 88 0 l 199 0 l 199 674 l 88 674 z "},"j":{"ha":317,"x_min":0,"x_max":235,"o":"m 160 808 q 106 829 128 808 q 85 882 85 850 q 106 935 85 914 q 160 957 128 957 q 213 935 190 957 q 235 882 235 913 q 213 830 235 851 q 160 808 190 808 m 215 -42 q 203 -162 215 -118 q 155 -239 192 -207 q 43 -296 118 -271 l 0 -217 q 69 -179 47 -200 q 99 -128 92 -158 q 104 -42 106 -97 l 104 674 l 215 674 l 215 -42 z "},"k":{"ha":656,"x_min":101,"x_max":656,"o":"m 304 346 l 526 0 l 656 0 l 378 418 l 583 622 l 517 692 l 211 385 l 211 981 l 101 967 l 101 0 l 211 0 l 211 253 l 304 346 z "},"l":{"ha":311,"x_min":101,"x_max":211,"o":"m 101 967 l 101 0 l 211 0 l 211 981 l 101 967 z "},"m":{"ha":1136,"x_min":88,"x_max":1056,"o":"m 853 694 q 1006 630 956 694 q 1056 457 1056 565 l 1056 1 l 946 1 l 946 442 q 921 558 946 517 q 835 600 896 600 q 735 569 792 600 q 631 489 679 538 l 632 457 l 632 1 l 522 1 l 522 442 q 497 558 522 517 q 411 600 472 600 q 306 565 367 600 q 197 478 246 531 l 197 0 l 88 0 l 88 674 l 169 674 l 188 578 q 303 661 236 628 q 431 694 371 694 q 544 664 499 694 q 611 578 589 633 q 726 661 660 628 q 853 694 793 694 z "},"n":{"ha":735,"x_min":88,"x_max":653,"o":"m 197 478 q 309 565 246 531 q 422 600 372 600 q 515 558 488 600 q 543 442 543 517 l 543 1 l 653 1 l 653 457 q 601 630 653 565 q 442 694 549 694 q 307 661 378 694 q 188 578 236 628 l 169 674 l 88 674 l 88 0 l 197 0 l 197 478 z "},"o":{"ha":744,"x_min":46,"x_max":700,"o":"m 700 335 q 659 152 700 232 q 542 27 618 72 q 364 -18 465 -18 q 194 27 267 -18 q 84 153 122 72 q 46 339 46 235 q 87 522 47 442 q 201 647 126 601 q 376 692 276 692 q 614 595 528 692 q 700 335 700 499 m 369 75 q 528 148 469 75 q 588 333 586 221 q 532 526 588 453 q 375 599 476 599 q 217 526 275 599 q 157 340 158 453 q 213 149 157 222 q 369 75 268 75 z "},"p":{"ha":729,"x_min":96,"x_max":683,"o":"m 363 692 q 598 594 513 692 q 683 335 683 496 q 644 152 683 232 q 531 27 604 72 q 360 -18 458 -18 q 206 33 286 -18 l 206 -289 l 96 -304 l 96 674 l 161 674 l 185 626 q 274 674 226 657 q 363 692 321 692 m 363 75 q 517 147 463 75 q 572 333 571 219 q 519 526 572 453 q 364 599 465 599 q 276 583 314 599 q 206 536 239 568 l 206 135 q 276 90 239 106 q 363 75 314 75 z "},"q":{"ha":731,"x_min":46,"x_max":636,"o":"m 636 -290 l 525 -304 l 525 35 q 445 -4 488 10 q 367 -18 403 -18 q 131 80 217 -18 q 46 340 46 178 q 85 523 46 443 q 198 647 125 603 q 369 692 271 692 q 458 674 411 692 q 544 626 504 657 l 569 674 l 636 674 l 636 -290 m 365 75 q 453 91 415 75 q 525 140 492 107 l 525 539 q 367 599 458 599 q 213 527 267 599 q 157 342 158 456 q 210 148 157 221 q 365 75 264 75 z "},"r":{"ha":450,"x_min":88,"x_max":436,"o":"m 197 464 q 313 549 244 513 q 436 586 381 586 l 410 674 q 297 639 361 674 q 188 565 233 604 l 153 674 l 88 674 l 88 0 l 197 0 l 197 464 z "},"s":{"ha":583,"x_min":49,"x_max":539,"o":"m 53 39 q 156 -3 90 13 q 268 -18 221 -18 q 469 33 399 -18 q 539 178 539 85 q 313 392 539 308 q 197 443 238 417 q 156 506 157 469 q 195 576 156 549 q 297 603 235 603 q 389 590 349 603 q 475 557 429 578 l 510 632 q 410 675 474 658 q 300 692 347 692 q 116 641 183 692 q 49 501 49 590 q 110 381 49 428 q 268 301 171 333 q 435 171 435 246 q 390 97 435 124 q 269 71 346 71 q 88 118 182 71 l 53 39 z "},"t":{"ha":444,"x_min":22,"x_max":413,"o":"m 231 865 l 121 835 l 121 663 l 22 663 l 24 579 l 121 579 l 121 175 q 172 30 121 81 q 310 -21 222 -21 q 413 3 363 -21 l 388 89 q 326 75 353 75 q 254 106 278 75 q 231 190 231 136 l 231 579 l 389 579 l 353 663 l 231 663 l 231 865 z "},"u":{"ha":735,"x_min":82,"x_max":647,"o":"m 538 197 q 426 110 489 144 q 313 75 363 75 q 219 117 247 75 q 192 233 192 158 l 192 674 l 82 674 l 82 218 q 134 45 82 110 q 293 -19 186 -19 q 428 14 357 -19 q 547 97 499 47 l 565 0 l 647 0 l 647 675 l 538 675 l 538 197 z "},"v":{"ha":633,"x_min":14,"x_max":619,"o":"m 508 674 l 315 149 l 114 696 l 14 654 l 261 0 l 368 0 l 619 674 l 508 674 z "},"w":{"ha":933,"x_min":14,"x_max":919,"o":"m 808 674 l 667 157 l 517 674 l 406 674 l 264 157 l 114 694 l 14 653 l 210 0 l 317 0 l 460 513 l 613 0 l 721 0 l 919 674 l 808 674 z "},"x":{"ha":625,"x_min":14,"x_max":611,"o":"m 469 0 l 590 0 l 379 324 l 611 674 l 490 674 l 318 407 l 136 693 l 38 651 l 240 342 l 14 0 l 138 0 l 303 260 l 469 0 z "},"y":{"ha":633,"x_min":14,"x_max":619,"o":"m 222 -111 q 176 -174 207 -153 q 79 -226 144 -196 l 113 -306 q 242 -246 186 -290 q 322 -139 299 -201 l 619 674 l 508 674 l 315 153 l 111 694 l 14 653 l 264 4 l 222 -111 z "},"z":{"ha":601,"x_min":29,"x_max":572,"o":"m 89 586 l 431 586 l 29 57 l 43 0 l 569 0 l 556 86 l 164 86 l 572 615 l 567 674 l 63 674 l 89 586 z "},"ﬁ":{"ha":700,"x_min":22,"x_max":632,"o":"m 125 0 l 235 0 l 235 579 l 394 579 l 358 663 l 235 663 l 235 761 q 329 876 235 876 q 361 872 343 876 q 390 863 379 868 l 415 951 q 369 968 397 961 q 314 975 342 975 q 176 919 226 975 q 125 768 125 863 l 125 663 l 22 663 l 24 579 l 125 579 l 125 0 m 557 808 q 610 830 588 808 q 632 882 632 851 q 610 935 632 913 q 557 957 588 957 q 504 935 525 957 q 483 882 483 914 q 504 829 483 850 q 557 808 525 808 m 503 674 l 503 0 l 614 0 l 614 674 l 503 674 z "},"ﬂ":{"ha":726,"x_min":22,"x_max":626,"o":"m 125 0 l 235 0 l 235 579 l 394 579 l 358 663 l 235 663 l 235 761 q 329 876 235 876 q 361 872 343 876 q 390 863 379 868 l 415 951 q 369 968 397 961 q 314 975 342 975 q 176 919 226 975 q 125 768 125 863 l 125 663 l 22 663 l 24 579 l 125 579 l 125 0 m 517 967 l 517 0 l 626 0 l 626 981 l 517 967 z "},"`":{"ha":224,"x_min":14,"x_max":210,"o":"m 135 1035 l 14 1035 l 136 818 l 210 839 l 135 1035 z "},"¨":{"ha":393,"x_min":124,"x_max":271,"o":"m 203 988 q 251 968 232 988 q 271 921 271 949 q 251 873 271 893 q 203 853 232 853 l 197 853 l 190 853 q 143 873 163 853 q 124 921 124 893 q 144 968 124 949 q 190 988 164 988 l 197 988 l 203 988 z "},"¯":{"ha":369,"x_min":14,"x_max":356,"o":"m 346 967 l 14 967 l 14 879 l 356 879 l 346 967 z "},"´":{"ha":224,"x_min":14,"x_max":210,"o":"m 89 1035 l 14 839 l 88 818 l 210 1035 l 89 1035 z "},"ˆ":{"ha":435,"x_min":14,"x_max":421,"o":"m 421 832 l 260 1035 l 172 1035 l 14 832 l 113 818 l 217 954 l 321 818 l 421 832 z "},"ˇ":{"ha":435,"x_min":14,"x_max":421,"o":"m 14 1021 l 175 818 l 263 818 l 421 1021 l 322 1035 l 218 899 l 114 1035 l 14 1021 z "},"˘":{"ha":401,"x_min":14,"x_max":388,"o":"m 308 1024 q 279 947 308 981 q 200 913 250 913 q 122 947 150 913 q 93 1024 93 981 l 14 1024 q 61 887 14 942 q 200 831 108 832 q 340 887 293 832 q 388 1024 388 942 l 308 1024 z "},"˙":{"ha":178,"x_min":14,"x_max":164,"o":"m 90 850 q 142 872 121 850 q 164 925 164 894 q 142 978 164 956 q 90 1001 121 1001 q 37 978 60 1001 q 14 925 14 956 q 36 872 14 894 q 90 850 58 850 z "},"˚":{"ha":286,"x_min":14,"x_max":272,"o":"m 144 1067 q 52 1031 90 1067 q 14 943 14 996 q 52 859 14 893 q 144 825 90 825 q 235 859 197 825 q 272 943 272 893 q 235 1031 272 996 q 144 1067 197 1067 m 144 886 q 102 903 119 886 q 85 943 85 919 q 102 986 85 969 q 144 1003 119 1003 q 186 986 169 1003 q 203 943 203 969 q 185 903 203 919 q 144 886 168 886 z "},"˜":{"ha":436,"x_min":14,"x_max":419,"o":"m 343 976 q 328 935 342 950 q 294 921 314 921 q 226 953 258 921 q 138 982 196 982 q 14 846 14 982 l 90 846 q 107 888 92 872 q 142 903 122 903 q 213 871 176 903 q 294 840 244 840 q 385 872 351 840 q 419 976 419 904 l 343 976 z "},"˝":{"ha":436,"x_min":14,"x_max":422,"o":"m 89 1035 l 14 839 l 88 818 l 210 1035 l 89 1035 m 301 1035 l 226 839 l 300 818 l 422 1035 l 301 1035 z "},"˛":{"ha":296,"x_min":14,"x_max":282,"o":"m 93 6 q 37 -68 60 -24 q 14 -149 14 -112 q 56 -249 14 -210 q 163 -287 97 -287 q 282 -246 236 -287 l 246 -178 q 174 -206 211 -206 q 128 -190 146 -206 q 110 -140 110 -174 q 134 -64 110 -107 q 192 3 158 -21 l 93 6 z "},"¸":{"ha":299,"x_min":14,"x_max":285,"o":"m 72 -111 q 160 -136 125 -117 q 196 -182 196 -156 q 174 -217 196 -204 q 124 -229 151 -229 q 81 -222 104 -229 q 40 -208 57 -215 l 14 -278 q 66 -299 33 -290 q 124 -307 99 -307 q 238 -274 192 -307 q 285 -179 285 -242 q 253 -108 285 -142 q 176 -67 221 -75 l 210 18 l 122 18 l 72 -111 z "},"":{"ha":0,"x_min":14,"x_max":179,"o":"m 103 -29 q 50 -52 72 -29 q 28 -106 28 -75 q 47 -156 28 -133 q 92 -179 65 -178 q 14 -281 86 -236 l 43 -333 q 140 -244 100 -306 q 179 -117 179 -182 q 157 -53 179 -78 q 103 -29 135 -29 z "},"Þ":{"ha":781,"x_min":129,"x_max":735,"o":"m 386 833 q 640 763 546 833 q 735 544 735 693 q 632 322 733 397 q 372 246 531 246 l 239 246 l 239 0 l 129 0 l 129 944 l 239 944 l 239 833 l 386 833 m 376 339 q 553 388 486 339 q 622 540 619 438 q 563 695 622 650 q 388 740 503 740 l 239 740 l 239 339 l 376 339 z "},"Ð":{"ha":932,"x_min":28,"x_max":874,"o":"m 460 944 q 771 815 668 944 q 874 478 874 686 q 825 233 874 340 q 681 63 776 125 q 451 0 586 0 l 129 0 l 129 424 l 40 424 l 28 510 l 129 510 l 129 944 l 460 944 m 453 92 q 616 138 546 92 q 725 272 686 185 q 764 476 764 358 q 688 749 764 646 q 465 851 613 851 l 239 851 l 239 510 l 379 510 l 392 424 l 239 424 l 239 92 l 453 92 z "},"Æ":{"ha":1215,"x_min":14,"x_max":1188,"o":"m 1176 88 l 729 88 l 729 442 l 1068 442 l 1056 524 l 729 524 l 729 863 l 1149 863 l 1136 944 l 604 944 l 14 7 l 117 -11 l 286 268 l 618 268 l 618 0 l 1188 0 l 1176 88 m 343 357 l 618 794 l 618 357 l 343 357 z "},"Đ":{"ha":932,"x_min":28,"x_max":874,"o":"m 460 944 q 771 815 668 944 q 874 478 874 686 q 825 233 874 340 q 681 63 776 125 q 451 0 586 0 l 129 0 l 129 424 l 40 424 l 28 510 l 129 510 l 129 944 l 460 944 m 453 92 q 616 138 546 92 q 725 272 686 185 q 764 476 764 358 q 688 749 764 646 q 465 851 613 851 l 239 851 l 239 510 l 379 510 l 392 424 l 239 424 l 239 92 l 453 92 z "},"Ł":{"ha":696,"x_min":21,"x_max":682,"o":"m 69 289 l 21 361 l 122 446 l 122 944 l 232 944 l 232 538 l 390 671 l 439 600 l 232 425 l 232 88 l 671 88 l 682 0 l 122 0 l 122 333 l 69 289 z "},"Œ":{"ha":1294,"x_min":60,"x_max":1267,"o":"m 697 15 q 597 -10 653 0 q 496 -19 542 -19 q 258 46 357 -19 q 110 222 160 111 q 60 467 60 333 q 114 720 60 607 q 269 899 168 833 q 504 964 371 964 q 597 955 542 964 q 697 931 653 946 l 697 944 l 1213 944 l 1225 863 l 807 863 l 807 524 l 1133 524 l 1146 442 l 807 442 l 807 88 l 1253 88 l 1267 0 l 697 0 l 697 15 m 492 76 q 605 87 557 76 q 697 117 653 97 l 697 833 q 607 861 647 853 q 504 869 567 869 q 337 818 413 869 q 218 675 261 767 q 175 468 175 583 q 213 270 175 360 q 322 128 250 181 q 492 76 394 76 z "},"Ø":{"ha":1007,"x_min":60,"x_max":949,"o":"m 506 967 q 733 904 632 967 q 892 731 835 842 q 949 479 949 619 q 891 226 949 339 q 731 47 833 113 q 500 -19 628 -18 q 274 43 374 -19 q 117 217 174 106 q 60 468 60 328 q 117 721 60 608 q 276 899 175 833 q 506 967 378 964 m 175 469 q 210 280 175 365 q 310 143 246 194 l 615 851 q 508 871 565 871 q 337 819 413 871 q 218 676 261 767 q 175 469 175 585 m 497 76 q 669 128 593 76 q 788 271 744 179 q 831 478 831 363 q 797 661 831 578 q 704 797 764 744 l 397 93 q 497 76 443 76 z "},"ß":{"ha":799,"x_min":101,"x_max":746,"o":"m 211 657 q 262 803 211 749 q 404 858 313 858 q 531 817 481 858 q 581 696 581 775 q 529 574 581 615 q 368 533 478 533 l 328 533 l 328 444 l 408 444 q 573 399 513 444 q 633 263 633 354 q 568 132 633 172 q 394 92 503 92 l 310 92 l 310 0 l 396 0 q 651 64 556 0 q 746 264 746 128 q 699 410 746 350 q 576 500 653 471 q 663 580 632 528 q 693 700 693 632 q 611 888 693 822 q 404 953 529 953 q 184 874 267 953 q 101 657 101 796 l 101 0 l 211 0 l 211 657 z "},"ð":{"ha":744,"x_min":46,"x_max":700,"o":"m 424 904 q 632 658 564 801 q 700 342 700 515 q 660 156 700 238 q 545 28 621 75 q 364 -18 469 -18 q 194 27 267 -18 q 84 153 122 72 q 46 339 46 235 q 87 522 47 442 q 201 647 126 601 q 376 692 276 692 q 518 654 450 692 q 331 858 456 771 l 158 771 l 117 843 l 249 908 q 128 964 200 935 l 160 1042 q 346 956 267 1003 l 497 1031 l 538 963 l 424 904 m 369 75 q 528 148 469 75 q 588 333 586 221 q 568 519 588 436 q 375 599 492 599 q 217 526 275 599 q 157 340 158 453 q 213 149 157 222 q 369 75 268 75 z "},"þ":{"ha":729,"x_min":96,"x_max":683,"o":"m 363 692 q 598 594 513 692 q 683 335 683 496 q 644 152 683 232 q 531 27 604 72 q 360 -18 458 -18 q 206 35 286 -18 l 206 -289 l 96 -304 l 96 967 l 206 981 l 206 639 q 284 678 243 664 q 363 692 325 692 m 363 75 q 517 147 463 75 q 572 333 571 219 q 519 526 572 453 q 364 599 465 599 q 276 583 314 599 q 206 535 239 567 l 206 133 q 276 90 239 106 q 363 75 314 75 z "},"ƒ":{"ha":472,"x_min":0,"x_max":472,"o":"m 181 576 l 181 101 q 86 -14 181 -14 q 54 -10 72 -14 q 25 0 36 -6 l 0 -87 q 47 -104 17 -97 q 104 -111 76 -111 q 240 -55 190 -111 q 290 96 290 1 l 290 576 l 450 576 l 414 660 l 290 660 l 290 761 q 313 846 290 815 q 385 876 336 876 q 417 872 399 876 q 447 863 435 868 l 472 951 q 426 968 456 961 q 369 975 397 975 q 231 919 282 975 q 181 768 181 863 l 181 660 l 79 660 l 81 576 l 181 576 z "},"æ":{"ha":1132,"x_min":69,"x_max":1086,"o":"m 836 74 q 935 88 890 74 q 1043 133 981 103 l 1078 53 q 964 2 1021 21 q 838 -17 907 -17 q 554 104 646 -17 q 446 17 506 51 q 300 -18 386 -18 q 128 40 188 -18 q 69 192 69 99 q 136 343 69 289 q 313 397 203 397 l 486 397 l 486 433 q 451 552 486 508 q 339 596 415 596 q 237 584 279 596 q 144 550 194 572 l 113 633 q 219 675 149 658 q 335 692 289 692 q 468 663 410 692 q 561 586 526 635 q 662 665 601 638 q 799 693 722 693 q 1016 590 946 693 q 1086 321 1086 488 l 597 321 q 659 140 601 207 q 836 74 717 74 m 794 600 q 659 545 708 600 q 600 396 610 490 l 978 396 q 794 600 954 600 m 297 71 q 424 101 378 71 q 511 183 471 131 q 485 324 488 244 l 310 324 q 208 285 244 324 q 171 192 171 247 q 203 107 171 143 q 297 71 235 71 z "},"đ":{"ha":736,"x_min":46,"x_max":744,"o":"m 636 779 l 636 0 l 569 0 l 549 51 q 458 0 507 18 q 367 -18 410 -18 q 131 80 217 -18 q 46 340 46 178 q 85 523 46 443 q 198 647 125 603 q 369 692 271 692 q 447 678 406 692 q 525 640 488 664 l 525 779 l 396 779 l 383 858 l 525 858 l 525 967 l 636 979 l 636 858 l 733 858 l 744 779 l 636 779 m 365 75 q 453 91 415 75 q 525 140 492 107 l 525 539 q 367 599 458 599 q 213 527 267 599 q 157 342 158 456 q 210 148 157 221 q 365 75 264 75 z "},"œ":{"ha":1103,"x_min":46,"x_max":1057,"o":"m 807 74 q 906 88 861 74 q 1014 132 951 101 l 1049 51 q 935 1 992 19 q 808 -18 878 -18 q 589 42 674 -18 q 481 -1 547 17 q 371 -18 415 -18 q 197 27 271 -18 q 85 153 124 72 q 46 339 46 235 q 87 522 46 442 q 203 647 128 601 q 378 692 278 692 q 483 676 421 692 q 586 636 544 661 q 769 692 661 692 q 987 589 917 692 q 1057 319 1057 486 l 568 319 q 630 140 572 206 q 807 74 688 74 m 369 75 q 454 83 419 75 q 522 106 489 90 q 456 339 456 197 q 521 571 456 478 q 375 599 450 599 q 217 526 275 599 q 157 340 158 453 q 213 149 157 222 q 369 75 268 75 m 765 599 q 630 544 679 599 q 571 394 581 489 l 949 394 q 765 599 925 599 z "},"ĺ":{"ha":311,"x_min":101,"x_max":314,"o":"m 194 1243 l 119 1047 l 193 1026 l 314 1243 l 194 1243 m 101 935 l 101 0 l 211 0 l 211 951 l 101 935 z "},"ł":{"ha":415,"x_min":0,"x_max":415,"o":"m 264 981 l 154 967 l 154 519 l 0 390 l 49 318 l 154 408 l 154 0 l 264 0 l 264 499 l 415 629 l 368 700 l 264 610 l 264 981 z "},"ı":{"ha":285,"x_min":88,"x_max":199,"o":"m 88 674 l 88 0 l 199 0 l 199 674 l 88 674 z "},"ø":{"ha":754,"x_min":46,"x_max":700,"o":"m 376 692 q 614 595 528 692 q 700 335 700 499 q 659 152 700 232 q 542 27 618 72 q 364 -18 465 -18 q 194 27 267 -18 q 84 153 122 72 q 46 339 46 235 q 87 522 47 442 q 201 647 126 601 q 376 692 276 692 m 375 599 q 217 526 275 599 q 157 340 158 453 q 225 133 157 208 l 460 582 q 375 599 422 599 m 369 75 q 528 148 469 75 q 588 333 586 221 q 536 521 588 451 l 307 83 q 369 75 336 75 z "},"À":{"ha":846,"x_min":14,"x_max":832,"o":"m 121 0 l 219 268 l 618 268 l 724 -10 l 832 8 l 469 944 l 364 944 l 14 0 l 121 0 m 415 800 l 586 357 l 250 357 l 415 800 m 410 1243 l 289 1243 l 411 1026 l 485 1047 l 410 1243 z "},"Á":{"ha":846,"x_min":14,"x_max":832,"o":"m 121 0 l 219 268 l 618 268 l 724 -10 l 832 8 l 469 944 l 364 944 l 14 0 l 121 0 m 415 800 l 586 357 l 250 357 l 415 800 m 414 1243 l 339 1047 l 413 1026 l 535 1243 l 414 1243 z "},"Â":{"ha":846,"x_min":14,"x_max":832,"o":"m 121 0 l 219 268 l 618 268 l 724 -10 l 832 8 l 469 944 l 364 944 l 14 0 l 121 0 m 415 800 l 586 357 l 250 357 l 415 800 m 614 1040 l 453 1243 l 365 1243 l 207 1040 l 306 1026 l 410 1163 l 514 1026 l 614 1040 z "},"Ã":{"ha":846,"x_min":14,"x_max":832,"o":"m 121 0 l 219 268 l 618 268 l 724 -10 l 832 8 l 469 944 l 364 944 l 14 0 l 121 0 m 415 800 l 586 357 l 250 357 l 415 800 m 533 1185 q 518 1144 532 1158 q 485 1129 504 1129 q 417 1161 449 1129 q 328 1190 386 1190 q 204 1054 204 1190 l 281 1054 q 297 1096 282 1081 q 332 1111 313 1111 q 403 1079 367 1111 q 485 1049 435 1049 q 576 1081 542 1049 q 610 1185 610 1113 l 533 1185 z "},"Ä":{"ha":846,"x_min":14,"x_max":832,"o":"m 121 0 l 219 268 l 618 268 l 724 -10 l 832 8 l 469 944 l 364 944 l 14 0 l 121 0 m 415 800 l 586 357 l 250 357 l 415 800 m 417 1196 q 465 1176 446 1196 q 485 1129 485 1157 q 465 1081 485 1101 q 417 1061 446 1061 l 411 1061 l 404 1061 q 357 1081 376 1061 q 338 1129 338 1101 q 358 1176 338 1157 q 404 1196 378 1196 l 411 1196 l 417 1196 z "},"Å":{"ha":846,"x_min":14,"x_max":832,"o":"m 121 0 l 219 268 l 618 268 l 724 -10 l 832 8 l 469 944 l 364 944 l 14 0 l 121 0 m 415 800 l 586 357 l 250 357 l 415 800 m 415 1275 q 323 1240 361 1275 q 285 1151 285 1204 q 323 1067 285 1101 q 415 1033 361 1033 q 506 1067 468 1033 q 543 1151 543 1101 q 506 1240 543 1204 q 415 1275 468 1275 m 415 1094 q 373 1111 390 1094 q 356 1151 356 1128 q 373 1194 356 1178 q 415 1211 390 1211 q 457 1194 440 1211 q 474 1151 474 1178 q 456 1111 474 1128 q 415 1094 439 1094 z "},"Ă":{"ha":846,"x_min":14,"x_max":832,"o":"m 121 0 l 219 268 l 618 268 l 724 -10 l 832 8 l 469 944 l 364 944 l 14 0 l 121 0 m 415 800 l 586 357 l 250 357 l 415 800 m 524 1232 q 494 1155 524 1189 q 415 1121 465 1121 q 337 1155 365 1121 q 308 1232 308 1189 l 229 1232 q 276 1095 229 1150 q 415 1039 324 1040 q 556 1095 508 1040 q 603 1232 603 1150 l 524 1232 z "},"Ą":{"ha":846,"x_min":14,"x_max":924,"o":"m 924 -246 q 804 -287 878 -287 q 697 -249 739 -287 q 656 -149 656 -210 q 674 -76 656 -115 q 722 -7 693 -36 l 618 268 l 219 268 l 121 0 l 14 0 l 364 944 l 469 944 l 832 8 l 804 4 l 833 3 q 776 -64 800 -21 q 751 -140 751 -107 q 769 -190 751 -174 q 815 -206 788 -206 q 888 -178 853 -206 l 924 -246 m 415 800 l 250 357 l 586 357 l 415 800 z "},"Ā":{"ha":846,"x_min":14,"x_max":832,"o":"m 121 0 l 219 268 l 618 268 l 724 -10 l 832 8 l 469 944 l 364 944 l 14 0 l 121 0 m 415 800 l 586 357 l 250 357 l 415 800 m 569 1175 l 239 1175 l 239 1088 l 581 1088 l 569 1175 z "},"Ç":{"ha":774,"x_min":60,"x_max":742,"o":"m 511 -67 q 588 -108 556 -75 q 619 -179 619 -142 q 573 -274 619 -242 q 458 -307 526 -307 q 401 -299 433 -307 q 349 -278 368 -290 l 375 -208 q 415 -222 392 -215 q 458 -229 439 -229 q 508 -217 486 -229 q 531 -182 531 -204 q 495 -136 531 -156 q 407 -111 460 -117 l 443 -17 q 234 63 321 -4 q 103 236 147 131 q 60 467 60 342 q 114 720 60 607 q 269 899 168 833 q 504 964 371 964 q 628 949 556 964 q 740 910 700 935 l 706 831 q 610 860 650 851 q 504 869 569 869 q 337 818 413 869 q 218 675 261 767 q 175 468 175 583 q 213 270 175 360 q 322 128 250 181 q 492 76 394 76 q 608 88 558 76 q 700 118 657 99 l 742 35 q 647 1 706 15 q 531 -18 588 -14 l 511 -67 z "},"Ć":{"ha":774,"x_min":60,"x_max":742,"o":"m 740 910 q 628 949 700 935 q 504 964 556 964 q 269 899 371 964 q 114 720 168 833 q 60 467 60 607 q 110 222 60 333 q 258 46 160 111 q 496 -19 357 -19 q 627 -3 556 -19 q 742 35 699 13 l 700 118 q 608 88 657 99 q 492 76 558 76 q 322 128 394 76 q 213 270 250 181 q 175 468 175 360 q 218 675 175 583 q 337 818 261 767 q 504 869 413 869 q 610 860 569 869 q 706 831 650 851 l 740 910 m 503 1243 l 428 1047 l 501 1026 l 624 1243 l 503 1243 z "},"Č":{"ha":774,"x_min":60,"x_max":742,"o":"m 740 910 q 628 949 700 935 q 504 964 556 964 q 269 899 371 964 q 114 720 168 833 q 60 467 60 607 q 110 222 60 333 q 258 46 160 111 q 496 -19 357 -19 q 627 -3 556 -19 q 742 35 699 13 l 700 118 q 608 88 657 99 q 492 76 558 76 q 322 128 394 76 q 213 270 250 181 q 175 468 175 360 q 218 675 175 583 q 337 818 261 767 q 504 869 413 869 q 610 860 569 869 q 706 831 650 851 l 740 910 m 301 1229 l 463 1026 l 550 1026 l 708 1229 l 610 1243 l 506 1107 l 401 1243 l 301 1229 z "},"Ď":{"ha":932,"x_min":129,"x_max":874,"o":"m 451 0 q 681 63 586 0 q 825 233 776 125 q 874 478 874 340 q 771 815 874 686 q 460 944 668 944 l 129 944 l 129 0 l 451 0 m 465 851 q 688 749 613 851 q 764 476 764 646 q 725 272 764 358 q 616 138 686 185 q 453 92 546 92 l 239 92 l 239 851 l 465 851 m 243 1229 l 404 1026 l 492 1026 l 650 1229 l 551 1243 l 447 1107 l 343 1243 l 243 1229 z "},"È":{"ha":726,"x_min":129,"x_max":699,"o":"m 239 88 l 239 442 l 578 442 l 565 524 l 239 524 l 239 863 l 657 863 l 644 944 l 129 944 l 129 0 l 699 0 l 685 88 l 239 88 m 392 1243 l 271 1243 l 393 1026 l 467 1047 l 392 1243 z "},"É":{"ha":726,"x_min":129,"x_max":699,"o":"m 239 88 l 239 442 l 578 442 l 565 524 l 239 524 l 239 863 l 657 863 l 644 944 l 129 944 l 129 0 l 699 0 l 685 88 l 239 88 m 397 1243 l 322 1047 l 396 1026 l 518 1243 l 397 1243 z "},"Ê":{"ha":726,"x_min":129,"x_max":699,"o":"m 239 88 l 239 442 l 578 442 l 565 524 l 239 524 l 239 863 l 657 863 l 644 944 l 129 944 l 129 0 l 699 0 l 685 88 l 239 88 m 596 1040 l 435 1243 l 347 1243 l 189 1040 l 288 1026 l 392 1163 l 496 1026 l 596 1040 z "},"Ë":{"ha":726,"x_min":129,"x_max":699,"o":"m 239 88 l 239 442 l 578 442 l 565 524 l 239 524 l 239 863 l 657 863 l 644 944 l 129 944 l 129 0 l 699 0 l 685 88 l 239 88 m 399 1196 q 447 1176 428 1196 q 467 1129 467 1157 q 447 1081 467 1101 q 399 1061 428 1061 l 393 1061 l 386 1061 q 339 1081 358 1061 q 319 1129 319 1101 q 340 1176 319 1157 q 386 1196 360 1196 l 393 1196 l 399 1196 z "},"Ē":{"ha":726,"x_min":129,"x_max":699,"o":"m 239 88 l 239 442 l 578 442 l 565 524 l 239 524 l 239 863 l 657 863 l 644 944 l 129 944 l 129 0 l 699 0 l 685 88 l 239 88 m 553 1175 l 222 1175 l 222 1088 l 564 1088 l 553 1175 z "},"Ė":{"ha":726,"x_min":129,"x_max":699,"o":"m 239 88 l 239 442 l 578 442 l 565 524 l 239 524 l 239 863 l 657 863 l 644 944 l 129 944 l 129 0 l 699 0 l 685 88 l 239 88 m 397 1058 q 449 1081 428 1058 q 471 1133 471 1103 q 449 1187 471 1164 q 397 1210 428 1210 q 344 1187 367 1210 q 321 1133 321 1164 q 343 1081 321 1103 q 397 1058 365 1058 z "},"Ę":{"ha":726,"x_min":129,"x_max":703,"o":"m 703 -246 q 583 -287 657 -287 q 476 -249 518 -287 q 435 -149 435 -210 q 456 -72 435 -114 q 508 0 476 -29 l 129 0 l 129 944 l 644 944 l 657 863 l 239 863 l 239 524 l 565 524 l 578 442 l 239 442 l 239 88 l 685 88 l 699 0 l 608 0 q 553 -66 576 -25 q 531 -140 531 -107 q 549 -190 531 -174 q 594 -206 567 -206 q 667 -178 632 -206 l 703 -246 z "},"Ě":{"ha":726,"x_min":129,"x_max":699,"o":"m 239 88 l 239 442 l 578 442 l 565 524 l 239 524 l 239 863 l 657 863 l 644 944 l 129 944 l 129 0 l 699 0 l 685 88 l 239 88 m 194 1229 l 356 1026 l 443 1026 l 601 1229 l 503 1243 l 399 1107 l 294 1243 l 194 1229 z "},"Ğ":{"ha":871,"x_min":60,"x_max":799,"o":"m 693 104 q 532 76 615 76 q 349 124 431 76 q 222 261 268 172 q 175 468 175 350 q 227 683 175 592 q 365 822 279 774 q 549 869 450 869 q 653 860 613 869 q 749 831 693 851 l 783 910 q 670 949 743 935 q 546 964 597 964 q 299 901 410 964 q 124 724 188 838 q 60 467 60 611 q 118 219 60 329 q 284 44 176 108 q 533 -19 392 -19 q 678 -1 603 -19 q 797 46 753 18 l 799 486 l 494 486 l 485 404 l 693 404 l 693 104 m 619 1232 q 590 1155 619 1189 q 511 1121 561 1121 q 433 1155 461 1121 q 404 1232 404 1189 l 325 1232 q 372 1095 325 1150 q 511 1039 419 1040 q 651 1095 604 1040 q 699 1232 699 1150 l 619 1232 z "},"Ì":{"ha":367,"x_min":58,"x_max":254,"o":"m 129 944 l 129 0 l 239 0 l 239 944 l 129 944 m 179 1243 l 58 1243 l 181 1026 l 254 1047 l 179 1243 z "},"Í":{"ha":367,"x_min":110,"x_max":306,"o":"m 129 944 l 129 0 l 239 0 l 239 944 l 129 944 m 185 1243 l 110 1047 l 183 1026 l 306 1243 l 185 1243 z "},"Î":{"ha":367,"x_min":-24,"x_max":383,"o":"m 129 944 l 129 0 l 239 0 l 239 944 l 129 944 m 383 1040 l 222 1243 l 135 1243 l -24 1040 l 75 1026 l 179 1163 l 283 1026 l 383 1040 z "},"Ï":{"ha":367,"x_min":107,"x_max":254,"o":"m 129 944 l 129 0 l 239 0 l 239 944 l 129 944 m 186 1196 q 235 1176 215 1196 q 254 1129 254 1157 q 235 1081 254 1101 q 186 1061 215 1061 l 181 1061 l 174 1061 q 126 1081 146 1061 q 107 1129 107 1101 q 127 1176 107 1157 q 174 1196 147 1196 l 181 1196 l 186 1196 z "},"Ī":{"ha":367,"x_min":8,"x_max":350,"o":"m 129 944 l 129 0 l 239 0 l 239 944 l 129 944 m 339 1175 l 8 1175 l 8 1088 l 350 1088 l 339 1175 z "},"Į":{"ha":367,"x_min":64,"x_max":332,"o":"m 332 -246 q 213 -287 286 -287 q 106 -249 147 -287 q 64 -149 64 -210 q 85 -72 64 -114 q 138 0 106 -29 l 129 0 l 129 944 l 239 944 l 239 3 l 242 3 l 239 0 l 238 0 q 183 -66 206 -25 q 160 -140 160 -107 q 178 -190 160 -174 q 224 -206 196 -206 q 296 -178 261 -206 l 332 -246 z "},"İ":{"ha":367,"x_min":108,"x_max":258,"o":"m 129 944 l 129 0 l 239 0 l 239 944 l 129 944 m 185 1058 q 237 1081 215 1058 q 258 1133 258 1103 q 237 1187 258 1164 q 185 1210 215 1210 q 131 1187 154 1210 q 108 1133 108 1164 q 131 1081 108 1103 q 185 1058 153 1058 z "},"Ĺ":{"ha":703,"x_min":129,"x_max":689,"o":"m 239 944 l 129 944 l 129 0 l 689 0 l 678 88 l 239 88 l 239 944 m 282 1243 l 207 1047 l 281 1026 l 403 1243 l 282 1243 z "},"Ľ":{"ha":703,"x_min":129,"x_max":689,"o":"m 239 944 l 129 944 l 129 0 l 689 0 l 678 88 l 239 88 l 239 944 m 551 989 q 498 966 521 989 q 475 914 475 943 q 494 863 475 886 q 539 839 513 840 q 515 776 535 803 q 457 724 494 750 l 486 672 q 586 769 544 703 q 628 901 628 835 q 605 965 628 940 q 551 989 582 989 z "},"Ñ":{"ha":972,"x_min":129,"x_max":844,"o":"m 275 679 l 756 0 l 844 0 l 844 944 l 733 944 l 733 213 l 676 306 l 217 944 l 129 944 l 129 0 l 239 0 l 239 742 l 275 679 m 607 1185 q 592 1144 606 1158 q 558 1129 578 1129 q 490 1161 522 1129 q 401 1190 460 1190 q 278 1054 278 1190 l 354 1054 q 371 1096 356 1081 q 406 1111 386 1111 q 476 1079 440 1111 q 558 1049 508 1049 q 649 1081 615 1049 q 683 1185 683 1113 l 607 1185 z "},"Ń":{"ha":972,"x_min":129,"x_max":844,"o":"m 275 679 l 756 0 l 844 0 l 844 944 l 733 944 l 733 213 l 676 306 l 217 944 l 129 944 l 129 0 l 239 0 l 239 742 l 275 679 m 488 1243 l 413 1047 l 486 1026 l 608 1243 l 488 1243 z "},"Ň":{"ha":972,"x_min":129,"x_max":844,"o":"m 275 679 l 756 0 l 844 0 l 844 944 l 733 944 l 733 213 l 676 306 l 217 944 l 129 944 l 129 0 l 239 0 l 239 742 l 275 679 m 285 1229 l 446 1026 l 533 1026 l 692 1229 l 593 1243 l 489 1107 l 385 1243 l 285 1229 z "},"Ò":{"ha":1007,"x_min":60,"x_max":949,"o":"m 506 967 q 276 899 378 964 q 117 721 175 833 q 60 468 60 608 q 117 217 60 328 q 274 43 174 106 q 500 -19 374 -19 q 731 47 628 -18 q 891 226 833 113 q 949 479 949 339 q 892 731 949 619 q 733 904 835 842 q 506 967 632 967 m 175 469 q 218 676 175 585 q 337 819 261 767 q 508 871 413 871 q 674 820 601 871 q 789 680 747 769 q 831 478 831 590 q 788 271 831 363 q 669 128 744 179 q 497 76 593 76 q 331 127 404 76 q 217 267 258 178 q 175 469 175 357 m 499 1243 l 378 1243 l 500 1026 l 574 1047 l 499 1243 z "},"Ó":{"ha":1007,"x_min":60,"x_max":949,"o":"m 506 967 q 276 899 378 964 q 117 721 175 833 q 60 468 60 608 q 117 217 60 328 q 274 43 174 106 q 500 -19 374 -19 q 731 47 628 -18 q 891 226 833 113 q 949 479 949 339 q 892 731 949 619 q 733 904 835 842 q 506 967 632 967 m 175 469 q 218 676 175 585 q 337 819 261 767 q 508 871 413 871 q 674 820 601 871 q 789 680 747 769 q 831 478 831 590 q 788 271 831 363 q 669 128 744 179 q 497 76 593 76 q 331 127 404 76 q 217 267 258 178 q 175 469 175 357 m 504 1243 l 429 1047 l 503 1026 l 625 1243 l 504 1243 z "},"Ô":{"ha":1007,"x_min":60,"x_max":949,"o":"m 506 967 q 276 899 378 964 q 117 721 175 833 q 60 468 60 608 q 117 217 60 328 q 274 43 174 106 q 500 -19 374 -19 q 731 47 628 -18 q 891 226 833 113 q 949 479 949 339 q 892 731 949 619 q 733 904 835 842 q 506 967 632 967 m 175 469 q 218 676 175 585 q 337 819 261 767 q 508 871 413 871 q 674 820 601 871 q 789 680 747 769 q 831 478 831 590 q 788 271 831 363 q 669 128 744 179 q 497 76 593 76 q 331 127 404 76 q 217 267 258 178 q 175 469 175 357 m 703 1040 l 542 1243 l 454 1243 l 296 1040 l 394 1026 l 499 1163 l 603 1026 l 703 1040 z "},"Õ":{"ha":1007,"x_min":60,"x_max":949,"o":"m 506 967 q 276 899 378 964 q 117 721 175 833 q 60 468 60 608 q 117 217 60 328 q 274 43 174 106 q 500 -19 374 -19 q 731 47 628 -18 q 891 226 833 113 q 949 479 949 339 q 892 731 949 619 q 733 904 835 842 q 506 967 632 967 m 175 469 q 218 676 175 585 q 337 819 261 767 q 508 871 413 871 q 674 820 601 871 q 789 680 747 769 q 831 478 831 590 q 788 271 831 363 q 669 128 744 179 q 497 76 593 76 q 331 127 404 76 q 217 267 258 178 q 175 469 175 357 m 624 1185 q 608 1144 622 1158 q 575 1129 594 1129 q 507 1161 539 1129 q 418 1190 476 1190 q 294 1054 294 1190 l 371 1054 q 388 1096 372 1081 q 422 1111 403 1111 q 493 1079 457 1111 q 575 1049 525 1049 q 666 1081 632 1049 q 700 1185 700 1113 l 624 1185 z "},"Ö":{"ha":1007,"x_min":60,"x_max":949,"o":"m 506 967 q 276 899 378 964 q 117 721 175 833 q 60 468 60 608 q 117 217 60 328 q 274 43 174 106 q 500 -19 374 -19 q 731 47 628 -18 q 891 226 833 113 q 949 479 949 339 q 892 731 949 619 q 733 904 835 842 q 506 967 632 967 m 175 469 q 218 676 175 585 q 337 819 261 767 q 508 871 413 871 q 674 820 601 871 q 789 680 747 769 q 831 478 831 590 q 788 271 831 363 q 669 128 744 179 q 497 76 593 76 q 331 127 404 76 q 217 267 258 178 q 175 469 175 357 m 506 1196 q 554 1176 535 1196 q 574 1129 574 1157 q 554 1081 574 1101 q 506 1061 535 1061 l 500 1061 l 493 1061 q 446 1081 465 1061 q 426 1129 426 1101 q 447 1176 426 1157 q 493 1196 467 1196 l 500 1196 l 506 1196 z "},"Ō":{"ha":1007,"x_min":60,"x_max":949,"o":"m 506 967 q 276 899 378 964 q 117 721 175 833 q 60 468 60 608 q 117 217 60 328 q 274 43 174 106 q 500 -19 374 -19 q 731 47 628 -18 q 891 226 833 113 q 949 479 949 339 q 892 731 949 619 q 733 904 835 842 q 506 967 632 967 m 175 469 q 218 676 175 585 q 337 819 261 767 q 508 871 413 871 q 674 820 601 871 q 789 680 747 769 q 831 478 831 590 q 788 271 831 363 q 669 128 744 179 q 497 76 593 76 q 331 127 404 76 q 217 267 258 178 q 175 469 175 357 m 660 1175 l 329 1175 l 329 1088 l 671 1088 l 660 1175 z "},"Ő":{"ha":1007,"x_min":60,"x_max":949,"o":"m 506 967 q 276 899 378 964 q 117 721 175 833 q 60 468 60 608 q 117 217 60 328 q 274 43 174 106 q 500 -19 374 -19 q 731 47 628 -18 q 891 226 833 113 q 949 479 949 339 q 892 731 949 619 q 733 904 835 842 q 506 967 632 967 m 175 469 q 218 676 175 585 q 337 819 261 767 q 508 871 413 871 q 674 820 601 871 q 789 680 747 769 q 831 478 831 590 q 788 271 831 363 q 669 128 744 179 q 497 76 593 76 q 331 127 404 76 q 217 267 258 178 q 175 469 175 357 m 417 1243 l 342 1047 l 415 1026 l 538 1243 l 417 1243 m 629 1243 l 554 1047 l 628 1026 l 750 1243 l 629 1243 z "},"Ŕ":{"ha":822,"x_min":129,"x_max":808,"o":"m 239 0 l 239 388 l 372 388 q 471 393 421 388 l 688 0 l 808 0 l 568 422 q 689 516 644 454 q 735 669 733 578 q 640 878 735 811 q 386 944 546 944 l 129 944 l 129 0 l 239 0 m 388 851 q 561 810 500 851 q 622 665 622 769 q 553 522 621 565 q 376 478 486 478 l 239 478 l 239 851 l 388 851 m 386 1243 l 311 1047 l 385 1026 l 507 1243 l 386 1243 z "},"Ř":{"ha":822,"x_min":129,"x_max":808,"o":"m 239 0 l 239 388 l 372 388 q 471 393 421 388 l 688 0 l 808 0 l 568 422 q 689 516 644 454 q 735 669 733 578 q 640 878 735 811 q 386 944 546 944 l 129 944 l 129 0 l 239 0 m 388 851 q 561 810 500 851 q 622 665 622 769 q 553 522 621 565 q 376 478 486 478 l 239 478 l 239 851 l 388 851 m 185 1229 l 346 1026 l 433 1026 l 592 1229 l 493 1243 l 389 1107 l 285 1243 l 185 1229 z "},"Ś":{"ha":713,"x_min":60,"x_max":668,"o":"m 75 46 q 193 1 113 21 q 335 -18 274 -18 q 513 14 438 -18 q 628 101 589 46 q 668 229 668 157 q 640 344 668 296 q 559 429 613 392 q 418 507 506 467 q 271 581 321 551 q 194 645 221 610 q 167 731 167 681 q 222 835 167 797 q 368 872 276 872 q 472 860 429 872 q 565 824 514 847 l 603 908 q 491 950 554 933 q 361 967 428 967 q 202 935 271 967 q 97 850 133 904 q 60 729 60 796 q 120 569 60 635 q 310 449 181 504 q 452 380 400 410 q 532 313 504 350 q 560 228 560 276 q 501 117 560 160 q 333 75 442 75 q 209 92 272 75 q 101 132 146 110 l 75 46 m 360 1243 l 285 1047 l 358 1026 l 481 1243 l 360 1243 z "},"Š":{"ha":713,"x_min":60,"x_max":668,"o":"m 75 46 q 193 1 113 21 q 335 -18 274 -18 q 513 14 438 -18 q 628 101 589 46 q 668 229 668 157 q 640 344 668 296 q 559 429 613 392 q 418 507 506 467 q 271 581 321 551 q 194 645 221 610 q 167 731 167 681 q 222 835 167 797 q 368 872 276 872 q 472 860 429 872 q 565 824 514 847 l 603 908 q 491 950 554 933 q 361 967 428 967 q 202 935 271 967 q 97 850 133 904 q 60 729 60 796 q 120 569 60 635 q 310 449 181 504 q 452 380 400 410 q 532 313 504 350 q 560 228 560 276 q 501 117 560 160 q 333 75 442 75 q 209 92 272 75 q 101 132 146 110 l 75 46 m 158 1229 l 319 1026 l 407 1026 l 565 1229 l 467 1243 l 363 1107 l 258 1243 l 158 1229 z "},"Ť":{"ha":782,"x_min":14,"x_max":768,"o":"m 14 858 l 331 858 l 331 0 l 442 0 l 442 858 l 768 858 l 756 944 l 14 944 l 14 858 m 185 1229 l 346 1026 l 433 1026 l 592 1229 l 493 1243 l 389 1107 l 285 1243 l 185 1229 z "},"Ù":{"ha":947,"x_min":115,"x_max":832,"o":"m 115 335 q 159 154 115 233 q 284 29 203 75 q 474 -17 365 -17 q 663 28 582 -17 q 788 154 744 74 q 832 335 832 235 l 832 944 l 721 944 l 721 347 q 654 151 721 226 q 474 76 588 76 q 293 151 361 76 q 225 347 225 226 l 225 944 l 115 944 l 115 335 m 467 1243 l 346 1243 l 468 1026 l 542 1047 l 467 1243 z "},"Ú":{"ha":947,"x_min":115,"x_max":832,"o":"m 115 335 q 159 154 115 233 q 284 29 203 75 q 474 -17 365 -17 q 663 28 582 -17 q 788 154 744 74 q 832 335 832 235 l 832 944 l 721 944 l 721 347 q 654 151 721 226 q 474 76 588 76 q 293 151 361 76 q 225 347 225 226 l 225 944 l 115 944 l 115 335 m 472 1243 l 397 1047 l 471 1026 l 593 1243 l 472 1243 z "},"Û":{"ha":947,"x_min":115,"x_max":832,"o":"m 115 335 q 159 154 115 233 q 284 29 203 75 q 474 -17 365 -17 q 663 28 582 -17 q 788 154 744 74 q 832 335 832 235 l 832 944 l 721 944 l 721 347 q 654 151 721 226 q 474 76 588 76 q 293 151 361 76 q 225 347 225 226 l 225 944 l 115 944 l 115 335 m 671 1040 l 510 1243 l 422 1243 l 264 1040 l 363 1026 l 467 1163 l 571 1026 l 671 1040 z "},"Ü":{"ha":947,"x_min":115,"x_max":832,"o":"m 115 335 q 159 154 115 233 q 284 29 203 75 q 474 -17 365 -17 q 663 28 582 -17 q 788 154 744 74 q 832 335 832 235 l 832 944 l 721 944 l 721 347 q 654 151 721 226 q 474 76 588 76 q 293 151 361 76 q 225 347 225 226 l 225 944 l 115 944 l 115 335 m 474 1196 q 522 1176 503 1196 q 542 1129 542 1157 q 522 1081 542 1101 q 474 1061 503 1061 l 468 1061 l 461 1061 q 414 1081 433 1061 q 394 1129 394 1101 q 415 1176 394 1157 q 461 1196 435 1196 l 468 1196 l 474 1196 z "},"Ū":{"ha":947,"x_min":115,"x_max":832,"o":"m 115 335 q 159 154 115 233 q 284 29 203 75 q 474 -17 365 -17 q 663 28 582 -17 q 788 154 744 74 q 832 335 832 235 l 832 944 l 721 944 l 721 347 q 654 151 721 226 q 474 76 588 76 q 293 151 361 76 q 225 347 225 226 l 225 944 l 115 944 l 115 335 m 628 1175 l 297 1175 l 297 1088 l 639 1088 l 628 1175 z "},"Ů":{"ha":947,"x_min":115,"x_max":832,"o":"m 115 335 q 159 154 115 233 q 284 29 203 75 q 474 -17 365 -17 q 663 28 582 -17 q 788 154 744 74 q 832 335 832 235 l 832 944 l 721 944 l 721 347 q 654 151 721 226 q 474 76 588 76 q 293 151 361 76 q 225 347 225 226 l 225 944 l 115 944 l 115 335 m 474 1275 q 381 1240 419 1275 q 343 1151 343 1204 q 381 1067 343 1101 q 474 1033 419 1033 q 564 1067 526 1033 q 601 1151 601 1101 q 564 1240 601 1204 q 474 1275 526 1275 m 474 1094 q 431 1111 449 1094 q 414 1151 414 1128 q 431 1194 414 1178 q 474 1211 449 1211 q 515 1194 499 1211 q 532 1151 532 1178 q 515 1111 532 1128 q 474 1094 497 1094 z "},"Ű":{"ha":947,"x_min":115,"x_max":832,"o":"m 115 335 q 159 154 115 233 q 284 29 203 75 q 474 -17 365 -17 q 663 28 582 -17 q 788 154 744 74 q 832 335 832 235 l 832 944 l 721 944 l 721 347 q 654 151 721 226 q 474 76 588 76 q 293 151 361 76 q 225 347 225 226 l 225 944 l 115 944 l 115 335 m 385 1243 l 310 1047 l 383 1026 l 506 1243 l 385 1243 m 597 1243 l 522 1047 l 596 1026 l 718 1243 l 597 1243 z "},"Ų":{"ha":947,"x_min":115,"x_max":832,"o":"m 832 335 q 792 162 832 239 q 679 38 753 85 q 507 -15 606 -8 q 463 -77 481 -42 q 446 -140 446 -112 q 464 -190 446 -174 q 510 -206 482 -206 q 582 -178 547 -206 l 618 -246 q 499 -287 572 -287 q 392 -249 433 -287 q 350 -149 350 -210 q 367 -80 350 -118 q 411 -12 385 -42 q 195 101 275 7 q 115 335 115 196 l 115 944 l 225 944 l 225 347 q 293 151 225 226 q 474 76 361 76 q 654 151 588 76 q 721 347 721 226 l 721 944 l 832 944 l 832 335 z "},"Ý":{"ha":782,"x_min":14,"x_max":768,"o":"m 768 944 l 650 944 l 382 488 l 117 967 l 14 922 l 326 379 l 326 0 l 436 0 l 438 385 l 768 944 m 381 1243 l 306 1047 l 379 1026 l 501 1243 l 381 1243 z "},"Ÿ":{"ha":782,"x_min":14,"x_max":768,"o":"m 768 944 l 650 944 l 382 488 l 117 967 l 14 922 l 326 379 l 326 0 l 436 0 l 438 385 l 768 944 m 382 1196 q 431 1176 411 1196 q 450 1129 450 1157 q 431 1081 450 1101 q 382 1061 411 1061 l 376 1061 l 369 1061 q 322 1081 342 1061 q 303 1129 303 1101 q 323 1176 303 1157 q 369 1196 343 1196 l 376 1196 l 382 1196 z "},"Ź":{"ha":781,"x_min":32,"x_max":749,"o":"m 749 858 l 739 944 l 69 944 l 86 858 l 626 858 l 32 88 l 43 0 l 736 0 l 726 88 l 153 88 l 749 858 m 413 1243 l 338 1047 l 411 1026 l 533 1243 l 413 1243 z "},"Ż":{"ha":781,"x_min":32,"x_max":749,"o":"m 749 858 l 739 944 l 69 944 l 86 858 l 626 858 l 32 88 l 43 0 l 736 0 l 726 88 l 153 88 l 749 858 m 413 1058 q 465 1081 443 1058 q 486 1133 486 1103 q 465 1187 486 1164 q 413 1210 443 1210 q 359 1187 382 1210 q 336 1133 336 1164 q 358 1081 336 1103 q 413 1058 381 1058 z "},"Ž":{"ha":781,"x_min":32,"x_max":749,"o":"m 749 858 l 739 944 l 69 944 l 86 858 l 626 858 l 32 88 l 43 0 l 736 0 l 726 88 l 153 88 l 749 858 m 210 1229 l 371 1026 l 458 1026 l 617 1229 l 518 1243 l 414 1107 l 310 1243 l 210 1229 z "},"Ş":{"ha":713,"x_min":60,"x_max":668,"o":"m 668 229 q 589 59 668 126 q 369 -17 510 -8 l 350 -67 q 426 -108 394 -75 q 458 -179 458 -142 q 412 -274 458 -242 q 297 -307 365 -307 q 240 -299 272 -307 q 188 -278 207 -290 l 214 -208 q 254 -222 231 -215 q 297 -229 278 -229 q 347 -217 325 -229 q 369 -182 369 -204 q 334 -136 369 -156 q 246 -111 299 -117 l 283 -15 q 164 9 224 -8 q 75 46 104 26 l 101 132 q 209 92 146 110 q 333 75 272 75 q 501 117 442 75 q 560 228 560 160 q 532 313 560 276 q 452 380 504 350 q 310 449 400 410 q 120 569 181 504 q 60 729 60 635 q 97 850 60 796 q 202 935 133 904 q 361 967 271 967 q 491 950 428 967 q 603 908 554 933 l 565 824 q 472 860 514 847 q 368 872 429 872 q 222 835 276 872 q 167 731 167 797 q 194 645 167 681 q 271 581 221 610 q 418 507 321 551 q 559 429 506 467 q 640 344 613 392 q 668 229 668 296 z "},"Ţ":{"ha":782,"x_min":14,"x_max":768,"o":"m 407 -67 q 483 -108 451 -75 q 515 -179 515 -142 q 469 -274 515 -242 q 354 -307 422 -307 q 297 -299 329 -307 q 244 -278 264 -290 l 271 -208 q 311 -222 288 -215 q 354 -229 335 -229 q 404 -217 382 -229 q 426 -182 426 -204 q 391 -136 426 -156 q 303 -111 356 -117 l 346 0 l 331 0 l 331 858 l 14 858 l 14 944 l 756 944 l 768 858 l 442 858 l 442 0 l 433 0 l 407 -67 z "},"Ș":{"ha":713,"x_min":60,"x_max":668,"o":"m 75 46 q 193 1 113 21 q 335 -18 274 -18 q 513 14 438 -18 q 628 101 589 46 q 668 229 668 157 q 640 344 668 296 q 559 429 613 392 q 418 507 506 467 q 271 581 321 551 q 194 645 221 610 q 167 731 167 681 q 222 835 167 797 q 368 872 276 872 q 472 860 429 872 q 565 824 514 847 l 603 908 q 491 950 554 933 q 361 967 428 967 q 202 935 271 967 q 97 850 133 904 q 60 729 60 796 q 120 569 60 635 q 310 449 181 504 q 452 380 400 410 q 532 313 504 350 q 560 228 560 276 q 501 117 560 160 q 333 75 442 75 q 209 92 272 75 q 101 132 146 110 l 75 46 m 336 -29 q 283 -52 306 -29 q 261 -106 261 -75 q 280 -156 261 -133 q 325 -179 299 -178 q 247 -281 319 -236 l 276 -333 q 373 -244 333 -306 q 413 -117 413 -182 q 390 -53 413 -78 q 336 -29 368 -29 z "},"à":{"ha":678,"x_min":69,"x_max":597,"o":"m 144 550 q 237 584 194 572 q 339 596 279 596 q 451 553 415 596 q 486 435 486 510 l 486 397 l 313 397 q 136 343 203 397 q 69 192 69 289 q 128 40 69 99 q 300 -18 188 -18 q 408 8 353 -18 q 501 68 464 33 l 515 0 l 597 0 l 597 465 q 564 582 597 531 q 471 663 531 633 q 335 692 411 692 q 219 675 289 692 q 113 633 149 658 l 144 550 m 171 192 q 208 285 171 247 q 310 324 244 324 l 488 324 l 488 171 q 401 99 450 126 q 297 71 351 71 q 203 107 235 71 q 171 192 171 143 m 333 1035 l 213 1035 l 335 818 l 408 839 l 333 1035 z "},"á":{"ha":678,"x_min":69,"x_max":597,"o":"m 144 550 q 237 584 194 572 q 339 596 279 596 q 451 553 415 596 q 486 435 486 510 l 486 397 l 313 397 q 136 343 203 397 q 69 192 69 289 q 128 40 69 99 q 300 -18 188 -18 q 408 8 353 -18 q 501 68 464 33 l 515 0 l 597 0 l 597 465 q 564 582 597 531 q 471 663 531 633 q 335 692 411 692 q 219 675 289 692 q 113 633 149 658 l 144 550 m 171 192 q 208 285 171 247 q 310 324 244 324 l 488 324 l 488 171 q 401 99 450 126 q 297 71 351 71 q 203 107 235 71 q 171 192 171 143 m 338 1035 l 263 839 l 336 818 l 458 1035 l 338 1035 z "},"â":{"ha":678,"x_min":69,"x_max":597,"o":"m 144 550 q 237 584 194 572 q 339 596 279 596 q 451 553 415 596 q 486 435 486 510 l 486 397 l 313 397 q 136 343 203 397 q 69 192 69 289 q 128 40 69 99 q 300 -18 188 -18 q 408 8 353 -18 q 501 68 464 33 l 515 0 l 597 0 l 597 465 q 564 582 597 531 q 471 663 531 633 q 335 692 411 692 q 219 675 289 692 q 113 633 149 658 l 144 550 m 171 192 q 208 285 171 247 q 310 324 244 324 l 488 324 l 488 171 q 401 99 450 126 q 297 71 351 71 q 203 107 235 71 q 171 192 171 143 m 540 832 l 379 1035 l 292 1035 l 133 832 l 232 818 l 336 954 l 440 818 l 540 832 z "},"ã":{"ha":678,"x_min":69,"x_max":597,"o":"m 144 550 q 237 584 194 572 q 339 596 279 596 q 451 553 415 596 q 486 435 486 510 l 486 397 l 313 397 q 136 343 203 397 q 69 192 69 289 q 128 40 69 99 q 300 -18 188 -18 q 408 8 353 -18 q 501 68 464 33 l 515 0 l 597 0 l 597 465 q 564 582 597 531 q 471 663 531 633 q 335 692 411 692 q 219 675 289 692 q 113 633 149 658 l 144 550 m 171 192 q 208 285 171 247 q 310 324 244 324 l 488 324 l 488 171 q 401 99 450 126 q 297 71 351 71 q 203 107 235 71 q 171 192 171 143 m 457 976 q 442 935 456 950 q 408 921 428 921 q 340 953 372 921 q 251 982 310 982 q 128 846 128 982 l 204 846 q 221 888 206 872 q 256 903 236 903 q 326 871 290 903 q 408 840 358 840 q 499 872 465 840 q 533 976 533 904 l 457 976 z "},"ä":{"ha":678,"x_min":69,"x_max":597,"o":"m 144 550 q 237 584 194 572 q 339 596 279 596 q 451 553 415 596 q 486 435 486 510 l 486 397 l 313 397 q 136 343 203 397 q 69 192 69 289 q 128 40 69 99 q 300 -18 188 -18 q 408 8 353 -18 q 501 68 464 33 l 515 0 l 597 0 l 597 465 q 564 582 597 531 q 471 663 531 633 q 335 692 411 692 q 219 675 289 692 q 113 633 149 658 l 144 550 m 171 192 q 208 285 171 247 q 310 324 244 324 l 488 324 l 488 171 q 401 99 450 126 q 297 71 351 71 q 203 107 235 71 q 171 192 171 143 m 335 988 q 383 968 364 988 q 403 921 403 949 q 383 873 403 893 q 335 853 364 853 l 329 853 l 322 853 q 275 873 294 853 q 256 921 256 893 q 276 968 256 949 q 322 988 296 988 l 329 988 l 335 988 z "},"å":{"ha":678,"x_min":69,"x_max":597,"o":"m 144 550 q 237 584 194 572 q 339 596 279 596 q 451 553 415 596 q 486 435 486 510 l 486 397 l 313 397 q 136 343 203 397 q 69 192 69 289 q 128 40 69 99 q 300 -18 188 -18 q 408 8 353 -18 q 501 68 464 33 l 515 0 l 597 0 l 597 465 q 564 582 597 531 q 471 663 531 633 q 335 692 411 692 q 219 675 289 692 q 113 633 149 658 l 144 550 m 171 192 q 208 285 171 247 q 310 324 244 324 l 488 324 l 488 171 q 401 99 450 126 q 297 71 351 71 q 203 107 235 71 q 171 192 171 143 m 340 1067 q 248 1031 286 1067 q 210 943 210 996 q 248 859 210 893 q 340 825 286 825 q 431 859 393 825 q 468 943 468 893 q 431 1031 468 996 q 340 1067 393 1067 m 340 886 q 298 903 315 886 q 281 943 281 919 q 298 986 281 969 q 340 1003 315 1003 q 382 986 365 1003 q 399 943 399 969 q 381 903 399 919 q 340 886 364 886 z "},"ā":{"ha":678,"x_min":69,"x_max":597,"o":"m 144 550 q 237 584 194 572 q 339 596 279 596 q 451 553 415 596 q 486 435 486 510 l 486 397 l 313 397 q 136 343 203 397 q 69 192 69 289 q 128 40 69 99 q 300 -18 188 -18 q 408 8 353 -18 q 501 68 464 33 l 515 0 l 597 0 l 597 465 q 564 582 597 531 q 471 663 531 633 q 335 692 411 692 q 219 675 289 692 q 113 633 149 658 l 144 550 m 171 192 q 208 285 171 247 q 310 324 244 324 l 488 324 l 488 171 q 401 99 450 126 q 297 71 351 71 q 203 107 235 71 q 171 192 171 143 m 492 967 l 160 967 l 160 879 l 501 879 l 492 967 z "},"ă":{"ha":678,"x_min":69,"x_max":597,"o":"m 144 550 q 237 584 194 572 q 339 596 279 596 q 451 553 415 596 q 486 435 486 510 l 486 397 l 313 397 q 136 343 203 397 q 69 192 69 289 q 128 40 69 99 q 300 -18 188 -18 q 408 8 353 -18 q 501 68 464 33 l 515 0 l 597 0 l 597 465 q 564 582 597 531 q 471 663 531 633 q 335 692 411 692 q 219 675 289 692 q 113 633 149 658 l 144 550 m 171 192 q 208 285 171 247 q 310 324 244 324 l 488 324 l 488 171 q 401 99 450 126 q 297 71 351 71 q 203 107 235 71 q 171 192 171 143 m 443 1024 q 414 947 443 981 q 335 913 385 913 q 256 947 285 913 q 228 1024 228 981 l 149 1024 q 196 887 149 942 q 335 831 243 832 q 475 887 428 832 q 522 1024 522 942 l 443 1024 z "},"ą":{"ha":678,"x_min":69,"x_max":707,"o":"m 707 -246 q 588 -287 661 -287 q 481 -249 522 -287 q 439 -149 439 -210 q 461 -70 439 -114 q 515 3 483 -26 l 501 68 q 408 8 464 33 q 300 -18 353 -18 q 128 40 188 -18 q 69 192 69 99 q 136 343 69 289 q 313 397 203 397 l 486 397 l 486 435 q 451 553 486 510 q 339 596 415 596 q 237 584 279 596 q 144 550 194 572 l 113 633 q 219 675 149 658 q 335 692 289 692 q 471 663 411 692 q 564 582 531 633 q 597 465 597 531 l 597 3 l 617 3 q 559 -64 583 -21 q 535 -140 535 -107 q 553 -190 535 -174 q 599 -206 571 -206 q 671 -178 636 -206 l 707 -246 m 310 324 q 208 285 244 324 q 171 192 171 247 q 203 107 171 143 q 297 71 235 71 q 401 99 351 71 q 488 171 450 126 l 488 324 l 310 324 z "},"ç":{"ha":636,"x_min":46,"x_max":596,"o":"m 592 43 q 506 6 558 21 q 406 -15 454 -10 l 386 -67 q 463 -108 431 -75 q 494 -179 494 -142 q 448 -274 494 -242 q 333 -307 401 -307 q 276 -299 308 -307 q 224 -278 243 -290 l 250 -208 q 290 -222 267 -215 q 333 -229 314 -229 q 383 -217 361 -229 q 406 -182 406 -204 q 370 -136 406 -156 q 282 -111 335 -117 l 319 -15 q 119 98 192 3 q 46 339 46 193 q 87 522 46 442 q 203 647 128 601 q 378 692 278 692 q 490 674 424 692 q 596 631 556 657 l 563 553 q 470 588 507 576 q 375 599 433 599 q 217 526 275 599 q 157 340 158 453 q 213 149 157 222 q 369 75 268 75 q 469 86 431 75 q 557 122 508 97 l 592 43 z "},"ć":{"ha":636,"x_min":46,"x_max":596,"o":"m 557 122 q 469 86 508 97 q 369 75 431 75 q 213 149 268 75 q 157 340 157 222 q 217 526 158 453 q 375 599 275 599 q 470 588 433 599 q 563 553 507 576 l 596 631 q 490 674 556 657 q 378 692 424 692 q 203 647 278 692 q 87 522 128 601 q 46 339 46 442 q 85 153 46 235 q 197 27 124 72 q 371 -18 271 -18 q 483 -1 417 -18 q 592 43 550 17 l 557 122 m 354 1035 l 279 839 l 353 818 l 475 1035 l 354 1035 z "},"č":{"ha":636,"x_min":46,"x_max":596,"o":"m 557 122 q 469 86 508 97 q 369 75 431 75 q 213 149 268 75 q 157 340 157 222 q 217 526 158 453 q 375 599 275 599 q 470 588 433 599 q 563 553 507 576 l 596 631 q 490 674 556 657 q 378 692 424 692 q 203 647 278 692 q 87 522 128 601 q 46 339 46 442 q 85 153 46 235 q 197 27 124 72 q 371 -18 271 -18 q 483 -1 417 -18 q 592 43 550 17 l 557 122 m 156 1021 l 317 818 l 404 818 l 563 1021 l 464 1035 l 360 899 l 256 1035 l 156 1021 z "},"ď":{"ha":940,"x_min":46,"x_max":899,"o":"m 822 989 q 876 965 853 989 q 899 901 899 940 q 857 769 899 835 q 757 672 815 703 l 728 724 q 785 776 765 750 q 810 839 806 803 q 765 863 783 840 q 746 914 746 886 q 769 966 746 943 q 822 989 792 989 m 636 979 l 636 0 l 569 0 l 549 51 q 458 0 507 18 q 367 -18 410 -18 q 131 80 217 -18 q 46 340 46 178 q 85 523 46 443 q 198 647 125 603 q 369 692 271 692 q 447 678 406 692 q 525 640 488 664 l 525 967 l 636 979 m 365 75 q 453 91 415 75 q 525 140 492 107 l 525 539 q 367 599 458 599 q 213 527 267 599 q 157 342 158 456 q 210 148 157 221 q 365 75 264 75 z "},"è":{"ha":693,"x_min":46,"x_max":647,"o":"m 647 319 q 577 589 647 486 q 360 692 507 692 q 191 647 263 692 q 83 522 119 601 q 46 339 46 442 q 136 79 46 176 q 399 -18 226 -18 q 525 1 468 -18 q 639 51 582 19 l 604 132 q 497 88 542 101 q 397 74 451 74 q 220 140 278 74 q 158 319 163 206 l 647 319 m 161 394 q 220 544 171 489 q 356 599 269 599 q 539 394 515 599 l 161 394 m 353 1035 l 232 1035 l 354 818 l 428 839 l 353 1035 z "},"é":{"ha":693,"x_min":46,"x_max":647,"o":"m 647 319 q 577 589 647 486 q 360 692 507 692 q 191 647 263 692 q 83 522 119 601 q 46 339 46 442 q 136 79 46 176 q 399 -18 226 -18 q 525 1 468 -18 q 639 51 582 19 l 604 132 q 497 88 542 101 q 397 74 451 74 q 220 140 278 74 q 158 319 163 206 l 647 319 m 161 394 q 220 544 171 489 q 356 599 269 599 q 539 394 515 599 l 161 394 m 356 1035 l 281 839 l 354 818 l 476 1035 l 356 1035 z "},"ê":{"ha":693,"x_min":46,"x_max":647,"o":"m 647 319 q 577 589 647 486 q 360 692 507 692 q 191 647 263 692 q 83 522 119 601 q 46 339 46 442 q 136 79 46 176 q 399 -18 226 -18 q 525 1 468 -18 q 639 51 582 19 l 604 132 q 497 88 542 101 q 397 74 451 74 q 220 140 278 74 q 158 319 163 206 l 647 319 m 161 394 q 220 544 171 489 q 356 599 269 599 q 539 394 515 599 l 161 394 m 558 832 l 397 1035 l 310 1035 l 151 832 l 250 818 l 354 954 l 458 818 l 558 832 z "},"ë":{"ha":693,"x_min":46,"x_max":647,"o":"m 647 319 q 577 589 647 486 q 360 692 507 692 q 191 647 263 692 q 83 522 119 601 q 46 339 46 442 q 136 79 46 176 q 399 -18 226 -18 q 525 1 468 -18 q 639 51 582 19 l 604 132 q 497 88 542 101 q 397 74 451 74 q 220 140 278 74 q 158 319 163 206 l 647 319 m 161 394 q 220 544 171 489 q 356 599 269 599 q 539 394 515 599 l 161 394 m 354 988 q 403 968 383 988 q 422 921 422 949 q 403 873 422 893 q 354 853 383 853 l 349 853 l 342 853 q 294 873 314 853 q 275 921 275 893 q 295 968 275 949 q 342 988 315 988 l 349 988 l 354 988 z "},"ē":{"ha":693,"x_min":46,"x_max":647,"o":"m 647 319 q 577 589 647 486 q 360 692 507 692 q 191 647 263 692 q 83 522 119 601 q 46 339 46 442 q 136 79 46 176 q 399 -18 226 -18 q 525 1 468 -18 q 639 51 582 19 l 604 132 q 497 88 542 101 q 397 74 451 74 q 220 140 278 74 q 158 319 163 206 l 647 319 m 161 394 q 220 544 171 489 q 356 599 269 599 q 539 394 515 599 l 161 394 m 510 967 l 178 967 l 178 879 l 519 879 l 510 967 z "},"ė":{"ha":693,"x_min":46,"x_max":647,"o":"m 647 319 q 577 589 647 486 q 360 692 507 692 q 191 647 263 692 q 83 522 119 601 q 46 339 46 442 q 136 79 46 176 q 399 -18 226 -18 q 525 1 468 -18 q 639 51 582 19 l 604 132 q 497 88 542 101 q 397 74 451 74 q 220 140 278 74 q 158 319 163 206 l 647 319 m 161 394 q 220 544 171 489 q 356 599 269 599 q 539 394 515 599 l 161 394 m 358 850 q 410 872 389 850 q 432 925 432 894 q 410 978 432 956 q 358 1001 389 1001 q 305 978 328 1001 q 282 925 282 956 q 304 872 282 894 q 358 850 326 850 z "},"ę":{"ha":693,"x_min":46,"x_max":647,"o":"m 518 -1 q 465 -67 488 -26 q 442 -140 442 -108 q 460 -190 442 -174 q 506 -206 478 -206 q 578 -178 543 -206 l 614 -246 q 494 -287 568 -287 q 388 -249 429 -287 q 346 -149 346 -210 q 361 -84 346 -119 q 401 -18 376 -49 l 399 -18 q 136 79 226 -18 q 46 339 46 176 q 83 522 46 442 q 191 647 119 601 q 360 692 263 692 q 577 589 507 692 q 647 319 647 486 l 158 319 q 220 140 163 206 q 397 74 278 74 q 497 88 451 74 q 604 132 542 101 l 639 51 q 518 -1 575 15 m 356 599 q 220 544 269 599 q 161 394 171 489 l 539 394 q 356 599 515 599 z "},"ě":{"ha":693,"x_min":46,"x_max":647,"o":"m 647 319 q 577 589 647 486 q 360 692 507 692 q 191 647 263 692 q 83 522 119 601 q 46 339 46 442 q 136 79 46 176 q 399 -18 226 -18 q 525 1 468 -18 q 639 51 582 19 l 604 132 q 497 88 542 101 q 397 74 451 74 q 220 140 278 74 q 158 319 163 206 l 647 319 m 161 394 q 220 544 171 489 q 356 599 269 599 q 539 394 515 599 l 161 394 m 157 1021 l 318 818 l 406 818 l 564 1021 l 465 1035 l 361 899 l 257 1035 l 157 1021 z "},"ğ":{"ha":731,"x_min":46,"x_max":636,"o":"m 636 -74 q 600 -200 636 -144 q 494 -287 564 -256 q 332 -319 425 -319 q 212 -302 285 -319 q 97 -258 139 -285 l 131 -178 q 227 -217 185 -204 q 328 -229 269 -229 q 470 -189 415 -229 q 525 -72 525 -149 l 525 35 q 445 -4 488 10 q 367 -18 403 -18 q 131 80 217 -18 q 46 340 46 178 q 85 523 46 443 q 198 647 125 603 q 369 692 271 692 q 458 674 411 692 q 546 625 506 656 l 569 674 l 636 674 l 636 -74 m 365 75 q 453 91 415 75 q 525 140 492 107 l 525 539 q 367 599 458 599 q 213 527 267 599 q 157 342 158 456 q 210 148 157 221 q 365 75 264 75 m 463 1024 q 433 947 463 981 q 354 913 404 913 q 276 947 304 913 q 247 1024 247 981 l 168 1024 q 215 887 168 942 q 354 831 263 832 q 494 887 447 832 q 542 1024 542 942 l 463 1024 z "},"ì":{"ha":285,"x_min":17,"x_max":213,"o":"m 88 674 l 88 0 l 199 0 l 199 674 l 88 674 m 138 1035 l 17 1035 l 139 818 l 213 839 l 138 1035 z "},"í":{"ha":285,"x_min":67,"x_max":263,"o":"m 88 674 l 88 0 l 199 0 l 199 674 l 88 674 m 142 1035 l 67 839 l 140 818 l 263 1035 l 142 1035 z "},"î":{"ha":285,"x_min":-64,"x_max":343,"o":"m 88 674 l 88 0 l 199 0 l 199 674 l 88 674 m 343 832 l 182 1035 l 94 1035 l -64 832 l 35 818 l 139 954 l 243 818 l 343 832 z "},"ï":{"ha":285,"x_min":60,"x_max":207,"o":"m 88 674 l 88 0 l 199 0 l 199 674 l 88 674 m 139 988 q 188 968 168 988 q 207 921 207 949 q 188 873 207 893 q 139 853 168 853 l 133 853 l 126 853 q 79 873 99 853 q 60 921 60 893 q 80 968 60 949 q 126 988 100 988 l 133 988 l 139 988 z "},"ī":{"ha":285,"x_min":-37,"x_max":304,"o":"m 88 674 l 88 0 l 199 0 l 199 674 l 88 674 m 294 967 l -37 967 l -37 879 l 304 879 l 294 967 z "},"į":{"ha":285,"x_min":14,"x_max":282,"o":"m 143 850 q 89 872 111 850 q 67 925 67 894 q 90 978 67 956 q 143 1001 113 1001 q 195 978 174 1001 q 217 925 217 956 q 195 872 217 894 q 143 850 174 850 m 282 -246 q 163 -287 236 -287 q 56 -249 97 -287 q 14 -149 14 -210 q 35 -72 14 -114 q 88 0 56 -29 l 88 674 l 199 674 l 199 0 l 188 0 q 133 -66 156 -25 q 110 -140 110 -107 q 128 -190 110 -174 q 174 -206 146 -206 q 246 -178 211 -206 l 282 -246 z "},"ľ":{"ha":515,"x_min":101,"x_max":474,"o":"m 397 989 q 344 966 367 989 q 321 914 321 943 q 340 863 321 886 q 385 839 358 840 q 360 776 381 803 q 303 724 340 750 l 332 672 q 432 769 390 703 q 474 901 474 835 q 451 965 474 940 q 397 989 428 989 m 101 967 l 101 0 l 211 0 l 211 981 l 101 967 z "},"ñ":{"ha":735,"x_min":88,"x_max":653,"o":"m 197 478 q 309 565 246 531 q 422 600 372 600 q 515 558 488 600 q 543 442 543 517 l 543 1 l 653 1 l 653 457 q 601 630 653 565 q 442 694 549 694 q 307 661 378 694 q 188 578 236 628 l 169 674 l 88 674 l 88 0 l 197 0 l 197 478 m 500 976 q 485 935 499 950 q 451 921 471 921 q 383 953 415 921 q 294 982 353 982 q 171 846 171 982 l 247 846 q 264 888 249 872 q 299 903 279 903 q 369 871 333 903 q 451 840 401 840 q 542 872 508 840 q 576 976 576 904 l 500 976 z "},"ń":{"ha":735,"x_min":88,"x_max":653,"o":"m 197 478 q 309 565 246 531 q 422 600 372 600 q 515 558 488 600 q 543 442 543 517 l 543 1 l 653 1 l 653 457 q 601 630 653 565 q 442 694 549 694 q 307 661 378 694 q 188 578 236 628 l 169 674 l 88 674 l 88 0 l 197 0 l 197 478 m 381 1035 l 306 839 l 379 818 l 501 1035 l 381 1035 z "},"ň":{"ha":735,"x_min":88,"x_max":653,"o":"m 197 478 q 309 565 246 531 q 422 600 372 600 q 515 558 488 600 q 543 442 543 517 l 543 1 l 653 1 l 653 457 q 601 630 653 565 q 442 694 549 694 q 307 661 378 694 q 188 578 236 628 l 169 674 l 88 674 l 88 0 l 197 0 l 197 478 m 182 1021 l 343 818 l 431 818 l 589 1021 l 490 1035 l 386 899 l 282 1035 l 182 1021 z "},"ò":{"ha":744,"x_min":46,"x_max":700,"o":"m 700 335 q 659 152 700 232 q 542 27 618 72 q 364 -18 465 -18 q 194 27 267 -18 q 84 153 122 72 q 46 339 46 235 q 87 522 47 442 q 201 647 126 601 q 376 692 276 692 q 614 595 528 692 q 700 335 700 499 m 369 75 q 528 148 469 75 q 588 333 586 221 q 532 526 588 453 q 375 599 476 599 q 217 526 275 599 q 157 340 158 453 q 213 149 157 222 q 369 75 268 75 m 368 1035 l 247 1035 l 369 818 l 443 839 l 368 1035 z "},"ó":{"ha":744,"x_min":46,"x_max":700,"o":"m 700 335 q 659 152 700 232 q 542 27 618 72 q 364 -18 465 -18 q 194 27 267 -18 q 84 153 122 72 q 46 339 46 235 q 87 522 47 442 q 201 647 126 601 q 376 692 276 692 q 614 595 528 692 q 700 335 700 499 m 369 75 q 528 148 469 75 q 588 333 586 221 q 532 526 588 453 q 375 599 476 599 q 217 526 275 599 q 157 340 158 453 q 213 149 157 222 q 369 75 268 75 m 372 1035 l 297 839 l 371 818 l 493 1035 l 372 1035 z "},"ô":{"ha":744,"x_min":46,"x_max":700,"o":"m 700 335 q 659 152 700 232 q 542 27 618 72 q 364 -18 465 -18 q 194 27 267 -18 q 84 153 122 72 q 46 339 46 235 q 87 522 47 442 q 201 647 126 601 q 376 692 276 692 q 614 595 528 692 q 700 335 700 499 m 369 75 q 528 148 469 75 q 588 333 586 221 q 532 526 588 453 q 375 599 476 599 q 217 526 275 599 q 157 340 158 453 q 213 149 157 222 q 369 75 268 75 m 575 832 l 414 1035 l 326 1035 l 168 832 l 267 818 l 371 954 l 475 818 l 575 832 z "},"õ":{"ha":744,"x_min":46,"x_max":700,"o":"m 700 335 q 659 152 700 232 q 542 27 618 72 q 364 -18 465 -18 q 194 27 267 -18 q 84 153 122 72 q 46 339 46 235 q 87 522 47 442 q 201 647 126 601 q 376 692 276 692 q 614 595 528 692 q 700 335 700 499 m 369 75 q 528 148 469 75 q 588 333 586 221 q 532 526 588 453 q 375 599 476 599 q 217 526 275 599 q 157 340 158 453 q 213 149 157 222 q 369 75 268 75 m 492 976 q 476 935 490 950 q 443 921 463 921 q 375 953 407 921 q 286 982 344 982 q 163 846 163 982 l 239 846 q 256 888 240 872 q 290 903 271 903 q 361 871 325 903 q 443 840 393 840 q 534 872 500 840 q 568 976 568 904 l 492 976 z "},"ö":{"ha":744,"x_min":46,"x_max":700,"o":"m 700 335 q 659 152 700 232 q 542 27 618 72 q 364 -18 465 -18 q 194 27 267 -18 q 84 153 122 72 q 46 339 46 235 q 87 522 47 442 q 201 647 126 601 q 376 692 276 692 q 614 595 528 692 q 700 335 700 499 m 369 75 q 528 148 469 75 q 588 333 586 221 q 532 526 588 453 q 375 599 476 599 q 217 526 275 599 q 157 340 158 453 q 213 149 157 222 q 369 75 268 75 m 369 988 q 418 968 399 988 q 438 921 438 949 q 418 873 438 893 q 369 853 399 853 l 364 853 l 357 853 q 310 873 329 853 q 290 921 290 893 q 310 968 290 949 q 357 988 331 988 l 364 988 l 369 988 z "},"ō":{"ha":744,"x_min":46,"x_max":700,"o":"m 700 335 q 659 152 700 232 q 542 27 618 72 q 364 -18 465 -18 q 194 27 267 -18 q 84 153 122 72 q 46 339 46 235 q 87 522 47 442 q 201 647 126 601 q 376 692 276 692 q 614 595 528 692 q 700 335 700 499 m 369 75 q 528 148 469 75 q 588 333 586 221 q 532 526 588 453 q 375 599 476 599 q 217 526 275 599 q 157 340 158 453 q 213 149 157 222 q 369 75 268 75 m 526 967 l 194 967 l 194 879 l 536 879 l 526 967 z "},"ő":{"ha":744,"x_min":46,"x_max":700,"o":"m 700 335 q 659 152 700 232 q 542 27 618 72 q 364 -18 465 -18 q 194 27 267 -18 q 84 153 122 72 q 46 339 46 235 q 87 522 47 442 q 201 647 126 601 q 376 692 276 692 q 614 595 528 692 q 700 335 700 499 m 369 75 q 528 148 469 75 q 588 333 586 221 q 532 526 588 453 q 375 599 476 599 q 217 526 275 599 q 157 340 158 453 q 213 149 157 222 q 369 75 268 75 m 286 1035 l 211 839 l 285 818 l 407 1035 l 286 1035 m 499 1035 l 424 839 l 497 818 l 619 1035 l 499 1035 z "},"ŕ":{"ha":450,"x_min":88,"x_max":436,"o":"m 197 464 q 313 549 244 513 q 436 586 381 586 l 410 674 q 297 639 361 674 q 188 565 233 604 l 153 674 l 88 674 l 88 0 l 197 0 l 197 464 m 225 1035 l 150 839 l 224 818 l 346 1035 l 225 1035 z "},"ř":{"ha":450,"x_min":26,"x_max":436,"o":"m 197 464 q 313 549 244 513 q 436 586 381 586 l 410 674 q 297 639 361 674 q 188 565 233 604 l 153 674 l 88 674 l 88 0 l 197 0 l 197 464 m 26 1021 l 188 818 l 275 818 l 433 1021 l 335 1035 l 231 899 l 126 1035 l 26 1021 z "},"ś":{"ha":583,"x_min":49,"x_max":539,"o":"m 53 39 q 156 -3 90 13 q 268 -18 221 -18 q 469 33 399 -18 q 539 178 539 85 q 313 392 539 308 q 197 443 238 417 q 156 506 157 469 q 195 576 156 549 q 297 603 235 603 q 389 590 349 603 q 475 557 429 578 l 510 632 q 410 675 474 658 q 300 692 347 692 q 116 641 183 692 q 49 501 49 590 q 110 381 49 428 q 268 301 171 333 q 435 171 435 246 q 390 97 435 124 q 269 71 346 71 q 88 118 182 71 l 53 39 m 296 1035 l 221 839 l 294 818 l 417 1035 l 296 1035 z "},"š":{"ha":583,"x_min":49,"x_max":539,"o":"m 53 39 q 156 -3 90 13 q 268 -18 221 -18 q 469 33 399 -18 q 539 178 539 85 q 313 392 539 308 q 197 443 238 417 q 156 506 157 469 q 195 576 156 549 q 297 603 235 603 q 389 590 349 603 q 475 557 429 578 l 510 632 q 410 675 474 658 q 300 692 347 692 q 116 641 183 692 q 49 501 49 590 q 110 381 49 428 q 268 301 171 333 q 435 171 435 246 q 390 97 435 124 q 269 71 346 71 q 88 118 182 71 l 53 39 m 97 1021 l 258 818 l 346 818 l 504 1021 l 406 1035 l 301 899 l 197 1035 l 97 1021 z "},"ť":{"ha":611,"x_min":22,"x_max":569,"o":"m 493 989 q 440 966 463 989 q 417 914 417 943 q 435 863 417 886 q 481 839 454 840 q 456 776 476 803 q 399 724 436 750 l 428 672 q 528 769 486 703 q 569 901 569 835 q 547 965 569 940 q 493 989 524 989 m 231 865 l 121 835 l 121 663 l 22 663 l 24 579 l 121 579 l 121 175 q 172 30 121 81 q 310 -21 222 -21 q 413 3 363 -21 l 388 89 q 326 75 353 75 q 254 106 278 75 q 231 190 231 136 l 231 579 l 389 579 l 353 663 l 231 663 l 231 865 z "},"ù":{"ha":735,"x_min":82,"x_max":647,"o":"m 538 197 q 426 110 489 144 q 313 75 363 75 q 219 117 247 75 q 192 233 192 158 l 192 674 l 82 674 l 82 218 q 134 45 82 110 q 293 -19 186 -19 q 428 14 357 -19 q 547 97 499 47 l 565 0 l 647 0 l 647 675 l 538 675 l 538 197 m 354 1035 l 233 1035 l 356 818 l 429 839 l 354 1035 z "},"ú":{"ha":735,"x_min":82,"x_max":647,"o":"m 538 197 q 426 110 489 144 q 313 75 363 75 q 219 117 247 75 q 192 233 192 158 l 192 674 l 82 674 l 82 218 q 134 45 82 110 q 293 -19 186 -19 q 428 14 357 -19 q 547 97 499 47 l 565 0 l 647 0 l 647 675 l 538 675 l 538 197 m 358 1035 l 283 839 l 357 818 l 479 1035 l 358 1035 z "},"û":{"ha":735,"x_min":82,"x_max":647,"o":"m 538 197 q 426 110 489 144 q 313 75 363 75 q 219 117 247 75 q 192 233 192 158 l 192 674 l 82 674 l 82 218 q 134 45 82 110 q 293 -19 186 -19 q 428 14 357 -19 q 547 97 499 47 l 565 0 l 647 0 l 647 675 l 538 675 l 538 197 m 561 832 l 400 1035 l 313 1035 l 154 832 l 253 818 l 357 954 l 461 818 l 561 832 z "},"ü":{"ha":735,"x_min":82,"x_max":647,"o":"m 538 197 q 426 110 489 144 q 313 75 363 75 q 219 117 247 75 q 192 233 192 158 l 192 674 l 82 674 l 82 218 q 134 45 82 110 q 293 -19 186 -19 q 428 14 357 -19 q 547 97 499 47 l 565 0 l 647 0 l 647 675 l 538 675 l 538 197 m 356 988 q 404 968 385 988 q 424 921 424 949 q 404 873 424 893 q 356 853 385 853 l 350 853 l 343 853 q 296 873 315 853 q 276 921 276 893 q 297 968 276 949 q 343 988 317 988 l 350 988 l 356 988 z "},"ū":{"ha":735,"x_min":82,"x_max":647,"o":"m 538 197 q 426 110 489 144 q 313 75 363 75 q 219 117 247 75 q 192 233 192 158 l 192 674 l 82 674 l 82 218 q 134 45 82 110 q 293 -19 186 -19 q 428 14 357 -19 q 547 97 499 47 l 565 0 l 647 0 l 647 675 l 538 675 l 538 197 m 513 967 l 181 967 l 181 879 l 522 879 l 513 967 z "},"ů":{"ha":735,"x_min":82,"x_max":647,"o":"m 538 197 q 426 110 489 144 q 313 75 363 75 q 219 117 247 75 q 192 233 192 158 l 192 674 l 82 674 l 82 218 q 134 45 82 110 q 293 -19 186 -19 q 428 14 357 -19 q 547 97 499 47 l 565 0 l 647 0 l 647 675 l 538 675 l 538 197 m 361 1067 q 269 1031 307 1067 q 231 943 231 996 q 269 859 231 893 q 361 825 307 825 q 451 859 414 825 q 489 943 489 893 q 451 1031 489 996 q 361 1067 414 1067 m 361 886 q 319 903 336 886 q 301 943 301 919 q 319 986 301 969 q 361 1003 336 1003 q 403 986 386 1003 q 419 943 419 969 q 402 903 419 919 q 361 886 385 886 z "},"ű":{"ha":735,"x_min":82,"x_max":647,"o":"m 538 197 q 426 110 489 144 q 313 75 363 75 q 219 117 247 75 q 192 233 192 158 l 192 674 l 82 674 l 82 218 q 134 45 82 110 q 293 -19 186 -19 q 428 14 357 -19 q 547 97 499 47 l 565 0 l 647 0 l 647 675 l 538 675 l 538 197 m 272 1035 l 197 839 l 271 818 l 393 1035 l 272 1035 m 485 1035 l 410 839 l 483 818 l 606 1035 l 485 1035 z "},"ų":{"ha":735,"x_min":82,"x_max":749,"o":"m 749 -246 q 629 -287 703 -287 q 522 -249 564 -287 q 481 -149 481 -210 q 503 -68 481 -112 q 560 6 526 -24 l 564 6 l 547 97 q 428 14 499 47 q 293 -19 357 -19 q 134 45 186 -19 q 82 218 82 110 l 82 674 l 192 674 l 192 233 q 219 117 192 158 q 313 75 247 75 q 426 110 363 75 q 538 197 489 144 l 538 675 l 647 675 l 647 3 l 658 3 q 601 -64 625 -21 q 576 -140 576 -107 q 594 -190 576 -174 q 640 -206 613 -206 q 713 -178 678 -206 l 749 -246 z "},"ý":{"ha":633,"x_min":14,"x_max":619,"o":"m 222 -111 q 176 -174 207 -153 q 79 -226 144 -196 l 113 -306 q 242 -246 186 -290 q 322 -139 299 -201 l 619 674 l 508 674 l 315 153 l 111 694 l 14 653 l 264 4 l 222 -111 m 308 1035 l 233 839 l 307 818 l 429 1035 l 308 1035 z "},"ÿ":{"ha":633,"x_min":14,"x_max":619,"o":"m 222 -111 q 176 -174 207 -153 q 79 -226 144 -196 l 113 -306 q 242 -246 186 -290 q 322 -139 299 -201 l 619 674 l 508 674 l 315 153 l 111 694 l 14 653 l 264 4 l 222 -111 m 307 988 q 356 968 336 988 q 375 921 375 949 q 356 873 375 893 q 307 853 336 853 l 301 853 l 294 853 q 247 873 267 853 q 228 921 228 893 q 248 968 228 949 q 294 988 268 988 l 301 988 l 307 988 z "},"ź":{"ha":601,"x_min":29,"x_max":572,"o":"m 89 586 l 431 586 l 29 57 l 43 0 l 569 0 l 556 86 l 164 86 l 572 615 l 567 674 l 63 674 l 89 586 m 311 1035 l 236 839 l 310 818 l 432 1035 l 311 1035 z "},"ż":{"ha":601,"x_min":29,"x_max":572,"o":"m 89 586 l 431 586 l 29 57 l 43 0 l 569 0 l 556 86 l 164 86 l 572 615 l 567 674 l 63 674 l 89 586 m 313 850 q 365 872 343 850 q 386 925 386 894 q 365 978 386 956 q 313 1001 343 1001 q 259 978 282 1001 q 236 925 236 956 q 258 872 236 894 q 313 850 281 850 z "},"ž":{"ha":601,"x_min":29,"x_max":572,"o":"m 89 586 l 431 586 l 29 57 l 43 0 l 569 0 l 556 86 l 164 86 l 572 615 l 567 674 l 63 674 l 89 586 m 113 1021 l 274 818 l 361 818 l 519 1021 l 421 1035 l 317 899 l 213 1035 l 113 1021 z "},"ş":{"ha":583,"x_min":49,"x_max":539,"o":"m 539 178 q 478 42 539 93 q 307 -17 418 -10 l 288 -67 q 364 -108 332 -75 q 396 -179 396 -142 q 349 -274 396 -242 q 235 -307 303 -307 q 177 -299 210 -307 q 125 -278 144 -290 l 151 -208 q 192 -222 168 -215 q 235 -229 215 -229 q 285 -217 263 -229 q 307 -182 307 -204 q 272 -136 307 -156 q 183 -111 236 -117 l 221 -15 q 128 4 175 -10 q 53 39 82 18 l 88 118 q 269 71 182 71 q 390 97 346 71 q 435 171 435 124 q 268 301 435 246 q 110 381 171 333 q 49 501 49 428 q 116 641 49 590 q 300 692 183 692 q 410 675 347 692 q 510 632 474 658 l 475 557 q 389 590 429 578 q 297 603 349 603 q 195 576 235 603 q 156 506 156 549 q 197 443 157 469 q 313 392 238 417 q 539 178 539 308 z "},"ţ":{"ha":444,"x_min":22,"x_max":413,"o":"m 283 -67 q 360 -108 328 -75 q 392 -179 392 -142 q 345 -274 392 -242 q 231 -307 299 -307 q 173 -299 206 -307 q 121 -278 140 -290 l 147 -208 q 188 -222 164 -215 q 231 -229 211 -229 q 281 -217 258 -229 q 303 -182 303 -204 q 267 -136 303 -156 q 179 -111 232 -117 l 221 -4 q 147 63 174 17 q 121 175 121 108 l 121 579 l 24 579 l 22 663 l 121 663 l 121 835 l 231 865 l 231 663 l 353 663 l 389 579 l 231 579 l 231 190 q 254 106 231 136 q 326 75 278 75 q 388 89 353 75 l 413 3 q 310 -21 363 -21 l 301 -21 l 283 -67 z "},"ș":{"ha":583,"x_min":49,"x_max":539,"o":"m 53 39 q 156 -3 90 13 q 268 -18 221 -18 q 469 33 399 -18 q 539 178 539 85 q 313 392 539 308 q 197 443 238 417 q 156 506 157 469 q 195 576 156 549 q 297 603 235 603 q 389 590 349 603 q 475 557 429 578 l 510 632 q 410 675 474 658 q 300 692 347 692 q 116 641 183 692 q 49 501 49 590 q 110 381 49 428 q 268 301 171 333 q 435 171 435 246 q 390 97 435 124 q 269 71 346 71 q 88 118 182 71 l 53 39 m 274 -29 q 221 -52 243 -29 q 199 -106 199 -75 q 217 -156 199 -133 q 263 -179 236 -178 q 185 -281 257 -236 l 214 -333 q 310 -244 271 -306 q 350 -117 350 -182 q 328 -53 350 -78 q 274 -29 306 -29 z "},"­":{"ha":167,"x_min":0,"x_max":0,"o":""},"µ":{"ha":749,"x_min":96,"x_max":661,"o":"m 661 1 l 579 1 l 561 97 q 442 14 513 47 q 307 -19 371 -19 q 206 1 247 -19 l 206 -289 l 96 -304 l 96 674 l 206 674 l 206 233 q 233 117 206 158 q 326 75 261 75 q 440 110 376 75 q 551 197 503 144 l 551 675 l 661 675 l 661 1 z "},"ˉ":{"ha":369,"x_min":14,"x_max":356,"o":"m 346 967 l 14 967 l 14 879 l 356 879 l 346 967 z "},"ℓ":{"ha":508,"x_min":14,"x_max":467,"o":"m 40 246 q 108 293 79 268 l 108 214 q 152 43 108 103 q 303 -17 196 -17 q 443 36 389 -17 l 406 104 q 314 78 354 78 q 238 116 256 78 q 219 228 219 154 l 219 381 q 397 590 328 481 q 467 790 467 699 q 419 925 467 875 q 294 975 371 975 q 160 923 213 975 q 108 781 108 871 l 108 410 q 14 335 61 368 l 40 246 m 357 786 q 219 515 357 671 l 219 778 q 240 856 219 832 q 293 882 261 881 q 340 860 322 882 q 357 786 357 838 z "},"Ω":{"ha":994,"x_min":60,"x_max":935,"o":"m 817 472 q 768 243 817 356 q 643 89 719 131 l 639 0 l 926 0 l 935 89 l 781 89 q 892 252 851 146 q 933 472 933 358 q 881 724 933 613 q 730 899 829 835 q 497 967 631 964 q 265 899 364 964 q 113 724 165 835 q 61 472 61 613 q 102 252 61 358 q 214 89 143 146 l 60 89 l 68 0 l 356 0 l 350 89 q 225 243 274 131 q 176 472 176 356 q 217 678 176 588 q 332 820 258 769 q 497 871 406 871 q 662 820 589 871 q 776 678 735 769 q 817 472 817 588 z "},"∆":{"ha":846,"x_min":14,"x_max":832,"o":"m 832 0 l 832 17 l 469 944 l 364 944 l 14 0 l 832 0 m 415 800 l 689 89 l 153 89 l 415 800 z "},"∕":{"ha":558,"x_min":14,"x_max":544,"o":"m 119 -6 l 544 981 l 439 986 l 14 0 l 119 -6 z "},"∙":{"ha":329,"x_min":42,"x_max":288,"o":"m 165 333 q 252 369 217 333 q 288 454 288 404 q 252 542 288 506 q 165 578 217 578 q 78 542 114 578 q 42 454 42 506 q 78 369 42 404 q 165 333 114 333 z "},"₺":{"ha":690,"x_min":0,"x_max":663,"o":"m 214 0 q 433 59 329 0 q 599 222 536 118 q 663 454 663 326 l 551 454 q 505 278 551 361 q 383 145 458 194 q 229 96 308 96 l 229 525 l 494 618 l 478 699 l 229 611 l 229 683 l 494 776 l 478 857 l 229 769 l 229 981 l 119 967 l 119 729 l 0 688 l 15 606 l 119 643 l 119 574 l 0 531 l 15 449 l 119 486 l 119 0 l 214 0 z "},"₽":{"ha":781,"x_min":46,"x_max":735,"o":"m 239 281 l 642 281 l 651 197 l 239 197 l 239 0 l 129 0 l 129 197 l 56 197 l 46 281 l 129 281 l 129 363 l 56 363 l 46 446 l 129 446 l 129 944 l 386 944 q 640 874 546 944 q 735 656 735 804 q 632 433 733 508 q 372 357 531 357 l 239 357 l 239 281 m 376 450 q 553 499 486 450 q 622 651 619 549 q 563 806 622 761 q 388 851 503 851 l 239 851 l 239 450 l 376 450 z "},"¢":{"ha":636,"x_min":46,"x_max":596,"o":"m 592 43 q 520 10 563 24 q 435 -11 478 -4 l 435 -156 l 338 -156 l 338 -17 q 124 91 201 -6 q 46 339 46 188 q 125 581 47 485 q 338 690 203 676 l 338 829 l 433 843 l 433 686 q 522 665 478 679 q 596 631 567 650 l 563 553 q 470 588 507 576 q 375 599 433 599 q 217 526 275 599 q 157 340 158 453 q 213 149 157 222 q 369 75 268 75 q 469 86 431 75 q 557 122 508 97 l 592 43 z "},"£":{"ha":625,"x_min":74,"x_max":611,"o":"m 597 88 l 243 88 q 286 254 286 139 l 286 444 l 507 444 l 469 528 l 286 528 l 286 736 q 381 854 286 854 q 442 839 404 854 l 467 925 q 419 942 449 935 q 364 950 390 950 q 225 891 275 950 q 175 731 175 832 l 175 528 l 74 528 l 75 444 l 175 444 l 175 204 q 78 88 175 88 l 88 0 l 611 0 l 597 88 z "},"¤":{"ha":935,"x_min":42,"x_max":893,"o":"m 751 132 q 813 333 811 219 q 753 542 813 453 l 893 686 l 831 764 l 685 617 q 472 692 594 692 q 254 614 350 690 l 106 764 l 42 686 l 186 540 q 141 447 157 499 q 125 339 125 394 q 183 129 125 224 l 42 -15 l 106 -92 l 251 57 q 460 -18 340 -17 q 581 2 524 -18 q 682 58 638 22 l 831 -92 l 893 -15 l 751 132 m 700 333 q 669 203 700 261 q 583 113 638 146 q 463 81 529 81 q 299 154 361 81 q 238 340 238 228 q 269 469 238 411 q 353 560 300 526 q 474 593 407 593 q 592 559 540 593 q 672 466 644 525 q 700 333 700 407 z "},"¥":{"ha":782,"x_min":14,"x_max":768,"o":"m 436 104 l 436 0 l 326 0 l 326 104 l 96 104 l 83 189 l 326 189 l 326 379 l 14 922 l 117 967 l 382 488 l 650 944 l 768 944 l 438 385 l 436 189 l 686 189 l 699 104 l 436 104 z "},"€":{"ha":831,"x_min":0,"x_max":800,"o":"m 800 35 q 685 -3 757 13 q 554 -19 614 -19 q 283 69 390 -19 q 138 303 176 157 l 14 303 l 0 388 l 121 388 q 117 467 117 428 q 122 554 117 517 l 14 554 l 0 638 l 140 638 q 293 875 182 786 q 563 964 404 964 q 685 949 614 964 q 797 910 757 935 l 763 831 q 667 860 707 851 q 561 869 626 869 q 379 807 460 869 q 260 638 299 744 l 603 638 l 615 554 l 239 554 q 232 468 232 508 q 238 388 232 422 l 603 388 l 615 303 l 257 303 q 369 138 293 199 q 550 76 444 76 q 757 118 668 76 l 800 35 z "},"$":{"ha":713,"x_min":60,"x_max":668,"o":"m 240 -8 q 145 15 190 0 q 75 46 100 29 l 101 132 q 209 92 146 110 q 333 75 272 75 q 501 117 442 75 q 560 228 560 160 q 532 313 560 276 q 452 380 504 350 q 310 449 400 410 q 120 569 181 504 q 60 729 60 635 q 108 865 60 806 q 240 950 156 924 l 240 1099 l 319 1113 l 319 965 l 361 967 q 408 964 378 967 l 408 1100 l 489 1114 l 489 950 q 603 908 547 935 l 565 824 q 472 860 514 847 q 368 872 429 872 q 222 835 276 872 q 167 731 167 797 q 194 645 167 681 q 271 581 221 610 q 418 507 321 551 q 559 429 506 467 q 640 344 613 392 q 668 229 668 296 q 622 92 668 151 q 489 4 575 33 l 489 -160 l 408 -160 l 408 -12 q 335 -18 376 -18 l 319 -18 l 319 -160 l 240 -160 l 240 -8 z "},",":{"ha":240,"x_min":28,"x_max":199,"o":"m 122 149 q 69 126 92 149 q 47 75 47 104 q 67 25 47 47 q 111 1 86 3 q 88 -61 108 -35 q 28 -115 67 -87 l 57 -167 q 158 -70 117 -136 q 199 63 199 -4 q 177 125 199 101 q 122 149 156 149 z "},".":{"ha":233,"x_min":42,"x_max":192,"o":"m 118 0 q 170 22 149 0 q 192 75 192 44 q 170 127 192 106 q 118 149 149 149 q 64 127 86 149 q 42 75 42 106 q 64 22 42 43 q 118 0 86 0 z "},"!":{"ha":235,"x_min":42,"x_max":193,"o":"m 181 975 l 56 975 l 79 311 l 158 272 l 181 975 m 118 149 q 65 127 88 149 q 42 75 42 106 q 65 22 42 44 q 118 0 88 0 q 172 22 150 0 q 193 75 193 44 q 171 127 193 106 q 118 149 149 149 z "},"¡":{"ha":235,"x_min":42,"x_max":193,"o":"m 118 824 q 171 847 149 824 q 193 900 193 869 q 171 953 193 931 q 118 975 149 975 q 65 953 88 975 q 42 900 42 931 q 65 847 42 869 q 118 824 88 824 m 56 0 l 181 0 l 158 664 l 78 701 l 56 0 z "},":":{"ha":233,"x_min":42,"x_max":192,"o":"m 117 483 q 169 506 147 483 q 192 558 192 528 q 169 612 192 589 q 117 635 147 635 q 64 612 86 635 q 42 558 42 589 q 64 506 42 528 q 117 483 86 483 m 117 38 q 170 60 149 38 q 192 113 192 82 q 170 167 192 144 q 117 189 149 189 q 64 167 86 189 q 42 113 42 144 q 64 60 42 82 q 117 38 86 38 z "},";":{"ha":242,"x_min":28,"x_max":199,"o":"m 125 568 q 115 558 115 568 q 125 550 115 550 q 133 558 133 550 q 131 565 133 563 q 125 568 128 568 m 122 189 q 69 166 92 189 q 47 113 47 143 q 66 63 47 83 q 111 39 85 42 q 88 -24 108 3 q 28 -78 67 -50 l 57 -129 q 158 -33 117 -99 q 199 99 199 33 q 177 164 199 139 q 122 189 156 189 z "},"?":{"ha":572,"x_min":14,"x_max":531,"o":"m 265 975 q 135 955 190 975 q 14 892 81 935 l 28 796 q 144 860 90 839 q 261 881 197 881 q 381 847 340 881 q 421 740 421 813 q 355 607 421 668 q 179 511 289 546 l 190 239 l 271 207 l 285 456 q 463 585 396 507 q 531 742 531 664 q 464 912 531 849 q 265 975 397 975 m 226 149 q 174 127 196 149 q 153 75 153 106 q 174 22 153 43 q 226 0 196 0 q 281 22 258 0 q 303 75 303 44 q 281 127 303 106 q 226 149 258 149 z "},"¿":{"ha":572,"x_min":42,"x_max":558,"o":"m 346 726 q 399 749 376 726 q 421 803 421 771 q 399 856 421 833 q 346 879 376 879 q 292 856 315 879 q 269 803 269 833 q 292 749 269 772 q 346 726 315 726 m 307 -97 q 438 -77 382 -97 q 558 -15 494 -57 l 544 83 q 428 18 482 39 q 311 -3 374 -3 q 192 31 232 -3 q 151 138 151 65 q 217 271 151 210 q 393 367 283 332 l 382 639 l 301 672 l 289 424 q 110 293 178 372 q 42 135 42 214 q 108 -35 42 28 q 307 -97 174 -97 z "},"*":{"ha":488,"x_min":14,"x_max":474,"o":"m 199 918 l 38 953 l 14 881 l 178 849 l 63 686 l 128 638 l 244 794 l 361 638 l 425 686 l 311 849 l 474 881 l 450 953 l 288 918 l 286 1072 l 201 1072 l 199 918 z "},"\"":{"ha":456,"x_min":28,"x_max":414,"o":"m 122 989 q 69 966 92 989 q 46 914 46 943 q 65 863 46 886 q 110 839 83 840 q 85 776 106 803 q 28 724 65 750 l 57 672 q 157 769 115 703 q 199 901 199 835 q 176 965 199 940 q 122 989 153 989 m 339 989 q 286 966 308 989 q 264 914 264 943 q 283 863 264 886 q 328 839 301 840 q 302 776 322 803 q 244 724 282 750 l 274 672 q 373 769 332 703 q 414 901 414 835 q 392 965 414 940 q 339 989 369 989 z "},"'":{"ha":240,"x_min":28,"x_max":199,"o":"m 122 989 q 69 966 92 989 q 46 914 46 943 q 65 863 46 886 q 110 839 83 840 q 85 776 106 803 q 28 724 65 750 l 57 672 q 157 769 115 703 q 199 901 199 835 q 176 965 199 940 q 122 989 153 989 z "},"‘":{"ha":240,"x_min":42,"x_max":213,"o":"m 117 672 q 169 695 147 672 q 192 747 192 718 q 173 799 192 776 q 128 822 154 821 q 153 883 132 858 q 213 936 174 908 l 182 989 q 83 892 124 958 q 42 760 42 826 q 63 697 42 721 q 117 672 85 672 z "},"’":{"ha":240,"x_min":28,"x_max":199,"o":"m 122 989 q 69 966 92 989 q 46 914 46 943 q 65 863 46 886 q 110 839 83 840 q 85 776 106 803 q 28 724 65 750 l 57 672 q 157 769 115 703 q 199 901 199 835 q 176 965 199 940 q 122 989 153 989 z "},"‚":{"ha":240,"x_min":28,"x_max":199,"o":"m 122 149 q 69 126 92 149 q 46 75 46 104 q 65 25 46 47 q 110 1 85 3 q 85 -62 106 -35 q 28 -115 65 -89 l 57 -167 q 158 -70 117 -136 q 199 63 199 -4 q 176 125 199 101 q 122 149 154 149 z "},"“":{"ha":457,"x_min":42,"x_max":429,"o":"m 117 672 q 169 695 147 672 q 192 747 192 718 q 173 799 192 776 q 128 822 154 821 q 153 883 132 858 q 213 936 174 908 l 182 989 q 83 892 124 958 q 42 760 42 826 q 63 697 42 721 q 117 672 85 672 m 333 672 q 387 695 364 672 q 410 747 410 718 q 391 797 410 775 q 347 822 372 819 q 370 884 350 858 q 429 936 390 910 l 400 989 q 300 892 340 958 q 260 760 260 826 q 281 697 260 722 q 333 672 303 672 z "},"”":{"ha":456,"x_min":28,"x_max":414,"o":"m 122 989 q 69 966 92 989 q 46 914 46 943 q 65 863 46 886 q 110 839 83 840 q 85 776 106 803 q 28 724 65 750 l 57 672 q 157 769 115 703 q 199 901 199 835 q 176 965 199 940 q 122 989 153 989 m 339 989 q 286 966 308 989 q 264 914 264 943 q 283 863 264 886 q 328 839 301 840 q 302 776 322 803 q 244 724 282 750 l 274 672 q 373 769 332 703 q 414 901 414 835 q 392 965 414 940 q 339 989 369 989 z "},"„":{"ha":456,"x_min":131,"x_max":313,"o":"m 238 150 q 290 126 268 150 q 313 63 313 101 q 272 -70 313 -4 q 172 -167 231 -136 l 169 -161 l 158 -167 l 131 -114 q 188 -60 168 -86 q 213 1 208 -35 q 168 25 188 3 q 149 75 149 47 q 171 126 149 104 q 224 149 193 149 q 238 150 228 150 z "},"·":{"ha":233,"x_min":42,"x_max":192,"o":"m 118 289 q 170 311 149 289 q 192 364 192 333 q 170 417 192 394 q 118 439 149 439 q 64 417 86 439 q 42 364 42 396 q 64 311 42 333 q 118 289 86 289 z "},"(":{"ha":368,"x_min":69,"x_max":326,"o":"m 326 -21 q 253 106 288 22 q 197 284 218 190 q 176 446 176 378 q 197 604 176 513 q 253 780 218 696 q 326 908 288 864 l 238 940 q 112 699 154 832 q 69 444 69 567 q 113 188 69 321 q 238 -53 156 54 l 326 -21 z "},")":{"ha":368,"x_min":42,"x_max":299,"o":"m 42 908 q 114 781 79 865 q 170 604 149 697 q 192 444 192 511 q 170 285 192 378 q 114 108 149 192 q 42 -21 79 24 l 131 -53 q 256 192 213 60 q 299 444 299 324 q 256 701 299 568 q 131 940 213 833 l 42 908 z "},"[":{"ha":411,"x_min":139,"x_max":397,"o":"m 382 -42 l 243 -42 l 243 885 l 382 885 l 397 967 l 139 967 l 139 -122 l 397 -122 l 382 -42 z "},"]":{"ha":410,"x_min":14,"x_max":271,"o":"m 29 885 l 165 885 l 165 -42 l 29 -42 l 14 -122 l 271 -122 l 271 967 l 14 967 l 29 885 z "},"{":{"ha":378,"x_min":42,"x_max":364,"o":"m 206 432 q 265 485 247 450 q 283 578 283 519 q 258 676 283 618 q 233 769 233 735 q 256 815 233 796 q 321 833 278 833 l 354 833 l 364 915 l 328 915 q 188 878 236 915 q 140 769 140 840 q 163 671 140 724 q 183 569 183 615 q 156 494 183 524 q 92 464 129 464 l 42 464 l 42 392 l 92 392 q 158 364 129 392 q 188 293 188 336 q 164 196 188 254 q 139 96 139 138 q 328 -58 139 -58 l 364 -58 l 354 24 l 321 24 q 256 42 279 24 q 233 89 233 61 q 258 183 233 124 q 283 281 283 242 q 263 373 283 333 q 206 432 243 413 z "},"}":{"ha":376,"x_min":14,"x_max":335,"o":"m 174 425 q 113 372 132 407 q 93 279 93 336 q 118 181 93 239 q 144 89 144 124 q 122 43 144 63 q 57 24 100 24 l 24 24 l 14 -60 l 50 -60 q 190 -22 142 -60 q 238 89 238 17 q 215 188 238 133 q 193 288 193 242 q 220 364 193 333 q 285 394 247 394 l 335 394 l 335 465 l 285 465 q 218 494 247 465 q 189 564 189 522 q 214 663 189 604 q 239 761 239 719 q 50 915 239 915 l 14 915 l 24 833 l 57 833 q 122 815 99 833 q 144 768 144 796 q 118 674 144 732 q 93 578 93 615 q 114 484 93 524 q 174 425 135 444 z "},"/":{"ha":558,"x_min":14,"x_max":544,"o":"m 119 -6 l 544 981 l 439 986 l 14 0 l 119 -6 z "},"\\":{"ha":558,"x_min":14,"x_max":544,"o":"m 14 981 l 439 -6 l 544 0 l 121 986 l 14 981 z "},"|":{"ha":367,"x_min":129,"x_max":238,"o":"m 238 -8 l 238 979 l 129 988 l 129 0 l 238 -8 z "},"¦":{"ha":367,"x_min":129,"x_max":238,"o":"m 238 564 l 238 979 l 129 988 l 129 572 l 238 564 m 238 -8 l 238 400 l 129 407 l 129 0 l 238 -8 z "},"«":{"ha":518,"x_min":42,"x_max":490,"o":"m 274 189 l 126 340 l 274 492 l 243 565 l 42 372 l 42 310 l 243 117 l 274 189 m 490 189 l 343 340 l 490 492 l 461 565 l 258 372 l 258 310 l 461 117 l 490 189 z "},"»":{"ha":519,"x_min":28,"x_max":478,"o":"m 28 492 l 175 340 l 28 189 l 60 117 l 261 310 l 261 372 l 60 565 l 28 492 m 246 492 l 393 340 l 246 189 l 276 117 l 478 310 l 478 372 l 276 565 l 246 492 z "},"π":{"ha":825,"x_min":14,"x_max":811,"o":"m 564 586 l 564 0 l 674 0 l 674 586 l 811 586 l 811 674 l 14 674 l 14 586 l 150 586 l 150 0 l 261 0 l 261 586 l 564 586 z "},"†":{"ha":544,"x_min":42,"x_max":503,"o":"m 42 868 l 68 776 l 215 776 l 229 0 l 318 -6 l 332 776 l 503 776 l 476 868 l 332 868 l 332 1083 l 215 1088 l 215 868 l 42 868 z "},"‡":{"ha":551,"x_min":42,"x_max":510,"o":"m 510 247 l 483 340 l 332 340 l 336 731 l 510 731 l 483 825 l 332 825 l 339 1083 l 215 1088 l 222 825 l 42 825 l 68 731 l 219 731 l 215 340 l 42 340 l 68 247 l 219 247 l 213 -8 l 338 1 l 331 247 l 510 247 z "},"•":{"ha":329,"x_min":42,"x_max":288,"o":"m 165 333 q 252 369 217 333 q 288 454 288 404 q 252 542 288 506 q 165 578 217 578 q 78 542 114 578 q 42 454 42 506 q 78 369 42 404 q 165 333 114 333 z "},"…":{"ha":644,"x_min":242,"x_max":403,"o":"m 332 140 q 382 120 361 140 q 403 69 403 100 q 382 20 403 40 q 332 0 361 0 l 329 0 l 326 0 l 319 0 l 313 0 q 263 20 283 0 q 242 69 242 40 q 263 120 242 100 q 313 140 283 140 l 319 140 l 326 140 l 329 140 l 332 140 z "},"‹":{"ha":301,"x_min":42,"x_max":274,"o":"m 274 193 l 132 340 l 274 488 l 243 567 l 42 374 l 42 307 l 243 115 l 274 193 z "},"›":{"ha":303,"x_min":28,"x_max":261,"o":"m 28 488 l 172 340 l 28 193 l 60 115 l 261 307 l 261 374 l 60 567 l 28 488 z "},"-":{"ha":444,"x_min":42,"x_max":403,"o":"m 54 336 l 403 336 l 392 424 l 42 424 l 54 336 z "},"_":{"ha":611,"x_min":42,"x_max":569,"o":"m 54 0 l 569 0 l 557 88 l 42 88 l 54 0 z "},"–":{"ha":611,"x_min":42,"x_max":569,"o":"m 54 336 l 569 336 l 557 424 l 42 424 l 54 336 z "},"—":{"ha":747,"x_min":42,"x_max":706,"o":"m 54 336 l 706 336 l 694 424 l 42 424 l 54 336 z "},"#":{"ha":721,"x_min":42,"x_max":679,"o":"m 308 528 l 351 703 l 260 704 l 218 528 l 42 528 l 54 443 l 196 443 l 156 267 l 42 267 l 54 182 l 135 182 l 93 3 l 183 -4 l 228 182 l 411 182 l 369 3 l 460 -4 l 503 182 l 679 182 l 668 267 l 522 267 l 564 443 l 679 443 l 668 528 l 585 528 l 626 703 l 533 704 l 493 528 l 308 528 m 247 267 l 290 443 l 472 443 l 431 267 l 247 267 z "},"%":{"ha":1197,"x_min":110,"x_max":1089,"o":"m 439 -6 l 864 981 l 757 986 l 332 0 l 439 -6 m 154 857 q 110 742 110 804 q 157 622 110 681 q 206 581 178 594 q 264 567 233 567 q 378 622 326 567 q 422 738 422 678 q 374 857 422 800 q 267 913 331 913 q 208 898 238 913 q 154 857 178 883 m 214 822 q 269 854 238 854 q 304 842 288 854 q 331 807 321 831 q 347 740 347 769 q 318 657 347 701 q 263 625 294 625 q 228 637 244 625 q 201 672 211 649 q 185 738 185 708 q 214 822 185 778 m 822 353 q 778 238 778 297 q 826 118 778 174 q 932 63 869 63 q 1044 118 996 63 q 1089 233 1089 171 q 1042 353 1089 294 q 992 393 1021 379 q 935 407 964 407 q 822 353 871 407 m 882 318 q 938 350 906 350 q 972 338 956 350 q 999 303 989 326 q 1014 236 1014 268 q 986 153 1014 193 q 929 119 961 119 q 895 131 911 119 q 869 167 879 143 q 853 235 853 204 q 882 318 853 274 z "},"+":{"ha":744,"x_min":42,"x_max":703,"o":"m 424 738 l 322 742 l 322 424 l 42 424 l 53 336 l 322 336 l 322 11 l 424 6 l 424 336 l 703 336 l 689 424 l 424 424 l 424 738 z "},"÷":{"ha":694,"x_min":42,"x_max":653,"o":"m 347 500 q 406 526 382 500 q 431 585 431 551 q 406 646 431 621 q 347 671 382 671 q 286 646 311 671 q 261 585 261 621 q 286 526 261 551 q 347 500 311 500 m 54 336 l 653 336 l 642 424 l 42 424 l 54 336 m 349 68 q 410 94 385 68 q 435 154 435 119 q 410 214 435 189 q 349 239 385 239 q 289 215 314 239 q 264 154 264 190 q 289 93 264 118 q 349 68 314 68 z "},"×":{"ha":706,"x_min":42,"x_max":664,"o":"m 531 43 l 353 269 l 154 43 l 42 43 l 300 349 l 64 651 l 176 651 l 354 425 l 553 651 l 664 651 l 406 346 l 642 43 l 531 43 z "},"±":{"ha":675,"x_min":42,"x_max":633,"o":"m 386 738 l 289 742 l 289 499 l 42 499 l 54 418 l 289 418 l 289 168 l 386 161 l 386 418 l 633 418 l 622 499 l 386 499 l 386 738 m 54 1 l 633 1 l 624 82 l 43 82 l 54 1 z "},"<":{"ha":457,"x_min":42,"x_max":429,"o":"m 429 569 l 397 653 l 42 375 l 42 306 l 397 26 l 429 111 l 146 340 l 429 569 z "},"=":{"ha":697,"x_min":42,"x_max":656,"o":"m 54 443 l 656 443 l 644 528 l 42 528 l 54 443 m 54 182 l 656 182 l 644 267 l 42 267 l 54 182 z "},">":{"ha":457,"x_min":28,"x_max":415,"o":"m 28 569 l 311 340 l 28 111 l 60 26 l 415 306 l 415 375 l 60 653 l 28 569 z "},"°":{"ha":333,"x_min":14,"x_max":319,"o":"m 167 983 q 59 940 104 983 q 14 836 14 897 q 59 733 14 774 q 167 692 104 692 q 275 733 231 692 q 319 836 319 774 q 274 940 319 897 q 167 983 229 983 m 167 758 q 112 781 133 758 q 90 836 90 804 q 112 890 90 868 q 167 911 133 911 q 222 889 199 911 q 244 835 244 867 q 222 781 244 804 q 167 758 199 758 z "},"¹":{"ha":365,"x_min":14,"x_max":264,"o":"m 200 1063 l 14 971 l 54 903 l 165 960 l 165 467 l 264 467 l 264 1063 l 200 1063 z "},"²":{"ha":496,"x_min":32,"x_max":468,"o":"m 240 1071 q 32 1013 138 1071 l 69 938 q 148 974 103 958 q 236 990 193 990 q 321 962 292 990 q 350 894 350 933 q 325 811 350 851 q 244 721 300 771 l 35 540 l 35 467 l 468 467 l 457 543 l 157 543 l 299 664 q 415 786 379 733 q 450 894 450 839 q 428 978 450 938 q 360 1044 407 1018 q 240 1071 313 1071 z "},"³":{"ha":497,"x_min":0,"x_max":446,"o":"m 222 1071 q 114 1054 164 1071 q 15 1007 64 1038 l 54 939 q 128 977 90 963 q 215 992 167 992 q 303 965 272 992 q 335 899 335 939 q 295 817 335 847 q 176 786 256 786 l 133 786 l 144 708 l 169 708 q 305 676 263 708 q 347 581 347 644 q 307 497 347 528 q 206 467 267 467 q 119 478 154 467 q 43 513 85 489 l 0 444 q 206 386 111 386 q 332 412 278 386 q 416 482 386 438 q 446 582 446 526 q 411 692 446 646 q 324 749 376 738 q 401 806 369 764 q 433 900 433 847 q 378 1022 433 974 q 222 1071 324 1071 z "},"¼":{"ha":1072,"x_min":14,"x_max":1044,"o":"m 200 1063 l 14 971 l 54 903 l 165 960 l 165 467 l 264 467 l 264 1063 l 200 1063 m 181 -186 l 881 972 l 772 972 l 69 -186 l 181 -186 m 1044 -28 l 933 -28 l 933 446 l 867 446 l 517 -28 l 526 -107 l 838 -107 l 838 -228 l 933 -228 l 933 -107 l 1038 -107 l 1044 -28 m 619 -28 l 838 272 l 838 -28 l 619 -28 z "},"½":{"ha":1101,"x_min":14,"x_max":1074,"o":"m 200 1063 l 14 971 l 54 903 l 165 960 l 165 467 l 264 467 l 264 1063 l 200 1063 m 160 -186 l 860 972 l 751 972 l 49 -186 l 160 -186 m 844 451 q 636 393 746 451 l 675 318 q 752 355 707 339 q 840 371 797 371 q 926 342 897 371 q 956 275 956 314 q 931 192 956 232 q 850 101 906 151 l 640 -79 l 640 -153 l 1074 -153 l 1063 -76 l 761 -76 l 904 44 q 1019 166 983 114 q 1054 275 1054 218 q 1033 358 1054 318 q 964 425 1011 399 q 844 451 917 451 z "},"¾":{"ha":1104,"x_min":0,"x_max":1076,"o":"m 222 1071 q 114 1054 164 1071 q 15 1007 64 1038 l 54 939 q 128 977 90 963 q 215 992 167 992 q 303 965 272 992 q 335 899 335 938 q 291 815 335 843 q 176 786 247 786 l 133 786 l 144 708 l 169 708 q 305 676 263 708 q 347 581 347 644 q 307 497 347 528 q 206 467 267 467 q 119 478 154 467 q 43 513 85 489 l 0 444 q 206 386 111 386 q 332 412 278 386 q 416 482 386 438 q 446 582 446 526 q 411 692 446 646 q 324 749 376 738 q 401 806 369 764 q 433 900 433 847 q 378 1022 433 974 q 222 1071 324 1071 m 267 -186 l 967 972 l 858 972 l 156 -186 l 267 -186 m 897 446 l 549 -28 l 557 -107 l 868 -107 l 868 -228 l 964 -228 l 964 -107 l 1068 -107 l 1076 -28 l 964 -28 l 964 446 l 897 446 m 868 272 l 868 -28 l 650 -28 l 868 272 z "},"℮":{"ha":693,"x_min":46,"x_max":647,"o":"m 647 319 q 577 589 647 486 q 360 692 507 692 q 191 647 263 692 q 83 522 119 601 q 46 339 46 442 q 136 79 46 176 q 399 -18 226 -18 q 525 1 468 -18 q 639 51 582 19 l 604 132 q 497 88 542 101 q 397 74 451 74 q 220 140 278 74 q 158 319 163 206 l 647 319 m 161 394 q 220 544 171 489 q 356 599 269 599 q 539 394 515 599 l 161 394 z "},"∂":{"ha":744,"x_min":46,"x_max":700,"o":"m 160 1042 q 567 764 433 944 q 700 342 700 583 q 660 156 700 238 q 545 28 621 75 q 364 -18 469 -18 q 194 27 267 -18 q 84 153 122 72 q 46 339 46 235 q 86 522 46 442 q 201 647 126 601 q 376 692 276 692 q 518 654 450 692 q 372 827 467 750 q 128 964 278 904 l 160 1042 m 369 75 q 528 148 469 75 q 588 333 586 221 q 568 519 588 436 q 375 599 492 599 q 217 526 275 599 q 157 340 158 453 q 213 149 157 222 q 369 75 268 75 z "},"∏":{"ha":863,"x_min":129,"x_max":735,"o":"m 233 864 l 629 864 l 629 0 l 735 0 l 735 944 l 129 944 l 129 0 l 233 0 l 233 864 z "},"∑":{"ha":628,"x_min":42,"x_max":600,"o":"m 43 863 l 314 479 l 42 88 l 42 0 l 600 0 l 588 88 l 157 88 l 408 457 l 408 503 l 158 863 l 561 863 l 549 944 l 43 944 l 43 863 z "},"−":{"ha":664,"x_min":42,"x_max":622,"o":"m 53 336 l 622 336 l 607 424 l 42 424 l 53 336 z "},"√":{"ha":775,"x_min":14,"x_max":761,"o":"m 124 446 l 14 440 l 244 0 l 358 -6 l 761 981 l 658 986 l 301 111 l 124 446 z "},"∞":{"ha":1135,"x_min":46,"x_max":1090,"o":"m 326 640 q 182 601 246 640 q 82 493 118 561 q 46 343 46 425 q 81 197 46 261 q 181 98 117 133 q 329 63 246 63 q 554 208 463 63 q 670 101 606 139 q 810 63 735 63 q 956 102 892 63 q 1055 209 1019 142 q 1090 358 1090 276 q 1055 505 1090 440 q 955 605 1019 569 q 807 640 890 640 q 579 496 671 640 q 465 601 529 563 q 326 640 400 640 m 614 342 q 688 487 640 425 q 807 549 736 549 q 939 494 889 549 q 989 361 989 439 q 940 215 989 275 q 808 156 890 156 q 688 194 742 156 q 600 294 635 232 l 614 342 m 522 361 q 449 214 496 274 q 329 154 401 154 q 197 208 247 154 q 147 340 147 263 q 197 486 147 426 q 328 546 246 546 q 449 508 394 546 q 536 407 503 469 l 522 361 z "},"∫":{"ha":465,"x_min":0,"x_max":465,"o":"m 288 876 q 379 993 288 993 q 439 978 396 993 l 465 1065 q 420 1081 449 1074 q 364 1088 392 1088 q 227 1033 276 1088 q 178 882 178 978 l 178 -36 q 85 -151 178 -151 q 25 -139 60 -151 l 0 -226 q 47 -242 18 -235 q 101 -249 75 -249 q 238 -193 189 -249 q 288 -42 288 -137 l 288 876 z "},"≈":{"ha":703,"x_min":42,"x_max":661,"o":"m 578 553 q 552 510 576 524 q 504 496 528 496 q 363 526 446 496 q 219 556 275 556 q 95 528 149 556 q 42 428 42 501 l 124 410 q 152 453 125 439 q 204 467 179 467 q 353 436 269 467 q 488 406 436 406 q 661 533 661 406 l 578 553 m 578 303 q 552 260 576 274 q 504 246 528 246 q 363 276 446 246 q 219 307 276 307 q 95 280 149 307 q 42 178 42 253 l 124 161 q 152 203 125 189 q 204 217 179 217 q 353 188 268 217 q 488 156 440 156 q 609 183 557 156 q 661 283 661 210 l 578 303 z "},"≠":{"ha":697,"x_min":42,"x_max":656,"o":"m 42 528 l 54 443 l 333 443 l 256 267 l 42 267 l 54 182 l 218 182 l 131 -14 l 226 -21 l 318 182 l 656 182 l 644 267 l 354 267 l 433 443 l 656 443 l 644 528 l 471 528 l 554 718 l 458 722 l 372 528 l 42 528 z "},"≤":{"ha":464,"x_min":42,"x_max":436,"o":"m 436 585 l 404 668 l 42 446 l 42 368 l 404 147 l 436 232 l 151 408 l 436 585 m 54 0 l 432 0 l 424 83 l 43 83 l 54 0 z "},"≥":{"ha":465,"x_min":28,"x_max":424,"o":"m 28 585 l 313 408 l 28 232 l 60 147 l 424 368 l 424 446 l 60 668 l 28 585 m 40 0 l 418 0 l 408 83 l 29 83 l 40 0 z "},"‰":{"ha":1713,"x_min":46,"x_max":1668,"o":"m 439 -6 l 864 981 l 757 986 l 333 0 l 439 -6 m 265 975 q 156 946 206 975 q 76 863 106 917 q 46 739 46 810 q 107 567 46 629 q 267 504 168 504 q 376 533 326 504 q 456 615 426 563 q 486 739 486 668 q 424 912 486 849 q 265 975 363 975 m 265 889 q 349 851 315 889 q 382 739 382 814 q 348 627 382 664 q 267 590 314 590 q 182 628 215 590 q 149 740 149 665 q 183 851 149 814 q 265 889 218 889 m 935 469 q 823 440 874 469 q 743 358 772 411 q 714 235 714 306 q 776 63 714 125 q 935 0 838 0 q 1044 29 994 0 q 1124 111 1094 58 q 1153 235 1153 164 q 1092 407 1153 344 q 935 469 1031 469 m 1447 469 q 1336 440 1386 469 q 1257 358 1286 411 q 1228 235 1228 306 q 1289 63 1228 125 q 1449 0 1350 0 q 1558 29 1508 0 q 1638 111 1608 58 q 1668 235 1668 164 q 1607 407 1668 344 q 1447 469 1546 469 m 935 385 q 1017 347 983 385 q 1050 235 1050 308 q 1016 123 1050 161 q 935 85 982 85 q 851 123 885 85 q 817 236 817 161 q 851 348 817 311 q 935 385 886 385 m 1447 385 q 1531 347 1497 385 q 1565 235 1565 308 q 1531 123 1565 161 q 1449 85 1496 85 q 1365 123 1399 85 q 1331 236 1331 161 q 1365 348 1331 311 q 1447 385 1400 385 z "},"⁄":{"ha":558,"x_min":14,"x_max":544,"o":"m 119 -6 l 544 981 l 439 986 l 14 0 l 119 -6 z "},"◊":{"ha":743,"x_min":42,"x_max":701,"o":"m 701 432 l 393 832 l 350 832 l 42 432 l 42 401 l 350 0 l 393 0 l 701 401 l 701 432 m 371 122 l 149 415 l 371 713 l 596 415 l 371 122 z "},"©":{"ha":1110,"x_min":46,"x_max":1065,"o":"m 1065 467 q 1003 722 1065 607 q 824 905 940 838 q 556 972 708 972 q 287 905 403 972 q 108 722 171 838 q 46 467 46 607 q 109 211 46 326 q 288 29 172 96 q 556 -37 403 -37 q 824 29 708 -37 q 1002 211 939 96 q 1065 467 1065 326 m 136 468 q 188 688 136 590 q 334 840 239 785 q 556 896 429 896 q 778 840 682 896 q 925 688 874 785 q 976 468 976 590 q 925 249 976 346 q 778 96 874 151 q 556 40 682 40 q 334 96 429 40 q 188 249 239 151 q 136 468 136 346 m 575 146 q 681 162 621 146 q 779 206 740 178 l 746 285 q 664 248 696 258 q 575 238 632 238 q 430 297 475 238 q 385 475 385 357 q 434 640 385 578 q 579 703 483 703 q 669 693 638 703 q 751 657 700 683 l 785 738 q 688 781 747 765 q 581 796 628 796 q 417 755 486 796 q 310 641 347 714 q 274 474 274 568 q 352 236 274 326 q 575 146 431 146 z "},"®":{"ha":989,"x_min":46,"x_max":944,"o":"m 944 676 q 890 903 944 801 q 733 1064 835 1006 q 496 1122 631 1122 q 258 1064 360 1122 q 101 903 156 1006 q 46 676 46 801 q 101 451 46 553 q 258 292 156 350 q 496 233 360 233 q 733 292 631 233 q 890 451 835 350 q 944 676 944 553 m 129 678 q 174 870 129 786 q 301 1001 218 954 q 496 1049 383 1049 q 690 1001 607 1049 q 817 869 772 954 q 861 678 861 785 q 817 488 861 572 q 690 356 772 404 q 496 307 607 307 q 301 356 383 307 q 174 488 218 404 q 129 678 129 572 m 589 657 q 653 709 629 675 q 678 793 678 743 q 626 908 678 871 q 485 944 574 944 l 332 944 l 332 422 l 415 422 l 415 636 l 469 636 q 508 638 499 636 l 624 422 l 719 422 l 589 657 m 463 876 q 560 861 529 876 q 592 790 592 846 q 556 721 592 739 q 457 703 521 703 l 415 703 l 415 876 l 463 876 z "},"™":{"ha":1014,"x_min":14,"x_max":956,"o":"m 14 874 l 174 874 l 174 425 l 261 425 l 261 874 l 425 874 l 417 944 l 14 944 l 14 874 m 871 425 l 956 425 l 956 944 l 917 944 l 731 683 l 533 944 l 497 944 l 497 425 l 583 425 l 583 753 l 719 563 l 742 567 l 871 750 l 871 425 z "},"&":{"ha":928,"x_min":60,"x_max":883,"o":"m 769 175 q 838 453 829 288 l 749 488 q 689 246 738 342 l 415 503 q 306 620 336 576 q 275 725 275 664 q 317 829 275 785 q 429 874 360 874 q 516 863 482 874 q 576 840 550 853 q 613 824 603 828 l 651 908 q 544 951 596 936 q 429 967 493 967 q 289 933 349 967 q 198 842 229 899 q 167 717 167 785 q 210 575 167 638 q 102 455 143 531 q 60 292 61 379 q 106 124 60 193 q 234 19 153 54 q 417 -18 315 -17 q 713 97 606 -18 l 825 -6 l 883 71 l 769 175 m 636 168 q 417 78 557 78 q 243 133 315 78 q 171 294 171 189 q 199 419 172 364 q 274 504 226 474 q 325 453 288 488 l 636 168 z "},"@":{"ha":1061,"x_min":46,"x_max":1017,"o":"m 618 576 q 465 542 536 576 q 349 443 393 507 q 306 297 306 379 q 364 146 306 201 q 536 90 422 90 q 604 103 569 90 q 667 133 639 115 q 779 89 707 89 q 953 175 889 89 q 1017 424 1017 261 q 962 631 1017 539 q 809 776 907 724 q 586 828 711 828 q 301 757 424 828 q 112 565 178 686 q 46 300 46 444 q 109 69 46 171 q 275 -90 172 -33 q 493 -146 378 -146 q 764 -87 651 -146 l 736 -6 q 630 -42 692 -29 q 508 -54 568 -54 q 328 -11 410 -54 q 198 113 246 32 q 150 301 150 194 q 210 533 150 432 q 369 688 269 633 q 583 742 468 742 q 762 700 685 742 q 881 584 839 658 q 922 414 922 510 q 885 239 922 304 q 789 174 847 174 q 738 193 760 174 q 721 254 717 213 l 754 535 l 719 576 l 618 576 m 535 174 q 440 210 471 174 q 408 297 408 247 q 437 406 408 360 q 513 476 465 451 q 618 500 561 500 l 661 500 l 631 263 q 629 243 629 256 q 632 218 629 232 q 592 185 618 197 q 535 174 567 174 z "},"^":{"ha":586,"x_min":14,"x_max":572,"o":"m 572 199 l 338 542 l 249 542 l 14 199 l 124 199 l 293 449 l 463 199 l 572 199 z "},"~":{"ha":565,"x_min":42,"x_max":524,"o":"m 129 274 q 189 329 135 329 q 276 300 226 329 q 382 269 325 269 q 484 306 444 269 q 524 422 524 342 l 433 422 q 415 378 432 392 q 375 364 399 364 q 293 394 339 364 q 183 425 249 425 q 81 389 119 425 q 42 274 42 353 l 129 274 z "},"§":{"ha":796,"x_min":60,"x_max":750,"o":"m 750 347 q 726 244 750 292 q 656 164 701 197 q 668 83 668 128 q 628 -45 668 11 q 513 -133 589 -101 q 335 -165 438 -165 q 193 -146 274 -165 q 75 -101 113 -126 l 101 -15 q 209 -55 146 -37 q 333 -72 272 -72 q 501 -30 442 -72 q 560 82 560 13 q 532 167 560 131 q 452 233 504 203 q 310 301 400 263 q 120 423 181 357 q 60 583 60 489 q 85 684 60 638 q 156 763 110 731 q 142 847 142 800 q 179 968 142 914 q 285 1053 217 1022 q 444 1085 354 1085 q 572 1068 508 1085 q 686 1026 635 1051 l 649 940 q 557 976 601 964 q 450 989 513 989 q 303 951 358 989 q 249 849 249 914 q 276 763 249 799 q 354 698 304 728 q 501 624 404 668 q 692 504 633 564 q 750 347 750 444 m 418 360 q 527 304 483 331 q 600 249 571 278 q 642 346 642 289 q 614 431 642 394 q 534 497 586 467 q 392 565 482 526 q 210 679 267 619 q 167 585 167 643 q 194 499 167 535 q 272 434 221 464 q 418 360 322 404 z "},"ª":{"ha":460,"x_min":46,"x_max":415,"o":"m 94 863 q 124 874 100 865 q 172 888 147 883 q 224 893 197 893 q 297 867 272 893 q 322 797 322 840 l 322 782 l 214 782 q 92 746 139 782 q 46 646 46 710 q 90 544 46 585 q 206 504 135 504 q 276 522 242 504 q 335 563 311 539 l 354 517 l 415 517 l 415 807 q 391 890 415 851 q 322 952 367 929 q 222 975 278 975 q 144 963 190 975 q 75 935 99 951 l 94 863 m 136 647 q 163 695 136 678 q 228 713 189 713 l 324 713 l 324 649 q 269 603 300 621 q 207 585 239 585 q 156 603 175 585 q 136 647 136 622 z "},"¬":{"ha":714,"x_min":14,"x_max":672,"o":"m 25 476 l 574 476 l 574 163 l 672 156 l 672 494 l 661 564 l 14 564 l 25 476 z "},"¶":{"ha":1163,"x_min":46,"x_max":1118,"o":"m 872 858 l 872 0 l 982 0 l 982 858 l 1118 858 l 1118 944 l 393 944 q 140 874 233 944 q 46 656 46 804 q 148 433 46 508 q 408 357 250 357 l 457 357 l 457 0 l 567 0 l 567 858 l 872 858 z "},"º":{"ha":532,"x_min":46,"x_max":488,"o":"m 265 975 q 107 910 168 975 q 46 739 46 846 q 105 567 46 629 q 264 504 164 504 q 424 568 361 504 q 488 739 488 632 q 427 912 488 849 q 265 975 367 975 m 265 892 q 351 853 318 892 q 385 739 385 814 q 349 624 385 663 q 264 586 314 586 q 180 626 214 586 q 146 739 146 665 q 181 853 146 815 q 265 892 217 892 z "},"Ģ":{"ha":871,"x_min":60,"x_max":799,"o":"m 693 104 q 532 76 615 76 q 349 124 431 76 q 222 261 268 172 q 175 468 175 350 q 227 683 175 592 q 365 822 279 774 q 549 869 450 869 q 653 860 613 869 q 749 831 693 851 l 783 910 q 670 949 743 935 q 546 964 597 964 q 299 901 410 964 q 124 724 188 838 q 60 467 60 611 q 118 219 60 329 q 284 44 176 108 q 533 -19 392 -19 q 678 -1 603 -19 q 797 46 753 18 l 799 486 l 494 486 l 485 404 l 693 404 l 693 104 m 535 -29 q 482 -52 504 -29 q 460 -106 460 -75 q 478 -156 460 -133 q 524 -179 497 -178 q 446 -281 518 -236 l 475 -333 q 572 -244 532 -306 q 611 -117 611 -182 q 589 -53 611 -78 q 535 -29 567 -29 z "},"Ķ":{"ha":846,"x_min":129,"x_max":832,"o":"m 239 342 l 239 0 l 129 0 l 129 944 l 239 944 l 239 486 l 694 965 l 769 900 l 418 532 l 832 0 l 700 0 l 346 454 l 239 342 m 471 -29 q 418 -52 440 -29 q 396 -106 396 -75 q 415 -156 396 -133 q 460 -179 433 -178 q 382 -281 454 -236 l 411 -333 q 508 -244 468 -306 q 547 -117 547 -182 q 525 -53 547 -78 q 471 -29 503 -29 z "},"Ļ":{"ha":703,"x_min":129,"x_max":689,"o":"m 239 944 l 129 944 l 129 0 l 689 0 l 678 88 l 239 88 l 239 944 m 479 -29 q 426 -52 449 -29 q 404 -106 404 -75 q 423 -156 404 -133 q 468 -179 442 -178 q 390 -281 463 -236 l 419 -333 q 516 -244 476 -306 q 556 -117 556 -182 q 533 -53 556 -78 q 479 -29 511 -29 z "},"Ņ":{"ha":972,"x_min":129,"x_max":844,"o":"m 275 679 l 756 0 l 844 0 l 844 944 l 733 944 l 733 213 l 676 306 l 217 944 l 129 944 l 129 0 l 239 0 l 239 742 l 275 679 m 497 -29 q 444 -52 467 -29 q 422 -106 422 -75 q 441 -156 422 -133 q 486 -179 460 -178 q 408 -281 481 -236 l 438 -333 q 534 -244 494 -306 q 574 -117 574 -182 q 551 -53 574 -78 q 497 -29 529 -29 z "},"Ŗ":{"ha":822,"x_min":129,"x_max":808,"o":"m 239 0 l 239 388 l 372 388 q 471 393 421 388 l 688 0 l 808 0 l 568 422 q 689 516 644 454 q 735 669 733 578 q 640 878 735 811 q 386 944 546 944 l 129 944 l 129 0 l 239 0 m 388 851 q 561 810 500 851 q 622 665 622 769 q 553 522 621 565 q 376 478 486 478 l 239 478 l 239 851 l 388 851 m 454 -29 q 401 -52 424 -29 q 379 -106 379 -75 q 398 -156 379 -133 q 443 -179 417 -178 q 365 -281 438 -236 l 394 -333 q 491 -244 451 -306 q 531 -117 531 -182 q 508 -53 531 -78 q 454 -29 486 -29 z "},"Ț":{"ha":782,"x_min":14,"x_max":768,"o":"m 14 858 l 331 858 l 331 0 l 442 0 l 442 858 l 768 858 l 756 944 l 14 944 l 14 858 m 393 -29 q 340 -52 363 -29 q 318 -106 318 -75 q 337 -156 318 -133 q 382 -179 356 -178 q 304 -281 376 -236 l 333 -333 q 430 -244 390 -306 q 469 -117 469 -182 q 447 -53 469 -78 q 393 -29 425 -29 z "},"ģ":{"ha":731,"x_min":46,"x_max":636,"o":"m 365 778 q 312 802 333 778 q 290 867 290 826 q 329 992 290 932 q 425 1082 368 1053 l 454 1029 q 376 928 383 986 q 421 903 401 925 q 440 854 440 881 q 418 801 440 824 q 365 778 396 778 m 636 -74 q 600 -200 636 -144 q 494 -287 564 -256 q 332 -319 425 -319 q 212 -302 285 -319 q 97 -258 139 -285 l 131 -178 q 227 -217 185 -204 q 328 -229 269 -229 q 470 -189 415 -229 q 525 -72 525 -149 l 525 35 q 445 -4 488 10 q 367 -18 403 -18 q 131 80 217 -18 q 46 340 46 178 q 85 523 46 443 q 198 647 125 603 q 369 692 271 692 q 458 674 411 692 q 546 625 506 656 l 569 674 l 636 674 l 636 -74 m 365 75 q 453 91 415 75 q 525 140 492 107 l 525 539 q 367 599 458 599 q 213 527 267 599 q 157 342 158 456 q 210 148 157 221 q 365 75 264 75 z "},"ķ":{"ha":656,"x_min":101,"x_max":656,"o":"m 304 346 l 526 0 l 656 0 l 378 418 l 583 622 l 517 692 l 211 385 l 211 981 l 101 967 l 101 0 l 211 0 l 211 253 l 304 346 m 367 -29 q 314 -52 336 -29 q 292 -106 292 -75 q 310 -156 292 -133 q 356 -179 329 -178 q 278 -281 350 -236 l 307 -333 q 403 -244 364 -306 q 443 -117 443 -182 q 421 -53 443 -78 q 367 -29 399 -29 z "},"ļ":{"ha":311,"x_min":69,"x_max":235,"o":"m 101 967 l 101 0 l 211 0 l 211 981 l 101 967 m 158 -29 q 106 -52 128 -29 q 83 -106 83 -75 q 102 -156 83 -133 q 147 -179 121 -178 q 69 -281 142 -236 l 99 -333 q 195 -244 156 -306 q 235 -117 235 -182 q 213 -53 235 -78 q 158 -29 190 -29 z "},"ņ":{"ha":735,"x_min":88,"x_max":653,"o":"m 197 478 q 309 565 246 531 q 422 600 372 600 q 515 558 488 600 q 543 442 543 517 l 543 1 l 653 1 l 653 457 q 601 630 653 565 q 442 694 549 694 q 307 661 378 694 q 188 578 236 628 l 169 674 l 88 674 l 88 0 l 197 0 l 197 478 m 382 -29 q 329 -52 351 -29 q 307 -106 307 -75 q 326 -156 307 -133 q 371 -179 344 -178 q 293 -281 365 -236 l 322 -333 q 419 -244 379 -306 q 458 -117 458 -182 q 436 -53 458 -78 q 382 -29 414 -29 z "},"ŗ":{"ha":450,"x_min":57,"x_max":436,"o":"m 197 464 q 313 549 244 513 q 436 586 381 586 l 410 674 q 297 639 361 674 q 188 565 233 604 l 153 674 l 88 674 l 88 0 l 197 0 l 197 464 m 146 -29 q 93 -52 115 -29 q 71 -106 71 -75 q 90 -156 71 -133 q 135 -179 108 -178 q 57 -281 129 -236 l 86 -333 q 183 -244 143 -306 q 222 -117 222 -182 q 200 -53 222 -78 q 146 -29 178 -29 z "},"ț":{"ha":444,"x_min":22,"x_max":413,"o":"m 231 865 l 121 835 l 121 663 l 22 663 l 24 579 l 121 579 l 121 175 q 172 30 121 81 q 310 -21 222 -21 q 413 3 363 -21 l 388 89 q 326 75 353 75 q 254 106 278 75 q 231 190 231 136 l 231 579 l 389 579 l 353 663 l 231 663 l 231 865 m 269 -29 q 217 -52 239 -29 q 194 -106 194 -75 q 213 -156 194 -133 q 258 -179 232 -178 q 181 -281 253 -236 l 210 -333 q 306 -244 267 -306 q 346 -117 346 -182 q 324 -53 346 -78 q 269 -29 301 -29 z "},"அ":{"ha":1483,"x_min":46,"x_max":1354,"o":"m 1354 -175 l 1256 -175 l 1256 96 l 996 96 q 788 -121 929 -42 q 457 -200 646 -200 q 244 -169 338 -200 q 98 -85 150 -139 q 46 36 46 -31 q 89 136 46 99 q 211 174 132 174 l 915 174 q 939 319 939 242 q 903 490 939 415 q 801 608 868 565 q 644 651 735 651 q 503 621 564 651 q 619 572 574 617 q 664 460 664 528 q 614 338 664 386 q 486 290 564 290 q 356 338 408 290 q 304 457 304 385 q 349 601 304 536 q 472 701 394 665 q 644 738 550 738 q 855 684 764 738 q 995 535 946 631 q 1044 319 1044 440 q 1025 174 1044 244 l 1256 174 l 1256 713 l 1354 713 l 1354 -175 m 571 457 q 547 518 571 494 q 485 542 522 542 q 422 518 447 542 q 397 457 397 494 q 422 397 397 421 q 483 372 446 372 q 547 397 522 372 q 571 457 571 421 m 457 -114 q 709 -58 600 -114 q 879 96 818 -3 l 214 96 q 150 36 150 96 q 189 -37 150 -3 q 298 -93 228 -72 q 457 -114 368 -114 z "},"ஆ":{"ha":1769,"x_min":46,"x_max":1756,"o":"m 1515 136 q 1690 68 1624 136 q 1756 -110 1756 0 q 1689 -323 1756 -229 q 1503 -470 1622 -417 q 1232 -524 1383 -524 q 1067 -498 1140 -524 q 953 -426 994 -472 q 913 -322 913 -381 q 964 -207 913 -251 q 1097 -162 1015 -162 l 1126 -162 l 1126 -240 l 1097 -240 q 1039 -263 1061 -240 q 1017 -322 1017 -286 q 1077 -406 1017 -372 q 1232 -439 1138 -439 q 1448 -397 1353 -439 q 1597 -279 1543 -354 q 1650 -110 1650 -204 q 1612 4 1650 -42 q 1508 50 1574 50 q 1397 2 1440 50 q 1354 -119 1354 -46 l 1354 -175 l 1256 -175 l 1256 96 l 996 96 q 788 -121 929 -42 q 457 -200 646 -200 q 244 -169 338 -200 q 98 -85 150 -139 q 46 36 46 -31 q 89 136 46 99 q 211 174 132 174 l 915 174 q 939 319 939 242 q 903 490 939 415 q 801 608 868 565 q 644 651 735 651 q 503 621 564 651 q 619 572 574 617 q 664 460 664 528 q 614 338 664 386 q 486 290 564 290 q 356 338 408 290 q 304 457 304 385 q 349 601 304 536 q 472 701 394 665 q 644 738 550 738 q 855 684 764 738 q 995 535 946 631 q 1044 319 1044 440 q 1025 174 1044 244 l 1256 174 l 1256 713 l 1354 713 l 1354 69 q 1515 136 1418 136 m 571 457 q 547 518 571 494 q 485 542 522 542 q 422 518 447 542 q 397 457 397 494 q 422 397 397 421 q 483 372 446 372 q 547 397 522 372 q 571 457 571 421 m 457 -114 q 709 -58 600 -114 q 879 96 818 -3 l 214 96 q 150 36 150 96 q 189 -37 150 -3 q 298 -93 228 -72 q 457 -114 368 -114 z "},"ஐ":{"ha":1147,"x_min":74,"x_max":1074,"o":"m 1001 140 q 1042 40 1029 86 q 1054 -57 1054 -6 q 1022 -174 1054 -122 q 932 -256 989 -226 q 804 -285 875 -285 q 674 -255 731 -285 q 582 -172 617 -225 q 486 -255 546 -225 q 349 -285 426 -285 q 207 -253 269 -285 q 109 -166 144 -222 q 74 -39 74 -110 q 162 153 74 81 q 449 253 250 226 l 699 286 q 901 360 835 306 q 969 496 968 415 q 929 608 969 564 q 824 651 889 651 q 701 601 750 651 q 651 476 651 551 l 651 381 l 553 381 l 553 476 q 499 601 553 551 q 365 651 446 651 q 228 604 282 651 l 239 604 q 346 566 304 604 q 388 468 388 528 q 345 365 388 406 q 238 324 303 324 q 127 365 171 324 q 83 472 83 407 q 119 606 83 546 q 220 702 156 667 q 365 738 285 738 q 600 615 515 738 q 824 738 683 738 q 954 707 897 738 q 1042 622 1011 676 q 1074 496 1074 567 q 981 304 1074 382 q 699 201 888 226 l 449 167 q 240 96 303 147 q 178 -42 178 44 q 226 -155 178 -110 q 349 -200 275 -200 q 480 -149 428 -200 q 532 -24 532 -99 l 532 72 l 631 72 l 631 -24 q 680 -149 631 -99 q 804 -200 729 -200 q 911 -158 872 -200 q 950 -54 950 -117 q 937 35 950 -17 q 901 132 924 88 l 1001 140 m 240 533 q 188 514 208 533 q 167 464 167 494 q 188 415 167 435 q 239 396 208 396 q 289 415 269 396 q 310 464 308 435 q 290 514 310 494 q 240 533 271 533 z "},"ஔ":{"ha":2828,"x_min":69,"x_max":2814,"o":"m 746 185 q 789 69 746 108 q 915 29 832 29 l 1011 29 l 1011 -49 l 915 -49 q 839 -42 878 -49 l 839 -69 q 806 -191 839 -137 q 712 -274 772 -244 q 574 -304 651 -304 q 431 -274 493 -304 q 335 -191 369 -244 q 301 -69 301 -137 l 301 0 l 400 0 l 400 -69 q 448 -176 400 -135 q 574 -218 496 -218 q 699 -177 651 -218 q 746 -69 746 -136 l 746 -3 q 678 77 701 29 q 656 185 656 125 l 656 374 l 746 374 q 778 285 747 319 q 857 250 808 250 q 931 288 904 250 q 957 388 957 325 q 906 525 957 464 q 765 621 854 586 q 564 656 675 656 q 370 624 457 656 q 229 538 283 593 q 164 411 175 483 q 293 472 211 472 q 419 426 369 472 q 468 308 468 381 q 417 188 468 235 q 288 142 367 142 q 175 172 225 142 q 97 254 125 201 q 69 374 69 307 q 133 563 69 479 q 308 694 196 647 q 564 742 421 742 q 819 696 706 742 q 997 569 933 650 q 1061 388 1061 489 q 1005 226 1061 288 q 857 164 949 164 q 746 199 793 164 l 746 185 m 289 393 q 227 369 251 393 q 203 308 203 346 q 226 247 203 271 q 286 224 250 224 l 288 224 q 349 247 325 224 q 375 308 374 271 q 351 369 375 346 q 289 393 326 393 m 2553 635 l 2553 0 l 2454 0 l 2454 635 l 2107 635 l 2107 0 l 2008 0 l 2008 317 q 1963 489 2008 413 q 1840 608 1918 565 q 1664 651 1761 651 q 1478 610 1557 651 q 1358 497 1400 569 q 1315 329 1315 424 q 1385 133 1315 207 q 1374 197 1374 167 q 1403 312 1374 261 q 1484 391 1432 363 q 1600 419 1536 419 q 1723 391 1668 419 q 1808 312 1778 363 q 1839 197 1839 261 q 1808 84 1839 135 q 1721 4 1776 33 q 1596 -25 1665 -25 q 1391 22 1478 -25 q 1258 149 1304 68 q 1211 329 1211 229 q 1267 540 1211 447 q 1425 685 1322 633 q 1664 738 1528 738 q 1861 692 1771 738 q 2008 567 1951 647 l 2008 713 l 2803 713 l 2814 635 l 2553 635 m 1600 340 q 1497 300 1538 340 q 1457 197 1457 260 q 1497 94 1457 135 q 1600 54 1538 54 q 1703 94 1663 54 q 1744 197 1744 135 q 1703 300 1744 260 q 1600 340 1663 340 z "},"ச":{"ha":949,"x_min":60,"x_max":904,"o":"m 663 336 l 663 285 q 623 123 663 193 q 509 14 583 53 q 336 -25 435 -25 q 192 3 256 -25 q 94 82 129 32 q 60 194 60 132 q 103 322 60 268 q 228 399 147 376 l 228 713 l 892 713 l 904 635 l 663 635 l 663 414 l 892 414 l 904 336 l 663 336 m 344 414 l 564 414 l 564 635 l 326 635 l 326 414 l 344 414 m 347 336 q 212 298 260 336 q 164 194 164 260 q 211 99 164 136 q 336 61 258 61 q 503 122 443 61 q 564 285 564 182 l 564 336 l 347 336 z "},"எ":{"ha":1203,"x_min":74,"x_max":1189,"o":"m 928 635 l 928 0 l 828 0 l 828 635 l 540 635 q 268 553 358 635 q 178 329 178 471 q 247 133 178 207 q 236 197 236 167 q 265 312 236 261 q 347 391 294 363 q 463 419 399 419 q 585 391 531 419 q 671 312 640 363 q 701 197 701 261 q 670 84 701 135 q 583 4 639 33 q 458 -25 528 -25 q 253 22 340 -25 q 120 149 167 68 q 74 329 74 229 q 124 529 74 443 q 277 664 175 615 q 528 713 379 713 l 1178 713 l 1189 635 l 928 635 m 463 340 q 360 300 400 340 q 319 197 319 260 q 360 94 319 135 q 463 54 400 54 q 566 94 525 54 q 607 197 607 135 q 566 300 607 260 q 463 340 525 340 z "},"ஏ":{"ha":1203,"x_min":74,"x_max":1189,"o":"m 928 635 l 928 24 q 910 -107 928 -62 q 832 -172 892 -151 l 354 -347 l 315 -275 l 757 -108 q 815 -60 801 -93 q 828 46 828 -26 l 828 635 l 540 635 q 268 553 358 635 q 178 329 178 471 q 247 133 178 207 q 236 197 236 167 q 265 312 236 261 q 347 391 294 363 q 463 419 399 419 q 585 391 531 419 q 671 312 640 363 q 701 197 701 261 q 670 84 701 135 q 583 4 639 33 q 458 -25 528 -25 q 253 22 340 -25 q 120 149 167 68 q 74 329 74 229 q 124 529 74 443 q 277 664 175 615 q 528 713 379 713 l 1178 713 l 1189 635 l 928 635 m 463 340 q 360 300 400 340 q 319 197 319 260 q 360 94 319 135 q 463 54 400 54 q 566 94 525 54 q 607 197 607 135 q 566 300 607 260 q 463 340 525 340 z "},"ஹ":{"ha":2193,"x_min":74,"x_max":2121,"o":"m 1814 738 q 2041 623 1961 738 q 2121 321 2121 508 q 2067 31 2121 157 q 1908 -165 2013 -94 q 1657 -236 1804 -236 l 378 -236 q 153 -337 219 -236 l 74 -294 q 183 -196 107 -233 q 368 -158 260 -158 l 1657 -158 q 1924 -27 1832 -158 q 2017 321 2017 104 q 1967 560 2017 471 q 1817 650 1918 650 q 1704 605 1746 650 q 1663 467 1663 560 l 1663 0 l 1564 0 l 1564 435 q 1524 592 1564 532 q 1406 651 1483 651 q 1298 602 1333 651 q 1263 450 1263 553 l 1263 0 l 767 0 l 768 79 q 838 203 813 133 q 864 354 864 274 q 822 508 864 440 q 705 613 781 575 q 532 651 629 651 q 343 610 424 651 q 220 497 263 569 q 178 329 178 424 q 247 133 178 207 q 236 197 236 167 q 265 312 236 261 q 347 391 294 363 q 463 419 399 419 q 585 391 531 419 q 671 312 640 363 q 701 197 701 261 q 670 84 701 135 q 583 4 639 33 q 458 -25 528 -25 q 253 22 340 -25 q 120 149 167 68 q 74 329 74 229 q 130 540 74 447 q 290 685 186 633 q 532 738 393 738 q 758 688 658 738 q 914 551 858 639 q 969 354 969 464 q 947 208 969 279 q 883 79 924 136 l 1164 79 l 1164 450 q 1226 663 1164 589 q 1406 738 1288 738 q 1522 707 1471 738 q 1604 621 1572 676 q 1690 707 1635 676 q 1814 738 1744 738 m 463 340 q 360 300 400 340 q 319 197 319 260 q 360 94 319 135 q 463 54 400 54 q 566 94 525 54 q 607 197 607 135 q 566 300 607 260 q 463 340 525 340 z "},"இ":{"ha":1447,"x_min":46,"x_max":1318,"o":"m 749 988 q 1040 923 910 988 q 1244 743 1169 858 q 1318 479 1318 628 l 1318 -206 l 1219 -206 l 1219 476 q 1158 698 1219 601 q 990 848 1097 794 q 749 901 883 901 q 494 849 606 901 q 319 700 382 797 q 257 472 257 603 q 332 172 257 315 q 592 211 453 211 q 813 178 711 211 q 885 432 885 304 q 830 590 885 529 q 679 651 775 651 q 542 621 600 651 l 549 621 q 672 575 624 621 q 721 460 721 529 q 671 338 721 386 q 543 290 621 290 q 413 338 464 290 q 361 457 361 385 q 401 601 361 538 q 513 701 440 665 q 679 738 585 738 q 842 699 772 738 q 951 590 913 660 q 989 432 989 521 q 904 140 989 290 q 1045 28 993 94 q 1097 -119 1097 -39 q 1041 -233 1097 -190 q 892 -275 985 -275 q 563 -189 724 -275 q 250 -275 401 -275 q 102 -233 158 -275 q 46 -119 46 -190 q 97 24 46 -42 q 240 135 149 89 q 153 472 153 294 q 229 743 153 626 q 442 924 306 860 q 749 988 578 988 m 635 457 q 608 523 635 497 q 542 549 582 549 q 474 523 501 549 q 447 457 447 497 q 474 391 447 417 q 540 365 500 365 q 608 391 582 365 q 635 457 635 417 m 592 126 q 379 96 479 126 q 564 -85 453 -11 q 763 101 679 -8 q 592 126 683 126 m 993 -119 q 956 -17 993 -65 q 854 65 918 31 q 650 -133 767 -50 q 892 -189 768 -189 q 966 -170 939 -189 q 993 -119 993 -151 m 250 -189 q 476 -135 361 -189 q 286 58 367 -56 q 186 -22 222 24 q 150 -119 150 -67 q 176 -170 150 -151 q 250 -189 203 -189 z "},"ஈ":{"ha":1046,"x_min":129,"x_max":1032,"o":"m 596 635 l 226 635 l 226 0 l 129 0 l 129 713 l 1019 713 l 1032 635 l 694 635 l 694 0 l 596 0 l 596 635 m 411 244 q 459 264 439 244 q 479 313 479 283 q 459 359 479 339 q 411 379 439 379 q 364 360 383 379 q 344 313 344 340 q 364 264 344 283 q 411 244 383 244 m 878 244 q 926 264 906 244 q 946 313 946 283 q 926 360 946 340 q 878 379 906 379 q 831 360 850 379 q 813 313 813 340 q 831 264 813 283 q 878 244 850 244 z "},"ஜ":{"ha":1147,"x_min":74,"x_max":1074,"o":"m 865 110 q 1017 56 961 110 q 1074 -86 1074 1 q 1042 -185 1074 -142 q 955 -255 1011 -229 q 829 -281 899 -281 l 675 -281 l 675 -203 l 829 -203 q 931 -169 892 -203 q 969 -86 969 -136 q 943 -6 969 -36 q 865 25 917 25 q 760 -8 808 25 q 638 -114 713 -42 q 541 -203 582 -169 q 448 -261 500 -237 q 336 -285 396 -285 q 198 -253 257 -285 q 106 -166 139 -222 q 74 -39 74 -110 q 162 153 74 81 q 449 253 250 226 l 699 286 q 901 360 835 306 q 969 496 968 415 q 929 608 969 564 q 824 651 889 651 q 701 601 750 651 q 651 476 651 551 l 651 381 l 553 381 l 553 476 q 499 601 553 551 q 365 651 446 651 q 228 604 282 651 l 239 604 q 346 566 304 604 q 388 468 388 528 q 345 365 388 406 q 238 324 303 324 q 127 365 171 324 q 83 472 83 407 q 119 606 83 546 q 220 702 156 667 q 365 738 285 738 q 600 615 515 738 q 824 738 683 738 q 954 707 897 738 q 1042 622 1011 676 q 1074 496 1074 567 q 981 304 1074 382 q 699 201 888 226 l 449 167 q 240 96 303 147 q 178 -42 178 44 q 221 -156 178 -111 q 336 -200 264 -200 q 448 -164 396 -200 q 575 -56 500 -128 q 722 67 658 25 q 865 110 786 110 m 240 533 q 188 514 208 533 q 167 464 167 494 q 188 415 167 435 q 239 396 208 396 q 289 415 269 396 q 310 464 308 435 q 290 514 310 494 q 240 533 271 533 z "},"க":{"ha":1043,"x_min":60,"x_max":999,"o":"m 714 414 q 923 353 847 414 q 999 194 999 292 q 963 81 999 131 q 858 3 926 32 q 697 -25 790 -25 l 697 54 q 842 92 792 54 q 893 194 893 131 q 847 297 893 258 q 715 336 801 336 l 663 336 l 663 285 q 623 123 663 193 q 509 14 583 53 q 336 -25 435 -25 q 192 3 256 -25 q 94 82 129 32 q 60 194 60 132 q 103 322 60 268 q 228 399 147 376 l 228 713 l 892 713 l 904 635 l 663 635 l 663 414 l 714 414 m 344 414 l 564 414 l 564 635 l 326 635 l 326 414 l 344 414 m 347 336 q 212 298 260 336 q 164 194 164 260 q 211 99 164 136 q 336 61 258 61 q 503 122 443 61 q 564 285 564 182 l 564 336 l 347 336 z "},"ல":{"ha":1418,"x_min":74,"x_max":1346,"o":"m 1228 732 q 1316 525 1286 636 q 1346 325 1346 414 q 1278 68 1346 161 q 1076 -25 1210 -25 q 882 57 949 -25 q 815 292 815 139 l 815 357 q 733 574 815 496 q 507 651 651 651 q 333 610 407 651 q 218 497 258 569 q 178 332 178 425 q 249 133 178 208 q 238 197 238 167 q 267 310 238 260 q 347 390 296 361 q 463 418 399 418 q 585 390 531 418 q 671 310 640 361 q 701 197 701 260 q 670 84 701 135 q 583 4 639 33 q 458 -25 528 -25 q 253 22 340 -25 q 120 151 167 69 q 74 332 74 232 q 127 540 74 447 q 278 685 181 632 q 507 738 376 738 q 722 691 629 738 q 864 559 814 644 q 914 357 914 474 l 914 292 q 953 120 914 178 q 1078 63 993 63 q 1243 324 1243 63 q 1214 524 1243 413 q 1129 713 1185 635 l 1228 732 m 463 340 q 360 300 400 340 q 319 197 319 260 q 360 94 319 135 q 463 54 400 54 q 566 94 525 54 q 607 197 607 135 q 566 300 607 260 q 463 340 525 340 z "},"ள":{"ha":1690,"x_min":74,"x_max":1676,"o":"m 1415 635 l 1415 0 l 1317 0 l 1317 635 l 969 635 l 969 0 l 871 0 l 871 317 q 826 489 871 413 q 702 608 781 565 q 526 651 624 651 q 341 610 419 651 q 220 497 263 569 q 178 329 178 424 q 247 133 178 207 q 236 197 236 167 q 265 312 236 261 q 347 391 294 363 q 463 419 399 419 q 585 391 531 419 q 671 312 640 363 q 701 197 701 261 q 670 84 701 135 q 583 4 639 33 q 458 -25 528 -25 q 253 22 340 -25 q 120 149 167 68 q 74 329 74 229 q 129 540 74 447 q 288 685 185 633 q 526 738 390 738 q 724 692 633 738 q 871 567 814 647 l 871 713 l 1665 713 l 1676 635 l 1415 635 m 463 340 q 360 300 400 340 q 319 197 319 260 q 360 94 319 135 q 463 54 400 54 q 566 94 525 54 q 607 197 607 135 q 566 300 607 260 q 463 340 525 340 z "},"ழ":{"ha":1151,"x_min":129,"x_max":1079,"o":"m 622 -53 q 644 -135 622 -110 q 710 -160 665 -160 l 936 -160 l 946 -237 l 704 -237 q 597 -369 674 -319 q 424 -419 519 -419 q 235 -356 307 -419 q 164 -189 164 -292 l 263 -189 q 307 -293 263 -253 q 424 -333 351 -333 q 535 -304 486 -333 q 608 -219 583 -275 q 522 -58 522 -181 l 522 0 l 129 0 l 129 713 l 226 719 l 226 79 l 522 79 l 522 464 q 590 667 522 597 q 769 738 657 738 q 937 684 867 738 q 1043 537 1007 631 q 1079 321 1079 443 q 1005 88 1079 175 q 786 0 931 0 l 622 0 l 622 -53 m 786 79 q 929 144 883 79 q 975 321 975 210 q 922 560 975 469 q 772 651 869 651 q 663 606 703 651 q 622 467 622 560 l 622 79 l 786 79 z "},"ம":{"ha":1151,"x_min":129,"x_max":1079,"o":"m 769 738 q 937 684 867 738 q 1043 537 1007 631 q 1079 321 1079 443 q 1005 88 1079 175 q 786 0 931 0 l 129 0 l 129 713 l 226 719 l 226 79 l 522 79 l 522 464 q 590 667 522 597 q 769 738 657 738 m 786 79 q 929 144 883 79 q 975 321 975 210 q 922 560 975 469 q 772 651 869 651 q 663 606 703 651 q 622 467 622 560 l 622 79 l 786 79 z "},"ந":{"ha":1063,"x_min":129,"x_max":990,"o":"m 738 492 q 923 402 856 492 q 990 169 990 313 q 947 -41 990 51 q 819 -185 903 -133 q 622 -236 736 -236 l 433 -236 q 208 -337 275 -236 l 129 -294 q 239 -196 163 -233 q 424 -158 315 -158 l 622 -158 q 817 -68 747 -158 q 886 169 886 22 q 848 342 886 278 q 735 407 810 407 q 621 356 665 407 q 576 225 576 304 l 576 0 l 478 0 l 478 635 l 226 635 l 226 0 l 129 0 l 129 713 l 828 713 l 839 635 l 576 635 l 576 422 q 647 474 606 456 q 738 492 689 492 z "},"ங":{"ha":1361,"x_min":129,"x_max":1233,"o":"m 1233 0 l 478 0 l 478 79 l 667 79 q 821 132 768 79 q 874 272 874 185 q 837 384 874 340 q 735 428 800 428 q 620 380 664 428 q 576 258 576 332 l 576 211 l 478 211 l 478 635 l 226 635 l 226 0 l 129 0 l 129 713 l 828 713 l 839 635 l 576 635 l 576 449 q 651 496 608 479 q 742 513 693 513 q 914 446 850 513 q 978 272 978 379 q 890 79 978 150 l 1135 79 l 1135 713 l 1233 713 l 1233 0 z "},"ண":{"ha":2358,"x_min":74,"x_max":2344,"o":"m 2082 635 l 2082 0 l 1983 0 l 1983 635 l 1847 635 q 1647 592 1738 635 q 1748 435 1713 525 q 1783 242 1783 346 q 1722 49 1783 122 q 1557 -25 1661 -25 q 1390 49 1451 -25 q 1329 242 1329 122 q 1373 438 1329 346 q 1494 593 1417 529 q 1283 651 1401 651 q 1068 593 1161 651 q 1194 435 1150 525 q 1239 242 1239 344 q 1178 49 1239 122 q 1011 -25 1117 -25 q 844 49 906 -25 q 783 242 783 122 q 817 431 783 343 q 915 588 851 519 q 632 651 792 651 q 393 608 496 651 q 234 489 290 565 q 178 317 178 413 q 250 126 178 197 q 236 197 236 158 q 265 312 236 261 q 347 391 294 363 q 463 419 399 419 q 585 391 531 419 q 671 312 640 363 q 701 197 701 261 q 670 84 701 135 q 583 4 639 33 q 458 -25 528 -25 q 253 19 340 -25 q 120 142 167 64 q 74 317 74 219 q 143 533 74 438 q 340 683 213 629 q 632 738 467 738 q 988 649 836 738 q 1283 738 1114 738 q 1579 649 1451 738 q 1847 713 1700 713 l 2332 713 l 2344 635 l 2082 635 m 1679 242 q 1649 406 1679 331 q 1564 538 1619 482 q 1467 407 1501 483 q 1433 242 1433 331 q 1465 111 1433 161 q 1557 61 1497 61 q 1647 111 1615 61 q 1679 242 1679 161 m 1135 242 q 1099 404 1135 329 q 996 535 1063 479 q 915 404 943 479 q 888 242 888 329 q 920 111 888 161 q 1011 61 953 61 q 1103 111 1071 61 q 1135 242 1135 161 m 319 197 q 360 94 319 135 q 463 54 400 54 q 566 94 525 54 q 607 197 607 135 q 566 300 607 260 q 463 340 525 340 q 360 300 400 340 q 319 197 319 260 z "},"ன":{"ha":1813,"x_min":74,"x_max":1799,"o":"m 1538 635 l 1538 0 l 1438 0 l 1438 635 l 1301 635 q 1082 582 1181 635 q 1198 427 1157 514 q 1239 242 1239 340 q 1178 49 1239 122 q 1011 -25 1117 -25 q 844 49 906 -25 q 783 242 783 122 q 822 427 783 340 q 932 578 861 514 q 632 651 807 651 q 393 608 496 651 q 234 489 290 565 q 178 317 178 413 q 250 126 178 197 q 236 197 236 158 q 265 312 236 261 q 347 391 294 363 q 463 419 399 419 q 585 391 531 419 q 671 312 640 363 q 701 197 701 261 q 670 84 701 135 q 583 4 639 33 q 458 -25 528 -25 q 253 19 340 -25 q 120 142 167 64 q 74 317 74 219 q 143 533 74 438 q 340 683 213 629 q 632 738 467 738 q 836 711 740 738 q 1010 636 932 685 q 1301 713 1139 713 l 1788 713 l 1799 635 l 1538 635 m 1135 242 q 1101 399 1135 326 q 1006 526 1068 472 q 918 400 949 472 q 888 242 888 328 q 920 111 888 161 q 1011 61 953 61 q 1103 111 1071 61 q 1135 242 1135 161 m 319 197 q 360 94 319 135 q 463 54 400 54 q 566 94 525 54 q 607 197 607 135 q 566 300 607 260 q 463 340 525 340 q 360 300 400 340 q 319 197 319 260 z "},"ஞ":{"ha":1714,"x_min":101,"x_max":1640,"o":"m 1388 492 q 1574 406 1508 492 q 1640 183 1640 319 q 1549 -105 1640 17 q 1291 -291 1458 -226 q 901 -356 1124 -356 q 479 -283 660 -356 q 200 -73 299 -210 q 101 250 101 64 q 158 513 101 381 q 303 726 214 644 l 404 713 q 261 513 317 640 q 206 247 206 385 q 291 -30 206 86 q 533 -208 376 -146 q 901 -269 690 -269 q 1238 -216 1094 -269 q 1458 -61 1381 -162 q 1536 183 1536 40 q 1500 346 1536 285 q 1385 407 1464 407 q 1272 356 1317 407 q 1226 225 1226 304 l 1226 0 l 1129 0 l 1129 635 l 878 635 q 604 553 694 635 q 514 329 514 471 q 585 132 514 204 q 574 197 574 165 q 638 357 574 294 q 800 419 701 419 q 922 391 868 419 q 1007 312 976 363 q 1038 197 1038 261 q 1006 84 1038 135 q 920 4 975 33 q 796 -25 865 -25 q 590 22 678 -25 q 456 149 503 68 q 410 329 410 229 q 461 528 410 442 q 615 664 513 615 q 865 713 717 713 l 1478 713 l 1489 635 l 1226 635 l 1226 422 q 1388 492 1292 492 m 800 340 q 697 300 738 340 q 656 197 656 260 q 697 94 656 135 q 800 54 738 54 q 903 94 863 54 q 943 197 943 135 q 903 300 943 260 q 800 340 863 340 z "},"ஒ":{"ha":1138,"x_min":69,"x_max":1061,"o":"m 746 185 q 789 69 746 108 q 915 29 832 29 l 1011 29 l 1011 -49 l 915 -49 q 839 -42 878 -49 l 839 -69 q 806 -191 839 -137 q 712 -274 772 -244 q 574 -304 651 -304 q 431 -274 493 -304 q 335 -191 369 -244 q 301 -69 301 -137 l 301 0 l 400 0 l 400 -69 q 448 -176 400 -135 q 574 -218 496 -218 q 699 -177 651 -218 q 746 -69 746 -136 l 746 -3 q 678 77 701 29 q 656 185 656 125 l 656 374 l 746 374 q 778 285 747 319 q 857 250 808 250 q 931 288 904 250 q 957 388 957 325 q 906 525 957 464 q 765 621 854 586 q 564 656 675 656 q 370 624 457 656 q 229 538 283 593 q 164 411 175 483 q 293 472 211 472 q 419 426 369 472 q 468 308 468 381 q 417 188 468 235 q 288 142 367 142 q 175 172 225 142 q 97 254 125 201 q 69 374 69 307 q 133 563 69 479 q 308 694 196 647 q 564 742 421 742 q 819 696 706 742 q 997 569 933 650 q 1061 388 1061 489 q 1005 226 1061 288 q 857 164 949 164 q 746 199 793 164 l 746 185 m 289 393 q 227 369 251 393 q 203 308 203 346 q 226 247 203 271 q 286 224 250 224 l 288 224 q 349 247 325 224 q 375 308 374 271 q 351 369 375 346 q 289 393 326 393 z "},"ௐ":{"ha":1138,"x_min":69,"x_max":1061,"o":"m 746 185 q 789 69 746 108 q 915 29 832 29 l 1011 29 l 1011 -49 l 915 -49 q 839 -42 878 -49 l 839 -69 q 806 -191 839 -137 q 712 -274 772 -244 q 574 -304 651 -304 q 431 -274 493 -304 q 335 -191 369 -244 q 301 -69 301 -137 l 301 0 l 400 0 l 400 -69 q 448 -176 400 -135 q 574 -218 496 -218 q 699 -177 651 -218 q 746 -69 746 -136 l 746 -3 q 678 77 701 29 q 656 185 656 125 l 656 374 l 746 374 q 778 285 747 319 q 857 250 808 250 q 931 288 904 250 q 957 388 957 325 q 906 525 957 464 q 765 621 854 586 q 564 656 675 656 q 370 624 457 656 q 229 538 283 593 q 164 411 175 483 q 293 472 211 472 q 419 426 369 472 q 468 308 468 381 q 417 188 468 235 q 288 142 367 142 q 175 172 225 142 q 97 254 125 201 q 69 374 69 307 q 133 563 69 479 q 308 694 196 647 q 564 742 421 742 q 819 696 706 742 q 997 569 933 650 q 1061 388 1061 489 q 1005 226 1061 288 q 857 164 949 164 q 746 199 793 164 l 746 185 m 289 393 q 227 369 251 393 q 203 308 203 346 q 226 247 203 271 q 286 224 250 224 l 288 224 q 349 247 325 224 q 375 308 374 271 q 351 369 375 346 q 289 393 326 393 m 575 43 q 560 49 565 43 q 554 64 554 54 q 560 80 554 74 q 575 86 565 86 q 590 80 583 86 q 596 64 596 74 q 590 49 596 54 q 575 43 583 43 m 517 -94 l 558 -94 l 558 -40 q 572 3 558 -14 q 613 21 586 21 q 662 1 644 21 q 679 -54 679 -19 q 661 -106 679 -86 q 610 -125 643 -125 l 483 -125 l 483 15 l 517 17 l 517 -94 m 613 -94 q 636 -83 626 -94 q 646 -54 646 -71 q 638 -21 646 -33 q 617 -8 631 -8 q 592 -42 592 -8 l 592 -94 l 613 -94 z "},"ஓ":{"ha":1138,"x_min":69,"x_max":1061,"o":"m 746 185 q 789 69 746 108 q 915 29 832 29 l 1011 29 l 1011 -49 l 915 -49 q 835 -40 869 -49 l 835 -69 q 799 -190 835 -136 q 699 -274 763 -243 q 556 -304 635 -304 q 415 -280 478 -304 q 317 -212 353 -256 q 282 -114 282 -168 q 334 6 282 -42 q 467 53 386 53 l 496 53 l 496 -26 l 467 -26 q 407 -51 431 -26 q 383 -114 383 -76 q 432 -189 383 -160 q 556 -218 481 -218 q 690 -176 638 -218 q 742 -69 742 -135 l 742 0 q 678 78 700 32 q 656 185 656 125 l 656 374 l 746 374 q 778 285 747 319 q 857 250 808 250 q 931 288 904 250 q 957 388 957 325 q 906 525 957 464 q 765 621 854 586 q 564 656 675 656 q 370 624 457 656 q 229 538 283 593 q 164 411 175 483 q 293 472 211 472 q 419 426 369 472 q 468 308 468 381 q 417 188 468 235 q 288 142 367 142 q 175 172 225 142 q 97 254 125 201 q 69 374 69 307 q 133 563 69 479 q 308 694 196 647 q 564 742 421 742 q 819 696 706 742 q 997 569 933 650 q 1061 388 1061 489 q 1005 226 1061 288 q 857 164 949 164 q 746 199 793 164 l 746 185 m 289 393 q 227 369 251 393 q 203 308 203 346 q 226 247 203 271 q 286 224 250 224 l 288 224 q 349 247 325 224 q 375 308 374 271 q 351 369 375 346 q 289 393 326 393 z "},"ப":{"ha":997,"x_min":129,"x_max":868,"o":"m 129 0 l 129 713 l 226 719 l 226 79 l 769 79 l 769 713 l 868 713 l 868 0 l 129 0 z "},"ர":{"ha":949,"x_min":129,"x_max":935,"o":"m 674 24 q 667 -67 674 -33 q 640 -126 661 -100 q 578 -172 619 -151 l 225 -347 l 186 -268 l 503 -108 q 560 -56 547 -86 q 574 46 574 -25 l 574 635 l 226 635 l 226 0 l 129 0 l 129 713 l 924 713 l 935 635 l 674 635 l 674 24 z "},"ற":{"ha":1144,"x_min":115,"x_max":1072,"o":"m 772 738 q 995 624 918 738 q 1072 321 1072 510 q 1018 31 1072 157 q 860 -165 964 -94 q 608 -236 756 -236 l 419 -236 q 194 -337 261 -236 l 115 -294 q 225 -196 149 -233 q 410 -158 301 -158 l 608 -158 q 806 -97 725 -158 q 927 72 886 -36 q 968 321 968 179 q 922 563 968 474 q 774 651 875 651 q 660 605 707 651 q 614 467 614 558 l 614 0 l 515 0 l 515 435 q 475 592 515 533 q 357 651 435 651 q 248 601 283 651 q 213 450 213 551 l 213 0 l 115 0 l 115 450 q 177 663 115 589 q 357 738 239 738 q 475 705 424 738 q 558 614 526 672 q 647 705 592 672 q 772 738 703 738 z "},"ஸ":{"ha":1821,"x_min":74,"x_max":1749,"o":"m 1631 732 q 1719 525 1689 636 q 1749 325 1749 414 q 1681 68 1749 161 q 1479 -25 1613 -25 q 1284 57 1350 -25 q 1218 292 1218 139 l 1218 461 q 1085 650 1218 650 q 959 569 1004 650 q 914 357 914 488 l 914 0 l 815 0 l 815 357 q 733 574 815 496 q 507 651 651 651 q 333 610 407 651 q 218 497 258 569 q 178 332 178 425 q 249 133 178 208 q 238 197 238 167 q 267 310 238 260 q 347 390 296 361 q 463 418 399 418 q 585 390 531 418 q 671 310 640 361 q 701 197 701 260 q 670 84 701 135 q 583 4 639 33 q 458 -25 528 -25 q 253 22 340 -25 q 120 151 167 69 q 74 332 74 232 q 127 540 74 447 q 278 685 181 632 q 507 738 376 738 q 722 692 631 738 q 863 561 814 646 q 948 691 892 644 q 1085 738 1004 738 q 1257 663 1197 738 q 1317 463 1317 588 l 1317 292 q 1356 120 1317 178 q 1481 63 1396 63 q 1644 324 1644 63 q 1615 524 1644 413 q 1531 713 1586 635 l 1631 732 m 463 340 q 360 300 400 340 q 319 197 319 260 q 360 94 319 135 q 463 54 400 54 q 566 94 525 54 q 607 197 607 135 q 566 300 607 260 q 463 340 525 340 z "},"ஶ":{"ha":1457,"x_min":115,"x_max":1383,"o":"m 1090 713 q 1309 625 1235 713 q 1383 392 1383 538 q 1347 176 1383 269 q 1241 28 1311 82 q 1074 -25 1171 -25 q 894 45 961 -25 q 828 249 828 115 l 828 635 l 625 635 l 625 263 q 556 48 625 121 q 369 -25 486 -25 q 185 48 254 -25 q 115 263 115 121 l 115 713 l 213 719 l 213 263 q 254 110 213 158 q 369 61 296 61 q 485 110 443 61 q 526 263 526 158 l 526 713 l 1090 713 m 1076 61 q 1226 152 1174 61 q 1279 392 1279 243 q 1233 569 1279 504 q 1090 635 1188 635 l 926 635 l 926 247 q 967 108 926 154 q 1076 61 1007 61 z "},"ஷ":{"ha":1914,"x_min":74,"x_max":1786,"o":"m 1500 0 l 1500 -337 l 1401 -337 l 1401 0 l 767 0 l 768 79 q 838 203 813 133 q 864 354 864 274 q 822 508 864 440 q 705 613 781 575 q 532 651 629 651 q 343 610 424 651 q 220 497 263 569 q 178 329 178 424 q 247 133 178 207 q 236 197 236 167 q 265 312 236 261 q 347 391 294 363 q 463 419 399 419 q 585 391 531 419 q 671 312 640 363 q 701 197 701 261 q 670 84 701 135 q 583 4 639 33 q 458 -25 528 -25 q 253 22 340 -25 q 120 149 167 68 q 74 329 74 229 q 130 540 74 447 q 290 685 186 633 q 532 738 393 738 q 758 688 658 738 q 914 551 858 639 q 969 354 969 464 q 947 208 969 279 q 885 79 924 136 l 1401 79 l 1401 285 q 1314 276 1360 276 q 1168 307 1232 276 q 1068 392 1104 338 q 1032 513 1032 446 q 1097 675 1032 613 q 1268 738 1161 738 q 1438 676 1375 738 q 1500 513 1500 614 l 1500 419 q 1688 635 1607 489 l 1786 635 l 1786 0 l 1500 0 m 1314 363 q 1401 375 1360 363 l 1401 506 q 1367 612 1401 572 q 1268 651 1332 651 q 1171 613 1206 651 q 1136 513 1136 575 q 1185 405 1136 447 q 1314 363 1233 363 m 1688 468 q 1500 315 1610 364 l 1500 79 l 1688 79 l 1688 468 m 463 340 q 360 300 400 340 q 319 197 319 260 q 360 94 319 135 q 463 54 400 54 q 566 94 525 54 q 607 197 607 135 q 566 300 607 260 q 463 340 525 340 z "},"த":{"ha":1064,"x_min":60,"x_max":1004,"o":"m 699 414 q 858 374 789 414 q 966 265 928 335 q 1004 104 1004 194 q 955 -72 1004 6 q 816 -194 906 -150 q 608 -237 726 -237 l 363 -237 q 224 -264 278 -237 q 139 -339 171 -290 l 60 -294 q 169 -197 92 -233 q 354 -160 246 -160 l 608 -160 q 763 -126 696 -160 q 865 -32 829 -92 q 900 104 900 28 q 845 271 900 206 q 700 336 790 336 l 663 336 l 663 285 q 623 123 663 193 q 509 14 583 53 q 336 -25 435 -25 q 192 3 256 -25 q 94 82 129 32 q 60 194 60 132 q 103 322 60 268 q 228 399 147 376 l 228 713 l 892 713 l 904 635 l 663 635 l 663 414 l 699 414 m 344 414 l 564 414 l 564 635 l 326 635 l 326 414 l 344 414 m 347 336 q 212 298 260 336 q 164 194 164 260 q 211 99 164 136 q 336 61 258 61 q 503 122 443 61 q 564 285 564 182 l 564 336 l 347 336 z "},"ட":{"ha":1000,"x_min":129,"x_max":986,"o":"m 226 719 l 129 713 l 129 0 l 986 0 l 975 79 l 226 79 l 226 719 z "},"உ":{"ha":1369,"x_min":46,"x_max":1356,"o":"m 1356 0 l 108 0 l 108 79 l 425 79 q 585 117 514 79 q 696 224 656 156 q 736 379 736 293 q 699 519 736 457 q 596 616 663 581 q 444 651 529 651 q 311 628 371 651 q 211 563 251 604 q 268 569 242 569 q 422 514 361 569 q 482 374 482 458 q 422 231 482 288 q 268 175 361 175 q 108 233 171 175 q 46 381 46 290 q 97 565 46 483 q 240 692 149 646 q 444 738 331 738 q 650 691 560 738 q 790 563 740 644 q 840 379 840 482 q 800 206 840 283 q 685 79 760 128 l 1356 79 l 1356 0 m 267 493 q 176 460 211 493 q 142 378 142 428 q 176 290 142 325 q 267 256 211 256 q 353 290 319 256 q 386 375 386 324 q 352 460 386 426 q 267 493 318 493 z "},"ஊ":{"ha":2278,"x_min":46,"x_max":2264,"o":"m 2264 0 l 108 0 l 108 79 l 425 79 q 585 117 514 79 q 696 224 656 156 q 736 379 736 293 q 699 519 736 457 q 596 616 663 581 q 444 651 529 651 q 311 628 371 651 q 211 563 251 604 q 268 569 242 569 q 422 514 361 569 q 482 374 482 458 q 422 231 482 288 q 268 175 361 175 q 108 233 171 175 q 46 381 46 290 q 97 565 46 483 q 240 692 149 646 q 444 738 331 738 q 650 691 560 738 q 790 563 740 644 q 840 379 840 482 q 799 204 840 282 q 682 79 758 126 l 2264 79 l 2264 0 m 1267 136 q 1104 172 1176 136 q 992 273 1032 208 q 951 418 951 338 q 997 580 951 507 q 1122 694 1042 653 q 1304 735 1203 735 q 1454 703 1386 735 q 1568 615 1522 672 l 1568 713 l 2188 713 l 2199 635 l 2019 635 l 2019 160 l 1921 160 l 1921 635 l 1667 635 l 1667 160 l 1568 160 l 1568 407 q 1534 530 1568 475 q 1440 617 1500 585 q 1304 649 1379 649 q 1173 618 1231 649 q 1083 535 1115 588 q 1051 418 1051 483 q 1093 288 1051 340 q 1090 314 1090 304 q 1141 441 1090 392 q 1271 490 1192 490 q 1408 441 1354 490 q 1463 314 1463 392 q 1407 187 1463 238 q 1267 136 1351 136 m 267 493 q 176 460 211 493 q 142 378 142 428 q 176 290 142 325 q 267 256 211 256 q 353 290 319 256 q 386 375 386 324 q 352 460 386 426 q 267 493 318 493 m 1271 415 q 1197 387 1226 415 q 1168 314 1168 358 q 1197 240 1168 269 q 1271 211 1226 211 q 1344 240 1315 211 q 1374 314 1374 269 q 1344 387 1374 358 q 1271 415 1315 415 z "},"வ":{"ha":1435,"x_min":74,"x_max":1306,"o":"m 1306 0 l 767 0 l 768 79 q 838 203 813 133 q 864 354 864 274 q 823 508 864 440 q 706 613 782 575 q 532 651 631 651 q 343 610 424 651 q 220 497 263 569 q 178 329 178 424 q 247 133 178 207 q 236 197 236 167 q 265 312 236 261 q 347 391 294 363 q 463 419 399 419 q 585 391 531 419 q 671 312 640 363 q 701 197 701 261 q 670 84 701 135 q 583 4 639 33 q 458 -25 528 -25 q 253 22 340 -25 q 120 149 167 68 q 74 329 74 229 q 130 540 74 447 q 290 685 186 633 q 532 738 393 738 q 758 688 658 738 q 914 551 858 639 q 969 354 969 464 q 947 207 969 278 q 883 79 924 136 l 1207 79 l 1207 713 l 1306 713 l 1306 0 m 463 340 q 360 300 400 340 q 319 197 319 260 q 360 94 319 135 q 463 54 400 54 q 566 94 525 54 q 607 197 607 135 q 566 300 607 260 q 463 340 525 340 z "},"ஃ":{"ha":944,"x_min":74,"x_max":872,"o":"m 472 426 q 586 469 539 426 q 633 578 633 513 q 586 688 633 644 q 472 732 539 732 q 359 688 407 732 q 311 578 311 644 q 358 469 311 513 q 472 426 406 426 m 472 501 q 417 523 439 501 q 394 578 394 544 q 417 635 394 613 q 472 657 439 657 q 529 635 507 657 q 551 578 551 613 q 529 523 551 544 q 472 501 507 501 m 233 -19 q 348 24 300 -19 q 396 133 396 68 q 348 244 396 200 q 233 288 300 288 q 121 244 168 288 q 74 133 74 200 q 121 24 74 68 q 233 -19 168 -19 m 710 -19 q 824 24 776 -19 q 872 133 872 68 q 824 244 872 200 q 710 288 776 288 q 597 244 644 288 q 549 133 549 200 q 597 24 549 68 q 710 -19 644 -19 m 235 57 q 178 78 200 57 q 156 133 156 100 q 178 190 156 168 q 235 213 200 213 q 291 190 268 213 q 314 133 314 168 q 291 78 314 100 q 235 57 268 57 m 711 57 q 654 78 676 57 q 632 133 632 100 q 654 190 632 168 q 711 213 676 213 q 767 190 744 213 q 789 133 789 168 q 767 78 789 100 q 711 57 744 57 z "},"ய":{"ha":1285,"x_min":115,"x_max":1156,"o":"m 1156 0 l 547 0 l 547 58 q 469 -3 514 18 q 369 -25 424 -25 q 184 49 253 -25 q 115 263 115 122 l 115 713 l 213 719 l 213 263 q 369 61 213 61 q 501 122 456 61 q 547 282 547 182 l 547 713 l 646 713 l 646 79 l 1057 79 l 1057 713 l 1156 713 l 1156 0 z "},"௮":{"ha":1483,"x_min":46,"x_max":1354,"o":"m 1354 -175 l 1256 -175 l 1256 96 l 994 96 q 788 -121 929 -42 q 457 -200 647 -200 q 244 -169 338 -200 q 98 -85 150 -139 q 46 36 46 -31 q 89 136 46 99 q 211 174 132 174 l 414 174 q 329 277 360 215 q 299 414 299 339 q 344 581 299 507 q 469 696 389 654 q 650 738 549 738 q 858 684 768 738 q 996 535 947 631 q 1044 319 1044 440 q 1025 174 1044 244 l 1256 174 l 1256 713 l 1354 713 l 1354 -175 m 915 174 q 939 319 939 239 q 904 491 939 415 q 804 609 869 567 q 650 651 739 651 q 522 621 578 651 q 435 536 467 590 q 404 414 404 482 q 434 289 404 343 q 517 204 464 235 q 639 174 571 174 l 915 174 m 457 -114 q 709 -58 600 -114 q 878 96 818 -3 l 214 96 q 150 36 150 96 q 189 -37 150 -3 q 298 -93 228 -72 q 457 -114 368 -114 z "},"௫":{"ha":1765,"x_min":101,"x_max":1636,"o":"m 1538 467 q 1461 748 1538 625 q 1240 940 1385 871 q 894 1008 1094 1008 q 526 923 682 1008 q 288 685 369 838 q 206 339 206 533 q 276 18 206 156 q 480 -194 347 -119 q 793 -269 613 -269 q 1063 -216 946 -269 q 1243 -63 1179 -162 q 1307 169 1307 36 q 1269 342 1307 278 q 1156 407 1231 407 q 1042 356 1088 407 q 997 225 997 304 l 997 0 l 900 0 l 900 635 l 631 635 l 631 0 l 532 0 l 532 713 l 1249 713 l 1260 635 l 997 635 l 997 422 q 1158 492 1063 492 q 1344 402 1276 492 q 1413 169 1413 313 q 1335 -108 1413 11 q 1116 -291 1257 -226 q 793 -356 975 -356 q 426 -269 582 -356 q 185 -26 269 -183 q 101 342 101 132 q 197 731 101 560 q 473 998 293 901 q 894 1094 653 1094 q 1290 1015 1122 1094 q 1547 793 1458 935 q 1636 469 1636 651 l 1636 0 l 1538 0 l 1538 467 z "},"௪":{"ha":1149,"x_min":60,"x_max":1090,"o":"m 663 336 l 663 285 q 623 123 663 193 q 509 14 583 53 q 336 -25 435 -25 q 192 3 256 -25 q 94 82 129 32 q 60 194 60 132 q 103 322 60 268 q 228 399 147 376 l 228 713 l 892 713 l 904 635 l 663 635 l 663 414 l 1000 414 l 1000 713 l 1090 713 l 1090 336 l 663 336 m 344 414 l 564 414 l 564 635 l 326 635 l 326 414 l 344 414 m 347 336 q 212 298 260 336 q 164 194 164 260 q 211 99 164 136 q 336 61 258 61 q 503 122 443 61 q 564 285 564 182 l 564 336 l 347 336 z "},"௯":{"ha":1344,"x_min":60,"x_max":1299,"o":"m 1053 438 q 1181 407 1125 438 q 1268 323 1238 376 q 1299 201 1299 269 q 1286 97 1299 143 q 1247 -8 1274 51 l 1146 0 q 1181 101 1168 44 q 1194 201 1194 157 q 1156 311 1194 271 q 1053 351 1118 351 q 997 344 1028 351 q 1060 258 1038 308 q 1083 149 1083 207 q 1035 24 1083 74 q 915 -25 988 -25 q 794 24 842 -25 q 746 149 746 72 q 814 336 746 257 l 797 336 l 663 336 l 663 285 q 623 123 663 193 q 509 14 583 53 q 336 -25 435 -25 q 192 3 256 -25 q 94 82 129 32 q 60 194 60 132 q 103 322 60 268 q 228 399 147 376 l 228 713 l 892 713 l 904 635 l 663 635 l 663 414 l 808 414 q 897 401 856 414 q 1053 438 965 438 m 344 414 l 564 414 l 564 635 l 326 635 l 326 414 l 344 414 m 347 336 q 212 298 260 336 q 164 194 164 260 q 211 99 164 136 q 336 61 258 61 q 503 122 443 61 q 564 285 564 182 l 564 336 l 347 336 m 986 149 q 966 237 986 197 q 910 301 946 276 q 860 235 878 274 q 843 149 843 196 q 863 85 843 110 q 915 60 883 60 q 966 85 946 60 q 986 149 986 110 z "},"௧":{"ha":1043,"x_min":60,"x_max":999,"o":"m 714 414 q 923 353 847 414 q 999 194 999 292 q 963 81 999 131 q 858 3 926 32 q 697 -25 790 -25 l 697 54 q 842 92 792 54 q 893 194 893 131 q 847 297 893 258 q 715 336 801 336 l 663 336 l 663 285 q 623 123 663 193 q 509 14 583 53 q 336 -25 435 -25 q 192 3 256 -25 q 94 82 129 32 q 60 194 60 132 q 103 322 60 268 q 228 399 147 376 l 228 713 l 892 713 l 904 635 l 663 635 l 663 414 l 714 414 m 344 414 l 564 414 l 564 635 l 326 635 l 326 414 l 344 414 m 347 336 q 212 298 260 336 q 164 194 164 260 q 211 99 164 136 q 336 61 258 61 q 503 122 443 61 q 564 285 564 182 l 564 336 l 347 336 z "},"௭":{"ha":1053,"x_min":74,"x_max":928,"o":"m 928 0 l 828 0 l 828 635 l 540 635 q 268 553 358 635 q 178 329 178 471 q 247 133 178 207 q 236 197 236 167 q 265 312 236 261 q 347 391 294 363 q 463 419 399 419 q 585 391 531 419 q 671 312 640 363 q 701 197 701 261 q 670 84 701 135 q 583 4 639 33 q 458 -25 528 -25 q 253 22 340 -25 q 120 149 167 68 q 74 329 74 229 q 124 529 74 443 q 277 664 175 615 q 528 713 379 713 l 928 714 l 928 0 m 463 340 q 360 300 400 340 q 319 197 319 260 q 360 94 319 135 q 463 54 400 54 q 566 94 525 54 q 607 197 607 135 q 566 300 607 260 q 463 340 525 340 z "},"௬":{"ha":1501,"x_min":60,"x_max":1488,"o":"m 1488 0 l 1057 0 l 1057 79 q 1181 119 1136 79 q 1226 221 1226 158 q 1190 314 1226 278 q 1093 350 1153 350 q 978 305 1022 350 q 933 189 933 260 l 933 0 l 835 0 l 835 189 q 792 295 835 256 q 663 336 749 335 l 663 285 q 623 123 663 193 q 509 14 583 53 q 336 -25 435 -25 q 192 3 256 -25 q 94 82 129 32 q 60 194 60 132 q 103 322 60 268 q 228 399 147 376 l 228 713 l 892 713 l 904 635 l 663 635 l 663 414 q 794 390 738 413 q 885 328 851 368 q 976 408 919 379 q 1100 438 1032 438 q 1266 376 1201 438 q 1331 221 1331 315 q 1269 79 1331 133 l 1488 79 l 1488 0 m 344 414 l 564 414 l 564 635 l 326 635 l 326 414 l 344 414 m 336 61 q 503 122 443 61 q 564 285 564 182 l 564 336 l 347 336 q 212 298 260 336 q 164 194 164 260 q 211 99 164 136 q 336 61 258 61 z "},"௩":{"ha":1149,"x_min":129,"x_max":1135,"o":"m 1135 0 l 478 0 l 478 79 l 667 79 q 821 132 768 79 q 874 272 874 185 q 837 384 874 340 q 735 428 800 428 q 620 380 664 428 q 576 258 576 332 l 576 211 l 478 211 l 478 635 l 226 635 l 226 0 l 129 0 l 129 713 l 828 713 l 839 635 l 576 635 l 576 449 q 651 496 608 479 q 742 513 693 513 q 914 446 850 513 q 978 272 978 379 q 955 163 978 213 q 889 79 932 113 l 1135 79 l 1135 0 z "},"௨":{"ha":1081,"x_min":46,"x_max":1067,"o":"m 1067 0 l 108 0 l 108 79 l 425 79 q 585 117 514 79 q 696 224 656 156 q 736 379 736 293 q 699 519 736 457 q 596 616 663 581 q 444 651 529 651 q 311 628 371 651 q 211 563 251 604 q 268 569 242 569 q 422 514 361 569 q 482 374 482 458 q 422 231 482 288 q 268 175 361 175 q 108 233 171 175 q 46 381 46 290 q 97 565 46 483 q 240 692 149 646 q 444 738 331 738 q 650 691 560 738 q 790 563 740 644 q 840 379 840 482 q 800 206 840 283 q 685 79 760 128 l 1067 79 l 1067 0 m 267 493 q 176 460 211 493 q 142 378 142 428 q 176 290 142 325 q 267 256 211 256 q 353 290 319 256 q 386 375 386 324 q 352 460 386 426 q 267 493 318 493 z "},"௦":{"ha":988,"x_min":74,"x_max":914,"o":"m 493 738 q 708 688 613 738 q 859 552 804 639 q 914 357 914 465 q 859 160 914 247 q 708 24 804 74 q 493 -25 613 -25 q 279 24 375 -25 q 128 160 183 74 q 74 357 74 247 q 128 552 74 465 q 279 688 183 639 q 493 738 375 738 m 493 61 q 656 99 583 61 q 769 205 728 138 q 810 357 810 272 q 769 509 810 442 q 656 614 728 576 q 493 651 583 651 q 333 614 404 651 q 219 509 261 576 q 178 357 178 442 q 219 205 178 272 q 333 99 261 138 q 493 61 404 61 z "},"௱":{"ha":1367,"x_min":115,"x_max":1353,"o":"m 1092 0 l 993 0 l 993 635 l 646 635 l 646 0 l 547 0 l 547 431 q 501 591 547 531 q 369 651 456 651 q 213 450 213 651 l 213 0 l 115 0 l 115 450 q 183 665 115 592 q 369 738 251 738 q 470 715 425 738 q 547 653 515 693 l 547 713 l 1342 713 l 1353 635 l 1092 635 l 1092 0 z "},"௰":{"ha":1107,"x_min":74,"x_max":1035,"o":"m 917 732 q 1005 525 975 636 q 1035 325 1035 414 q 967 68 1035 161 q 765 -25 899 -25 q 554 83 621 -25 q 342 -25 488 -25 q 141 68 208 -25 q 74 325 74 161 q 103 525 74 414 q 190 732 132 636 l 290 713 q 206 524 235 635 q 176 324 176 413 q 340 63 176 63 q 465 120 425 63 q 504 292 504 178 l 504 469 l 603 469 l 603 292 q 767 63 603 63 q 931 324 931 63 q 901 524 931 413 q 817 713 872 635 l 917 732 z "},"௲":{"ha":1514,"x_min":60,"x_max":1468,"o":"m 1217 197 q 1347 165 1290 197 q 1436 74 1404 132 q 1468 -56 1468 17 q 1430 -198 1468 -136 q 1323 -294 1392 -260 q 1165 -329 1254 -329 l 958 -329 q 837 -346 879 -329 q 772 -396 794 -362 l 694 -349 q 957 -251 743 -251 l 1165 -251 q 1310 -197 1256 -251 q 1365 -56 1365 -142 q 1324 69 1365 18 q 1218 119 1282 119 l 1197 119 l 1197 93 q 1123 -86 1197 -21 q 933 -151 1049 -151 q 763 -101 828 -151 q 697 29 697 -50 q 758 151 697 104 q 922 197 819 197 l 1097 197 l 1097 336 l 663 336 l 663 285 q 623 123 663 193 q 509 14 583 53 q 336 -25 435 -25 q 192 3 256 -25 q 94 82 129 32 q 60 194 60 132 q 103 322 60 268 q 228 399 147 376 l 228 713 l 892 713 l 904 635 l 663 635 l 663 414 l 1411 414 l 1417 336 l 1197 336 l 1197 197 l 1217 197 m 344 414 l 564 414 l 564 635 l 326 635 l 326 414 l 344 414 m 347 336 q 212 298 260 336 q 164 194 164 260 q 211 99 164 136 q 336 61 258 61 q 503 122 443 61 q 564 285 564 182 l 564 336 l 347 336 m 925 119 q 833 94 865 119 q 801 28 801 69 q 836 -40 801 -14 q 933 -65 871 -65 q 1051 -22 1004 -65 q 1097 93 1097 21 l 1097 119 l 925 119 z "},"௹":{"ha":1513,"x_min":101,"x_max":1440,"o":"m 1186 492 q 1372 402 1304 492 q 1440 169 1440 313 q 1363 -110 1440 8 q 1144 -292 1286 -229 q 810 -356 1001 -356 q 428 -265 588 -356 q 185 -7 268 -174 q 101 385 101 160 q 196 815 101 625 q 460 1113 290 1006 q 850 1219 631 1219 q 1117 1181 1000 1219 q 1297 1080 1233 1143 q 1361 944 1361 1017 q 1319 840 1361 881 q 1214 799 1278 799 q 1104 839 1147 799 q 1061 940 1061 879 q 1090 1026 1061 990 q 1169 1075 1119 1063 q 850 1132 1047 1132 q 515 1036 661 1132 q 287 770 368 940 q 206 383 206 600 q 276 36 206 183 q 482 -190 346 -111 q 810 -269 618 -269 q 1090 -217 972 -269 q 1272 -67 1208 -165 q 1335 169 1335 32 q 1297 342 1335 278 q 1183 407 1258 407 q 1070 356 1115 407 q 1025 225 1025 304 l 1025 0 l 928 0 l 928 635 l 631 635 l 631 0 l 532 0 l 532 713 l 1276 713 l 1288 635 l 1025 635 l 1025 422 q 1186 492 1088 492 m 1214 868 q 1265 888 1244 868 q 1285 939 1285 908 q 1265 988 1285 968 q 1214 1008 1244 1008 q 1163 988 1183 1008 q 1143 939 1143 968 q 1163 888 1143 908 q 1214 868 1183 868 z "},"௺":{"ha":1385,"x_min":129,"x_max":1385,"o":"m 1385 782 l 1006 782 l 1006 860 q 1097 897 1063 860 q 1131 994 1131 935 q 1084 1094 1131 1056 q 964 1133 1038 1133 q 878 1122 919 1133 q 935 1035 915 1085 q 956 929 956 985 q 908 804 956 851 q 785 757 860 757 q 661 804 710 757 q 613 929 613 851 q 637 1037 613 986 q 706 1126 661 1088 q 646 1133 674 1133 q 493 1075 551 1133 q 435 925 435 1017 q 484 772 435 832 q 614 713 533 713 l 828 713 l 839 635 l 576 635 l 576 422 q 647 474 606 456 q 738 492 689 492 q 923 402 856 492 q 990 169 990 313 q 947 -41 990 51 q 819 -185 903 -133 q 622 -236 736 -236 l 433 -236 q 208 -337 275 -236 l 129 -294 q 239 -196 163 -233 q 424 -158 315 -158 l 622 -158 q 817 -68 747 -158 q 886 169 886 22 q 848 342 886 278 q 735 407 810 407 q 621 356 665 407 q 576 225 576 304 l 576 0 l 478 0 l 478 635 l 226 635 l 226 0 l 129 0 l 129 713 l 415 713 q 352 806 374 751 q 331 925 331 860 q 370 1077 331 1010 q 482 1182 410 1144 q 646 1219 554 1219 q 794 1185 725 1219 q 964 1219 872 1219 q 1103 1190 1042 1219 q 1200 1110 1165 1161 q 1235 994 1235 1058 q 1181 860 1235 914 l 1385 860 l 1385 782 m 858 929 q 842 1017 858 978 q 793 1085 825 1057 q 732 1017 754 1057 q 710 929 710 978 q 731 865 710 890 q 785 840 753 840 q 838 865 817 840 q 858 929 858 890 z "},"௴":{"ha":1678,"x_min":129,"x_max":1678,"o":"m 1678 782 l 1297 782 l 1297 860 q 1389 898 1354 860 q 1424 994 1424 936 q 1378 1094 1424 1056 q 1257 1133 1332 1133 q 1171 1122 1213 1133 q 1228 1035 1208 1085 q 1249 929 1249 985 q 1200 805 1249 853 q 1078 757 1151 757 q 953 805 1003 757 q 904 929 904 853 q 997 1128 904 1043 q 939 1133 961 1133 q 785 1075 844 1133 q 726 925 726 1017 q 753 808 726 858 q 825 732 779 757 q 1013 599 946 711 q 1079 321 1079 488 q 1005 88 1079 175 q 786 0 931 0 l 129 0 l 129 713 l 226 719 l 226 79 l 522 79 l 522 464 q 567 640 522 572 q 693 728 613 707 q 622 925 622 806 q 662 1077 622 1010 q 774 1182 701 1144 q 939 1219 846 1219 q 1088 1185 1018 1219 q 1257 1219 1165 1219 q 1397 1190 1335 1219 q 1492 1110 1458 1161 q 1526 994 1526 1060 q 1474 860 1526 913 l 1678 860 l 1678 782 m 1150 929 q 1133 1017 1150 978 q 1085 1085 1117 1057 q 1024 1017 1046 1057 q 1003 929 1003 978 q 1024 865 1003 890 q 1078 840 1044 840 q 1130 865 1110 840 q 1150 929 1150 890 m 975 321 q 922 560 975 469 q 772 651 869 651 q 663 606 703 651 q 622 467 622 560 l 622 79 l 786 79 q 929 144 883 79 q 975 321 975 210 z "},"௸":{"ha":2588,"x_min":74,"x_max":2460,"o":"m 2174 0 l 2174 -337 l 2075 -337 l 2075 0 l 1450 0 l 1450 79 q 1501 231 1483 151 q 1519 376 1519 311 q 1452 576 1519 500 q 1256 651 1385 651 q 1064 597 1149 651 q 1193 438 1147 529 q 1239 242 1239 346 q 1178 49 1239 122 q 1011 -25 1117 -25 q 844 49 906 -25 q 783 242 783 122 q 819 431 783 342 q 917 586 854 519 q 632 651 794 651 q 393 608 496 651 q 234 489 290 565 q 178 317 178 413 q 250 126 178 197 q 236 197 236 158 q 265 312 236 261 q 347 391 294 363 q 463 419 399 419 q 585 391 531 419 q 671 312 640 363 q 701 197 701 261 q 670 84 701 135 q 583 4 639 33 q 458 -25 528 -25 q 253 19 340 -25 q 120 142 167 64 q 74 317 74 219 q 143 533 74 438 q 340 683 213 629 q 632 738 467 738 q 988 649 836 738 q 1115 715 1046 692 q 1256 738 1183 738 q 1455 692 1372 738 q 1580 564 1538 646 q 1622 375 1622 482 q 1556 79 1622 231 l 2075 79 l 2075 285 q 1988 276 2033 276 q 1842 307 1906 276 q 1742 392 1778 338 q 1706 513 1706 446 q 1770 675 1706 613 q 1942 738 1835 738 q 2111 676 2049 738 q 2174 513 2174 614 l 2174 419 q 2361 635 2281 489 l 2460 635 l 2460 0 l 2174 0 m 1988 363 q 2075 375 2033 363 l 2075 506 q 2040 612 2075 572 q 1942 651 2006 651 q 1844 613 1879 651 q 1810 513 1810 575 q 1858 405 1810 447 q 1988 363 1907 363 m 1135 242 q 1098 406 1135 331 q 993 538 1061 482 q 915 406 943 482 q 888 242 888 331 q 920 111 888 161 q 1011 61 953 61 q 1103 111 1071 61 q 1135 242 1135 161 m 2361 468 q 2174 315 2283 364 l 2174 79 l 2361 79 l 2361 468 m 319 197 q 360 94 319 135 q 463 54 400 54 q 566 94 525 54 q 607 197 607 135 q 566 300 607 260 q 463 340 525 340 q 360 300 400 340 q 319 197 319 260 z "},"௳":{"ha":1221,"x_min":74,"x_max":1207,"o":"m 1207 0 l 767 0 l 768 79 q 838 203 813 133 q 864 354 864 274 q 822 508 864 440 q 705 613 781 575 q 532 651 629 651 q 343 610 424 651 q 220 497 263 569 q 178 329 178 424 q 247 133 178 207 q 236 197 236 167 q 265 312 236 261 q 347 391 294 363 q 463 419 399 419 q 585 391 531 419 q 671 312 640 363 q 701 197 701 261 q 670 84 701 135 q 583 4 639 33 q 458 -25 528 -25 q 253 22 340 -25 q 120 149 167 68 q 74 329 74 229 q 130 540 74 447 q 290 685 186 633 q 532 738 393 738 q 758 688 658 738 q 914 551 858 639 q 969 354 969 464 q 947 208 969 279 q 885 79 924 136 l 1207 79 l 1207 0 m 463 340 q 360 300 400 340 q 319 197 319 260 q 360 94 319 135 q 463 54 400 54 q 566 94 525 54 q 607 197 607 135 q 566 300 607 260 q 463 340 525 340 z "},"௶":{"ha":1361,"x_min":129,"x_max":1232,"o":"m 863 -204 q 790 -344 847 -283 q 641 -437 732 -404 q 439 -471 550 -471 q 213 -418 296 -471 q 129 -281 129 -365 q 181 -169 129 -211 q 324 -126 232 -126 l 769 -126 l 769 0 l 129 0 l 129 713 l 226 719 l 226 79 l 769 79 l 769 713 l 868 713 l 868 -126 l 1133 -126 l 1133 713 l 1232 713 l 1232 -204 l 863 -204 m 439 -385 q 650 -335 563 -385 q 761 -204 738 -286 l 324 -204 q 256 -225 279 -204 q 233 -281 233 -246 q 289 -356 233 -326 q 439 -385 344 -385 z "},"௷":{"ha":1851,"x_min":74,"x_max":1838,"o":"m 1838 0 l 1457 0 l 1457 79 q 1549 116 1514 79 q 1583 213 1583 153 q 1536 313 1583 274 q 1408 351 1489 351 q 1311 338 1354 351 q 1369 254 1349 303 q 1390 149 1390 206 q 1342 24 1390 72 q 1221 -25 1294 -25 q 1099 24 1147 -25 q 1051 149 1051 72 q 1133 333 1051 254 q 1104 336 1114 336 l 928 336 l 928 0 l 828 0 l 828 635 l 540 635 q 268 553 358 635 q 178 329 178 471 q 247 133 178 207 q 236 197 236 167 q 265 312 236 261 q 347 391 294 363 q 463 419 399 419 q 585 391 531 419 q 671 312 640 363 q 701 197 701 261 q 670 84 701 135 q 583 4 639 33 q 458 -25 528 -25 q 253 22 340 -25 q 120 149 167 68 q 74 329 74 229 q 124 529 74 443 q 277 664 175 615 q 528 713 379 713 l 1178 713 l 1189 635 l 928 635 l 928 414 l 1115 414 q 1221 394 1171 414 q 1408 438 1304 438 q 1555 408 1492 438 q 1653 328 1618 379 q 1688 213 1688 278 q 1633 79 1688 131 l 1838 79 l 1838 0 m 463 340 q 360 300 400 340 q 319 197 319 260 q 360 94 319 135 q 463 54 400 54 q 566 94 525 54 q 607 197 607 135 q 566 300 607 260 q 463 340 525 340 m 1292 149 q 1274 231 1292 193 q 1224 294 1256 269 q 1169 231 1189 268 q 1150 149 1150 193 q 1170 85 1150 110 q 1221 60 1190 60 q 1272 85 1251 60 q 1292 149 1292 110 z "},"௵":{"ha":2440,"x_min":101,"x_max":2368,"o":"m 2114 492 q 2300 402 2232 492 q 2368 169 2368 313 q 2278 -118 2368 0 q 2022 -296 2188 -236 q 1629 -356 1856 -356 l 901 -356 q 475 -283 656 -356 q 198 -76 294 -210 q 101 236 101 57 q 158 506 101 368 q 303 726 215 644 l 404 713 q 262 507 318 642 q 206 233 206 372 q 290 -36 206 79 q 531 -215 374 -151 q 901 -278 689 -278 l 1629 -278 q 1965 -229 1822 -281 q 2186 -77 2108 -178 q 2264 169 2264 24 q 2225 342 2264 278 q 2111 407 2186 407 q 1999 356 2043 407 q 1954 225 1954 304 l 1954 0 l 1856 0 l 1856 635 l 1593 635 l 1593 0 l 1104 0 l 1104 79 q 1175 203 1149 133 q 1201 354 1201 274 q 1160 508 1201 440 q 1044 613 1119 575 q 869 651 968 651 q 681 610 761 651 q 557 497 600 569 q 514 329 514 424 q 585 132 514 204 q 574 197 574 165 q 638 357 574 294 q 800 419 701 419 q 922 391 868 419 q 1007 312 976 363 q 1038 197 1038 261 q 1006 84 1038 135 q 920 4 975 33 q 796 -25 865 -25 q 590 22 678 -25 q 456 149 503 68 q 410 329 410 229 q 466 540 410 447 q 626 685 522 633 q 869 738 731 738 q 1095 688 996 738 q 1250 551 1194 639 q 1306 354 1306 464 q 1283 208 1306 279 q 1221 79 1260 136 l 1494 79 l 1494 713 l 2204 713 l 2215 635 l 1954 635 l 1954 422 q 2024 474 1983 456 q 2114 492 2065 492 m 800 340 q 697 300 738 340 q 656 197 656 260 q 697 94 656 135 q 800 54 738 54 q 903 94 863 54 q 943 197 943 135 q 903 300 943 260 q 800 340 863 340 z "},"ௗ":{"ha":1690,"x_min":74,"x_max":1676,"o":"m 1415 635 l 1415 0 l 1317 0 l 1317 635 l 969 635 l 969 0 l 871 0 l 871 317 q 826 489 871 413 q 702 608 781 565 q 526 651 624 651 q 341 610 419 651 q 220 497 263 569 q 178 329 178 424 q 247 133 178 207 q 236 197 236 167 q 265 312 236 261 q 347 391 294 363 q 463 419 399 419 q 585 391 531 419 q 671 312 640 363 q 701 197 701 261 q 670 84 701 135 q 583 4 639 33 q 458 -25 528 -25 q 253 22 340 -25 q 120 149 167 68 q 74 329 74 229 q 129 540 74 447 q 288 685 185 633 q 526 738 390 738 q 724 692 635 738 q 871 567 814 647 l 871 713 l 1665 713 l 1676 635 l 1415 635 m 463 340 q 360 300 400 340 q 319 197 319 260 q 360 94 319 135 q 463 54 400 54 q 566 94 525 54 q 607 197 607 135 q 566 300 607 260 q 463 340 525 340 z "},"ா":{"ha":921,"x_min":129,"x_max":907,"o":"m 546 0 l 546 635 l 226 635 l 226 0 l 129 0 l 129 713 l 896 713 l 907 635 l 646 635 l 646 0 l 546 0 z "},"ை":{"ha":1696,"x_min":74,"x_max":1622,"o":"m 1256 738 q 1455 692 1372 738 q 1580 564 1538 646 q 1622 375 1622 482 q 1593 183 1622 288 q 1504 -19 1564 78 l 1406 0 q 1490 184 1461 79 q 1519 376 1519 289 q 1452 576 1519 500 q 1256 651 1385 651 q 1064 597 1149 651 q 1193 438 1147 529 q 1239 242 1239 346 q 1178 49 1239 122 q 1011 -25 1117 -25 q 844 49 906 -25 q 783 242 783 122 q 819 431 783 342 q 917 586 854 519 q 632 651 794 651 q 393 608 496 651 q 234 489 290 565 q 178 317 178 413 q 250 126 178 197 q 236 197 236 158 q 265 312 236 261 q 347 391 294 363 q 463 419 399 419 q 585 391 531 419 q 671 312 640 363 q 701 197 701 261 q 670 84 701 135 q 583 4 639 33 q 458 -25 528 -25 q 253 19 340 -25 q 120 142 167 64 q 74 317 74 219 q 143 533 74 438 q 340 683 213 629 q 632 738 467 738 q 988 649 836 738 q 1115 715 1046 692 q 1256 738 1183 738 m 1135 242 q 1098 406 1135 331 q 993 538 1061 482 q 915 406 943 482 q 888 242 888 331 q 920 111 888 161 q 1011 61 953 61 q 1103 111 1071 61 q 1135 242 1135 161 m 319 197 q 360 94 319 135 q 463 54 400 54 q 566 94 525 54 q 607 197 607 135 q 566 300 607 260 q 463 340 525 340 q 360 300 400 340 q 319 197 319 260 z "},"ௌ":{"ha":3511,"x_min":81,"x_max":3497,"o":"m 539 938 q 769 883 672 938 q 919 724 867 828 q 971 479 971 621 l 971 0 l 872 0 l 872 479 q 785 753 872 656 q 539 851 697 851 q 351 799 431 851 q 228 654 271 747 q 185 442 185 561 q 243 189 185 290 l 243 197 q 272 312 243 261 q 353 391 301 363 q 469 419 406 419 q 592 391 538 419 q 678 312 647 363 q 708 197 708 261 q 677 84 708 135 q 590 4 646 33 q 465 -25 535 -25 q 267 35 354 -25 q 130 201 179 94 q 81 442 81 307 q 137 697 81 585 q 297 874 193 810 q 539 938 401 938 m 469 340 q 367 300 407 340 q 326 197 326 260 q 367 94 326 135 q 469 54 407 54 q 573 94 532 54 q 614 197 614 135 q 573 300 614 260 q 469 340 532 340 m 3236 635 l 3236 0 l 3138 0 l 3138 635 l 2790 635 l 2790 0 l 2692 0 l 2692 317 q 2647 489 2692 413 q 2523 608 2601 565 q 2347 651 2444 651 q 2162 610 2240 651 q 2041 497 2083 569 q 1999 329 1999 424 q 2068 133 1999 207 q 2057 197 2057 167 q 2086 312 2057 261 q 2167 391 2115 363 q 2283 419 2219 419 q 2406 391 2351 419 q 2492 312 2461 363 q 2522 197 2522 261 q 2491 84 2522 135 q 2404 4 2460 33 q 2279 -25 2349 -25 q 2074 22 2161 -25 q 1941 149 1988 68 q 1894 329 1894 229 q 1950 540 1894 447 q 2108 685 2006 633 q 2347 738 2211 738 q 2545 692 2456 738 q 2692 567 2635 647 l 2692 713 l 3486 713 l 3497 635 l 3236 635 m 2283 340 q 2181 300 2221 340 q 2140 197 2140 260 q 2181 94 2140 135 q 2283 54 2221 54 q 2387 94 2346 54 q 2428 197 2428 135 q 2387 300 2428 260 q 2283 340 2346 340 m 1442 638 q 1471 649 1460 638 q 1482 678 1482 660 q 1471 708 1482 696 q 1442 719 1460 719 q 1413 708 1424 719 q 1401 678 1401 696 q 1413 649 1401 660 q 1442 638 1424 638 m 1318 697 q 1289 686 1300 697 q 1278 657 1278 675 q 1289 628 1278 639 q 1318 617 1300 617 q 1347 628 1336 617 q 1358 657 1358 639 q 1347 686 1358 675 q 1318 697 1336 697 m 1567 617 q 1596 628 1585 617 q 1607 657 1607 639 q 1596 686 1607 675 q 1567 697 1585 697 q 1538 686 1549 697 q 1526 657 1526 675 q 1538 628 1526 639 q 1567 617 1549 617 m 1213 628 q 1183 616 1194 628 q 1171 586 1171 604 q 1183 557 1171 568 q 1213 546 1194 546 q 1242 557 1231 546 q 1253 586 1253 568 q 1242 616 1253 604 q 1213 628 1231 628 m 1672 546 q 1702 557 1690 546 q 1714 586 1714 568 q 1702 616 1714 604 q 1672 628 1690 628 q 1643 616 1654 628 q 1632 586 1632 604 q 1643 557 1632 568 q 1672 546 1654 546 m 1146 518 q 1116 506 1128 518 q 1104 476 1104 494 q 1116 447 1104 458 q 1146 436 1128 436 q 1175 447 1164 436 q 1186 476 1186 458 q 1175 506 1186 494 q 1146 518 1164 518 m 1739 436 q 1768 447 1757 436 q 1779 476 1779 458 q 1768 506 1779 494 q 1739 518 1757 518 q 1710 506 1721 518 q 1699 476 1699 494 q 1710 447 1699 458 q 1739 436 1721 436 m 1126 399 q 1097 387 1108 399 q 1085 357 1085 375 q 1097 328 1085 339 q 1126 318 1108 318 q 1156 328 1144 318 q 1167 357 1167 339 q 1156 387 1167 375 q 1126 399 1144 399 m 1758 318 q 1788 328 1776 318 q 1800 357 1800 339 q 1788 387 1800 375 q 1758 399 1776 399 q 1729 387 1740 399 q 1718 357 1718 375 q 1729 328 1718 339 q 1758 318 1740 318 m 1146 282 q 1116 271 1128 282 q 1104 242 1104 260 q 1116 213 1104 224 q 1146 201 1128 201 q 1175 213 1164 201 q 1186 242 1186 224 q 1175 271 1186 260 q 1146 282 1164 282 m 1739 201 q 1768 213 1757 201 q 1779 242 1779 224 q 1768 271 1779 260 q 1739 282 1757 282 q 1710 271 1721 282 q 1699 242 1699 260 q 1710 213 1699 224 q 1739 201 1721 201 m 1211 171 q 1181 160 1193 171 q 1169 131 1169 149 q 1181 101 1169 113 q 1211 90 1193 90 q 1240 101 1229 90 q 1251 131 1251 113 q 1240 160 1251 149 q 1211 171 1229 171 m 1674 90 q 1703 101 1692 90 q 1715 131 1715 113 q 1703 160 1715 149 q 1674 171 1692 171 q 1644 160 1656 171 q 1633 131 1633 149 q 1644 101 1633 113 q 1674 90 1656 90 m 1318 103 q 1289 91 1300 103 q 1278 61 1278 79 q 1289 32 1278 43 q 1318 21 1300 21 q 1347 32 1336 21 q 1358 61 1358 43 q 1347 91 1358 79 q 1318 103 1336 103 m 1567 21 q 1596 32 1585 21 q 1607 61 1607 43 q 1596 91 1607 79 q 1567 103 1585 103 q 1538 91 1549 103 q 1526 61 1526 79 q 1538 32 1526 43 q 1567 21 1549 21 m 1442 0 q 1471 11 1460 0 q 1482 40 1482 22 q 1471 70 1482 58 q 1442 82 1460 82 q 1413 70 1424 82 q 1401 40 1401 58 q 1413 11 1401 22 q 1442 0 1424 0 z "},"ெ":{"ha":1093,"x_min":74,"x_max":964,"o":"m 532 938 q 763 883 665 938 q 912 724 860 828 q 964 479 964 621 l 964 0 l 865 0 l 865 479 q 778 753 865 656 q 532 851 690 851 q 344 799 424 851 q 221 654 264 747 q 178 442 178 561 q 236 189 178 290 l 236 197 q 265 312 236 261 q 347 391 294 363 q 463 419 399 419 q 585 391 531 419 q 671 312 640 363 q 701 197 701 261 q 670 84 701 135 q 583 4 639 33 q 458 -25 528 -25 q 260 35 347 -25 q 123 201 172 94 q 74 442 74 307 q 130 697 74 585 q 290 874 186 810 q 532 938 394 938 m 463 340 q 360 300 400 340 q 319 197 319 260 q 360 94 319 135 q 463 54 400 54 q 566 94 525 54 q 607 197 607 135 q 566 300 607 260 q 463 340 525 340 z "},"ே":{"ha":933,"x_min":74,"x_max":860,"o":"m 653 388 q 801 333 743 388 q 860 194 860 279 q 823 82 860 132 q 716 3 786 32 q 550 -25 646 -25 q 297 38 404 -25 q 131 209 189 100 q 74 457 74 318 q 131 704 74 594 q 297 876 189 814 q 550 938 404 938 q 716 910 646 938 q 823 832 786 882 q 860 719 860 782 q 801 580 860 635 q 653 525 743 525 q 510 580 567 525 q 453 719 453 635 q 471 797 453 761 q 522 857 489 832 q 340 800 418 853 q 220 658 263 747 q 178 457 178 568 q 220 256 178 346 q 342 113 263 167 q 525 56 421 60 q 472 116 490 81 q 453 194 453 151 q 510 333 453 279 q 653 388 567 388 m 657 608 q 736 640 704 608 q 768 719 768 671 q 736 799 768 767 q 657 831 704 831 q 576 799 608 831 q 544 719 544 768 q 576 640 544 671 q 657 608 608 608 m 657 306 q 576 274 608 306 q 544 194 544 243 q 576 115 544 146 q 657 83 608 83 q 736 115 704 83 q 768 194 768 146 q 736 274 768 242 q 657 306 704 306 z "},"ி":{"ha":356,"x_min":-518,"x_max":226,"o":"m -194 1107 q 27 1055 -68 1107 q 174 910 122 1003 q 226 699 226 817 l 226 0 l 129 0 l 129 699 q 90 867 129 793 q -23 981 50 940 q -194 1022 -96 1022 q -357 979 -299 1022 q -415 865 -415 936 q -375 753 -415 794 q -251 713 -335 713 l -190 713 l -190 644 l -251 644 q -447 706 -378 644 q -518 865 -517 767 q -478 990 -518 935 q -365 1076 -439 1044 q -194 1107 -292 1107 z "},"ொ":{"ha":2690,"x_min":74,"x_max":2656,"o":"m 532 938 q 763 883 665 938 q 912 724 860 828 q 964 479 964 621 l 964 0 l 865 0 l 865 479 q 778 753 865 656 q 532 851 690 851 q 344 799 424 851 q 221 654 264 747 q 178 442 178 561 q 236 189 178 290 l 236 197 q 265 312 236 261 q 347 391 294 363 q 463 419 399 419 q 585 391 531 419 q 671 312 640 363 q 701 197 701 261 q 670 84 701 135 q 583 4 639 33 q 458 -25 528 -25 q 260 35 347 -25 q 123 201 172 94 q 74 442 74 307 q 130 697 74 585 q 290 874 186 810 q 532 938 394 938 m 463 340 q 360 300 400 340 q 319 197 319 260 q 360 94 319 135 q 463 54 400 54 q 566 94 525 54 q 607 197 607 135 q 566 300 607 260 q 463 340 525 340 m 2294 0 l 2294 635 l 1975 635 l 1975 0 l 1878 0 l 1878 713 l 2644 713 l 2656 635 l 2394 635 l 2394 0 l 2294 0 m 1417 638 q 1446 649 1435 638 q 1457 678 1457 660 q 1446 708 1457 696 q 1417 719 1435 719 q 1388 708 1399 719 q 1376 678 1376 696 q 1388 649 1376 660 q 1417 638 1399 638 m 1293 697 q 1264 686 1275 697 q 1253 657 1253 675 q 1264 628 1253 639 q 1293 617 1275 617 q 1322 628 1311 617 q 1333 657 1333 639 q 1322 686 1333 675 q 1293 697 1311 697 m 1542 617 q 1571 628 1560 617 q 1582 657 1582 639 q 1571 686 1582 675 q 1542 697 1560 697 q 1513 686 1524 697 q 1501 657 1501 675 q 1513 628 1501 639 q 1542 617 1524 617 m 1188 628 q 1158 616 1169 628 q 1146 586 1146 604 q 1158 557 1146 568 q 1188 546 1169 546 q 1217 557 1206 546 q 1228 586 1228 568 q 1217 616 1228 604 q 1188 628 1206 628 m 1647 546 q 1677 557 1665 546 q 1689 586 1689 568 q 1677 616 1689 604 q 1647 628 1665 628 q 1618 616 1629 628 q 1607 586 1607 604 q 1618 557 1607 568 q 1647 546 1629 546 m 1121 518 q 1091 506 1103 518 q 1079 476 1079 494 q 1091 447 1079 458 q 1121 436 1103 436 q 1150 447 1139 436 q 1161 476 1161 458 q 1150 506 1161 494 q 1121 518 1139 518 m 1714 436 q 1743 447 1732 436 q 1754 476 1754 458 q 1743 506 1754 494 q 1714 518 1732 518 q 1685 506 1696 518 q 1674 476 1674 494 q 1685 447 1674 458 q 1714 436 1696 436 m 1101 399 q 1072 387 1083 399 q 1060 357 1060 375 q 1072 328 1060 339 q 1101 318 1083 318 q 1131 328 1119 318 q 1142 357 1142 339 q 1131 387 1142 375 q 1101 399 1119 399 m 1733 318 q 1763 328 1751 318 q 1775 357 1775 339 q 1763 387 1775 375 q 1733 399 1751 399 q 1704 387 1715 399 q 1693 357 1693 375 q 1704 328 1693 339 q 1733 318 1715 318 m 1121 282 q 1091 271 1103 282 q 1079 242 1079 260 q 1091 213 1079 224 q 1121 201 1103 201 q 1150 213 1139 201 q 1161 242 1161 224 q 1150 271 1161 260 q 1121 282 1139 282 m 1714 201 q 1743 213 1732 201 q 1754 242 1754 224 q 1743 271 1754 260 q 1714 282 1732 282 q 1685 271 1696 282 q 1674 242 1674 260 q 1685 213 1674 224 q 1714 201 1696 201 m 1186 171 q 1156 160 1168 171 q 1144 131 1144 149 q 1156 101 1144 113 q 1186 90 1168 90 q 1215 101 1204 90 q 1226 131 1226 113 q 1215 160 1226 149 q 1186 171 1204 171 m 1649 90 q 1678 101 1667 90 q 1690 131 1690 113 q 1678 160 1690 149 q 1649 171 1667 171 q 1619 160 1631 171 q 1608 131 1608 149 q 1619 101 1608 113 q 1649 90 1631 90 m 1293 103 q 1264 91 1275 103 q 1253 61 1253 79 q 1264 32 1253 43 q 1293 21 1275 21 q 1322 32 1311 21 q 1333 61 1333 43 q 1322 91 1333 79 q 1293 103 1311 103 m 1542 21 q 1571 32 1560 21 q 1582 61 1582 43 q 1571 91 1582 79 q 1542 103 1560 103 q 1513 91 1524 103 q 1501 61 1501 79 q 1513 32 1501 43 q 1542 21 1524 21 m 1417 0 q 1446 11 1435 0 q 1457 40 1457 22 q 1446 70 1457 58 q 1417 82 1435 82 q 1388 70 1399 82 q 1376 40 1376 58 q 1388 11 1376 22 q 1417 0 1399 0 z "},"ோ":{"ha":2558,"x_min":74,"x_max":2524,"o":"m 653 388 q 801 333 743 388 q 860 194 860 279 q 823 82 860 132 q 716 3 786 32 q 550 -25 646 -25 q 297 38 404 -25 q 131 209 189 100 q 74 457 74 318 q 131 704 74 594 q 297 876 189 814 q 550 938 404 938 q 716 910 646 938 q 823 832 786 882 q 860 719 860 782 q 801 580 860 635 q 653 525 743 525 q 510 580 567 525 q 453 719 453 635 q 471 797 453 761 q 522 857 489 832 q 340 800 418 853 q 220 658 263 747 q 178 457 178 568 q 220 256 178 346 q 342 113 263 167 q 525 56 421 60 q 472 116 490 81 q 453 194 453 151 q 510 333 453 279 q 653 388 567 388 m 657 608 q 736 640 704 608 q 768 719 768 671 q 736 799 768 767 q 657 831 704 831 q 576 799 608 831 q 544 719 544 768 q 576 640 544 671 q 657 608 608 608 m 657 306 q 576 274 608 306 q 544 194 544 243 q 576 115 544 146 q 657 83 608 83 q 736 115 704 83 q 768 194 768 146 q 736 274 768 242 q 657 306 704 306 m 2163 0 l 2163 635 l 1843 635 l 1843 0 l 1746 0 l 1746 713 l 2513 713 l 2524 635 l 2263 635 l 2263 0 l 2163 0 m 1283 638 q 1313 649 1301 638 q 1324 678 1324 660 q 1313 708 1324 696 q 1283 719 1301 719 q 1254 708 1265 719 q 1243 678 1243 696 q 1254 649 1243 660 q 1283 638 1265 638 m 1160 697 q 1131 686 1142 697 q 1119 657 1119 675 q 1131 628 1119 639 q 1160 617 1142 617 q 1189 628 1178 617 q 1200 657 1200 639 q 1189 686 1200 675 q 1160 697 1178 697 m 1408 617 q 1438 628 1426 617 q 1449 657 1449 639 q 1438 686 1449 675 q 1408 697 1426 697 q 1379 686 1390 697 q 1368 657 1368 675 q 1379 628 1368 639 q 1408 617 1390 617 m 1054 628 q 1024 616 1036 628 q 1013 586 1013 604 q 1024 557 1013 568 q 1054 546 1036 546 q 1083 557 1072 546 q 1094 586 1094 568 q 1083 616 1094 604 q 1054 628 1072 628 m 1514 546 q 1544 557 1532 546 q 1556 586 1556 568 q 1544 616 1556 604 q 1514 628 1532 628 q 1485 616 1496 628 q 1474 586 1474 604 q 1485 557 1474 568 q 1514 546 1496 546 m 988 518 q 958 506 969 518 q 946 476 946 494 q 958 447 946 458 q 988 436 969 436 q 1017 447 1006 436 q 1028 476 1028 458 q 1017 506 1028 494 q 988 518 1006 518 m 1581 436 q 1610 447 1599 436 q 1621 476 1621 458 q 1610 506 1621 494 q 1581 518 1599 518 q 1551 506 1563 518 q 1540 476 1540 494 q 1551 447 1540 458 q 1581 436 1563 436 m 968 399 q 938 387 950 399 q 926 357 926 375 q 938 328 926 339 q 968 318 950 318 q 997 328 986 318 q 1008 357 1008 339 q 997 387 1008 375 q 968 399 986 399 m 1600 318 q 1630 328 1618 318 q 1642 357 1642 339 q 1630 387 1642 375 q 1600 399 1618 399 q 1571 387 1582 399 q 1560 357 1560 375 q 1571 328 1560 339 q 1600 318 1582 318 m 988 282 q 958 271 969 282 q 946 242 946 260 q 958 213 946 224 q 988 201 969 201 q 1017 213 1006 201 q 1028 242 1028 224 q 1017 271 1028 260 q 988 282 1006 282 m 1581 201 q 1610 213 1599 201 q 1621 242 1621 224 q 1610 271 1621 260 q 1581 282 1599 282 q 1551 271 1563 282 q 1540 242 1540 260 q 1551 213 1540 224 q 1581 201 1563 201 m 1053 171 q 1023 160 1035 171 q 1011 131 1011 149 q 1023 101 1011 113 q 1053 90 1035 90 q 1082 101 1071 90 q 1093 131 1093 113 q 1082 160 1093 149 q 1053 171 1071 171 m 1515 90 q 1545 101 1533 90 q 1557 131 1557 113 q 1545 160 1557 149 q 1515 171 1533 171 q 1486 160 1497 171 q 1475 131 1475 149 q 1486 101 1475 113 q 1515 90 1497 90 m 1160 103 q 1131 91 1142 103 q 1119 61 1119 79 q 1131 32 1119 43 q 1160 21 1142 21 q 1189 32 1178 21 q 1200 61 1200 43 q 1189 91 1200 79 q 1160 103 1178 103 m 1408 21 q 1438 32 1426 21 q 1449 61 1449 43 q 1438 91 1449 79 q 1408 103 1426 103 q 1379 91 1390 103 q 1368 61 1368 79 q 1379 32 1368 43 q 1408 21 1390 21 m 1283 0 q 1313 11 1301 0 q 1324 40 1324 22 q 1313 70 1324 58 q 1283 82 1301 82 q 1254 70 1265 82 q 1243 40 1243 58 q 1254 11 1243 22 q 1283 0 1265 0 z "},"ு":{"ha":654,"x_min":-228,"x_max":610,"o":"m 365 713 q 491 684 435 713 q 578 605 547 656 q 610 492 610 554 q 578 377 610 428 q 492 298 547 326 q 369 269 438 269 q 247 298 301 269 q 161 376 192 326 q 131 490 131 426 q 186 635 131 576 l -228 635 l -228 713 l 365 713 m 369 347 q 470 388 431 347 q 510 492 510 429 q 470 594 510 554 q 369 635 431 635 q 265 594 306 635 q 225 492 225 554 q 265 388 225 429 q 369 347 306 347 z "},"ூ":{"ha":925,"x_min":-228,"x_max":879,"o":"m 513 850 q 700 803 617 850 q 831 674 783 757 q 879 489 879 592 q 825 296 879 382 q 674 161 771 210 q 457 113 578 113 l 376 113 l 376 190 l 457 190 q 621 228 549 190 q 734 335 693 267 q 775 489 775 403 q 741 631 775 568 q 647 731 707 694 q 513 767 586 767 q 329 713 403 767 l 365 713 q 491 684 435 713 q 578 605 547 656 q 610 492 610 554 q 544 335 610 396 q 375 274 478 274 q 253 303 307 274 q 168 387 199 333 q 138 506 138 440 q 161 635 138 575 l -228 635 l -228 713 l 206 713 q 335 814 256 778 q 513 850 414 850 m 510 492 q 469 595 510 556 q 361 635 429 635 l 260 635 q 229 507 229 576 q 270 395 229 439 q 375 351 311 351 q 472 390 435 351 q 510 492 510 429 z "},"ஂ":{"ha":0,"x_min":-161,"x_max":163,"o":"m 0 886 q 115 930 67 886 q 163 1039 163 974 q 115 1149 163 1106 q 0 1193 67 1193 q -114 1149 -67 1193 q -161 1039 -161 1106 q -113 930 -161 974 q 0 886 -65 886 m 0 963 q -57 984 -35 963 q -79 1039 -79 1006 q -57 1096 -79 1074 q 0 1118 -35 1118 q 57 1096 35 1118 q 79 1039 79 1074 q 57 984 79 1006 q 0 963 35 963 z "},"்":{"ha":0,"x_min":-67,"x_max":68,"o":"m 0 886 q 48 906 28 886 q 68 953 68 926 q 48 1001 68 982 q 0 1021 28 1021 q -48 1001 -29 1021 q -67 953 -67 982 q -48 906 -67 925 q 0 886 -29 886 z "},"ீ":{"ha":0,"x_min":-539,"x_max":86,"o":"m -215 1219 q -65 1183 -135 1219 q 45 1087 4 1147 q 86 960 86 1026 q 43 848 86 892 q -65 804 0 804 q -175 844 -132 804 q -218 946 -218 885 q -176 1046 -218 1007 q -69 1085 -135 1085 l -61 1085 q -215 1133 -124 1133 q -373 1074 -311 1133 q -435 925 -435 1015 q -385 772 -435 832 q -254 713 -335 713 l -254 639 q -401 676 -336 639 q -502 778 -465 713 q -539 925 -539 843 q -497 1076 -539 1010 q -382 1181 -456 1143 q -215 1219 -308 1219 m -65 876 q -17 896 -36 876 q 3 944 3 915 q -17 992 3 974 q -65 1011 -36 1011 q -114 992 -94 1011 q -133 944 -133 974 q -114 896 -133 915 q -65 876 -94 876 z "}}}
